<?xml version="1.0" encoding="utf-8"?>
<!-- Generator: Adobe Illustrator 26.5.0, SVG Export Plug-In . SVG Version: 6.00 Build 0)  -->
<svg version="1.1" id="Layer_1" xmlns="http://www.w3.org/2000/svg" xmlns:xlink="http://www.w3.org/1999/xlink" x="0px" y="0px"
	 viewBox="0 0 69.8 54.3" style="enable-background:new 0 0 69.8 54.3;" xml:space="preserve">
<style type="text/css">
	.st0{fill:#FFFFFF;}
	.st1{fill:#F1F1F1;}
	.st2{fill:#E2E2E2;}
	.st3{fill:#D4D4D4;}
	.st4{fill:#C5C5C5;}
	.st5{fill:#B7B7B7;}
	.st6{fill:#A8A8A8;}
	.st7{fill:#9A9A9A;}
	.st8{fill:#8B8B8B;}
	.st9{fill:#7D7D7D;}
	.st10{fill:#6E6E6E;}
	.st11{fill:#606060;}
	.st12{fill:#88959D;}
	.st13{fill:#333E44;}
	.st14{opacity:0.5;}
	.st15{fill:#2D3A40;}
	.st16{fill:#131A1C;}
	.st17{fill:#1B2326;}
	.st18{opacity:0.6;}
	.st19{fill:#1D282E;}
	.st20{opacity:0.7;}
	.st21{fill:#EBECED;}
	.st22{fill:#C2C5C6;}
	.st23{fill:#0D1316;}
	.st24{fill:#101719;}
	.st25{fill:#C8EDF0;}
	.st26{fill:#2C3333;}
	.st27{fill:#648487;}
	.st28{fill:#415556;}
	.st29{opacity:0.5;fill:#B7B7B7;enable-background:new    ;}
</style>
<g>
	<g>
		<path class="st0" d="M67.7,25.5v-8c0-4.5-2.7-7.1-7.3-7.1H27.1c-0.1-0.3-0.3-0.5-0.5-0.8c-0.7-0.8-1.8-1.3-3-1.3
			c-0.7,0-1.3,0.1-1.8,0.4c-0.6-1.2-1.8-1.9-3.4-1.9h-5.8c-1.5,0-2.7,0.5-3.4,1.5c-0.7,1-0.7,2.1-0.7,2.6v0.2
			c-2.3,1.1-3.6,3.3-3.6,6.5v26.7c0,2.9,2.4,4.8,4.5,4.8h53.6c2.7,0,4.6-1.9,4.6-4.5v-9.2c0-0.1,0-0.2,0-0.2V33c0-0.1,0-0.3,0-0.4
			v-4.2c0-0.1,0-0.3,0-0.4L67.7,25.5C67.7,25.5,67.7,25.5,67.7,25.5z"/>
		<path class="st1" d="M67.5,25.3v-8c0-4.5-2.7-7.1-7.3-7.1H26.9c-0.1-0.3-0.3-0.5-0.5-0.8c-0.7-0.8-1.8-1.3-3-1.3
			c-0.7,0-1.3,0.1-1.8,0.4c-0.6-1.2-1.8-1.9-3.4-1.9h-5.8c-1.5,0-2.7,0.5-3.4,1.5c-0.7,1-0.7,2.1-0.7,2.6v0.2
			c-2.3,1.1-3.6,3.3-3.6,6.5v26.7c0,2.9,2.4,4.8,4.5,4.8h53.6c2.7,0,4.6-1.9,4.6-4.5v-9.2c0-0.1,0-0.2,0-0.2v-2.3c0-0.1,0-0.3,0-0.4
			v-4.2c0-0.1,0-0.3,0-0.4L67.5,25.3C67.5,25.3,67.5,25.3,67.5,25.3z"/>
		<path class="st2" d="M67.3,25.1v-8c0-4.5-2.7-7.1-7.3-7.1H26.7c-0.1-0.3-0.3-0.5-0.5-0.8c-0.7-0.8-1.8-1.3-3-1.3
			c-0.7,0-1.3,0.1-1.8,0.4c-0.6-1.2-1.8-1.9-3.4-1.9h-5.8c-1.5,0-2.7,0.5-3.4,1.5C8,8.9,8,10,8,10.5v0.2c-2.3,1.1-3.6,3.3-3.6,6.5
			V44c0,2.9,2.4,4.8,4.5,4.8h53.6c2.7,0,4.6-1.9,4.6-4.5V35c0-0.1,0-0.2,0-0.2v-2.3c0-0.1,0-0.3,0-0.4v-4.2c0-0.1,0-0.3,0-0.4
			L67.3,25.1C67.3,25.1,67.3,25.1,67.3,25.1z"/>
		<path class="st3" d="M67,24.9v-8c0-4.5-2.7-7.1-7.3-7.1H26.5c-0.1-0.3-0.3-0.5-0.5-0.8c-0.7-0.8-1.8-1.3-3-1.3
			c-0.7,0-1.3,0.1-1.8,0.4c-0.6-1.2-1.8-1.9-3.4-1.9h-5.8c-1.5,0-2.7,0.5-3.4,1.5c-0.7,1-0.7,2.1-0.7,2.6v0.2
			c-2.3,1.1-3.6,3.3-3.6,6.5v26.7c0,2.9,2.4,4.8,4.5,4.8h53.6c2.7,0,4.6-1.9,4.6-4.5v-9.2c0-0.1,0-0.2,0-0.2v-2.3c0-0.1,0-0.3,0-0.4
			v-4.2c0-0.1,0-0.3,0-0.4V24.9C67,24.9,67,24.9,67,24.9z"/>
		<path class="st4" d="M66.8,24.6v-8c0-4.5-2.7-7.1-7.3-7.1H26.2c-0.1-0.3-0.3-0.5-0.5-0.8c-0.7-0.8-1.8-1.3-3-1.3
			c-0.7,0-1.3,0.1-1.8,0.4C20.2,6.7,19,6,17.5,6h-5.8C10.1,6,9,6.5,8.3,7.5c-0.7,1-0.7,2.1-0.7,2.6v0.2C5.3,11.4,4,13.6,4,16.8v26.7
			c0,2.9,2.4,4.8,4.5,4.8h53.6c2.7,0,4.6-1.9,4.6-4.5v-9.2c0-0.1,0-0.2,0-0.2v-2.3c0-0.1,0-0.3,0-0.4v-4.2c0-0.1,0-0.3,0-0.4V24.6
			C66.8,24.7,66.8,24.7,66.8,24.6z"/>
		<path class="st5" d="M66.6,24.4v-8c0-4.5-2.7-7.1-7.3-7.1H26c-0.1-0.3-0.3-0.5-0.5-0.8c-0.7-0.8-1.8-1.3-3-1.3
			c-0.7,0-1.3,0.1-1.8,0.4c-0.6-1.2-1.8-1.9-3.4-1.9h-5.8c-1.5,0-2.7,0.5-3.4,1.5c-0.7,1-0.7,2.1-0.7,2.6v0.2
			c-2.3,1.1-3.6,3.3-3.6,6.5v26.7c0,2.9,2.4,4.8,4.5,4.8H62c2.7,0,4.6-1.9,4.6-4.5v-9.2c0-0.1,0-0.2,0-0.2v-2.3c0-0.1,0-0.3,0-0.4
			v-4.2c0-0.1,0-0.3,0-0.4L66.6,24.4C66.6,24.4,66.6,24.4,66.6,24.4z"/>
		<path class="st6" d="M66.4,24.2v-8c0-4.5-2.7-7.1-7.3-7.1H25.8c-0.1-0.3-0.3-0.5-0.5-0.8c-0.7-0.8-1.8-1.3-3-1.3
			c-0.7,0-1.3,0.1-1.8,0.4c-0.6-1.2-1.8-1.9-3.4-1.9h-5.8c-1.5,0-2.7,0.5-3.4,1.5C7.1,8,7.1,9.1,7.1,9.7v0.2
			c-2.3,1.1-3.6,3.3-3.6,6.5v26.7c0,2.9,2.4,4.8,4.5,4.8h53.6c2.7,0,4.6-1.9,4.6-4.5v-9.2c0-0.1,0-0.2,0-0.2v-2.3c0-0.1,0-0.3,0-0.4
			V27c0-0.1,0-0.3,0-0.4L66.4,24.2C66.4,24.2,66.4,24.2,66.4,24.2z"/>
		<path class="st7" d="M66.2,24v-8c0-4.5-2.7-7.1-7.3-7.1H25.6c-0.1-0.3-0.3-0.5-0.5-0.8c-0.7-0.8-1.8-1.3-3-1.3
			c-0.7,0-1.3,0.1-1.8,0.4c-0.6-1.2-1.8-1.9-3.4-1.9H11c-1.5,0-2.7,0.5-3.4,1.5c-0.7,1-0.7,2.1-0.7,2.6v0.2
			c-2.3,1.1-3.6,3.3-3.6,6.5v26.7c0,2.9,2.4,4.8,4.5,4.8h53.6c2.7,0,4.6-1.9,4.6-4.5v-9.2c0-0.1,0-0.2,0-0.2v-2.3c0-0.1,0-0.3,0-0.4
			v-4.2c0-0.1,0-0.3,0-0.4L66.2,24C66.2,24,66.2,24,66.2,24z"/>
		<path class="st8" d="M65.9,23.8v-8c0-4.5-2.7-7.1-7.3-7.1H25.4c-0.1-0.3-0.3-0.5-0.5-0.8c-0.7-0.8-1.8-1.3-3-1.3
			c-0.7,0-1.3,0.1-1.8,0.4c-0.6-1.2-1.8-1.9-3.4-1.9h-5.8c-1.5,0-2.7,0.5-3.4,1.5c-0.7,1-0.7,2.1-0.7,2.6v0.2
			c-2.3,1.1-3.6,3.3-3.6,6.5v26.7c0,2.9,2.4,4.8,4.5,4.8h53.6c2.7,0,4.6-1.9,4.6-4.5v-9.2c0-0.1,0-0.2,0-0.2v-2.3c0-0.1,0-0.3,0-0.4
			v-4.2c0-0.1,0-0.3,0-0.4L65.9,23.8C65.9,23.8,65.9,23.8,65.9,23.8z"/>
		<path class="st9" d="M65.7,23.5v-8c0-4.5-2.7-7.1-7.3-7.1H25.1c-0.1-0.3-0.3-0.5-0.5-0.8c-0.7-0.8-1.8-1.3-3-1.3
			c-0.7,0-1.3,0.1-1.8,0.4c-0.6-1.2-1.8-1.9-3.4-1.9h-5.8C9,4.9,7.9,5.4,7.2,6.4C6.5,7.4,6.5,8.5,6.5,9v0.2
			c-2.3,1.1-3.6,3.3-3.6,6.5v26.7c0,2.9,2.4,4.8,4.5,4.8h53.6c2.7,0,4.6-1.9,4.6-4.5v-9.2c0-0.1,0-0.2,0-0.2V31c0-0.1,0-0.3,0-0.4
			v-4.2c0-0.1,0-0.3,0-0.4V23.5C65.7,23.6,65.7,23.5,65.7,23.5z"/>
		<path class="st10" d="M65.5,23.3v-8c0-4.5-2.7-7.1-7.3-7.1H24.9c-0.1-0.3-0.3-0.5-0.5-0.8c-0.7-0.8-1.8-1.3-3-1.3
			c-0.7,0-1.3,0.1-1.8,0.4c-0.6-1.2-1.8-1.9-3.4-1.9h-5.8C8.8,4.7,7.7,5.2,7,6.2c-0.7,1-0.7,2.1-0.7,2.6V9c-2.3,1.1-3.6,3.3-3.6,6.5
			v26.7c0,2.9,2.4,4.8,4.5,4.8h53.6c2.7,0,4.6-1.9,4.6-4.5v-9.2c0-0.1,0-0.2,0-0.2v-2.3c0-0.1,0-0.3,0-0.4v-4.2c0-0.1,0-0.3,0-0.4
			V23.3C65.5,23.3,65.5,23.3,65.5,23.3z"/>
		<path class="st11" d="M65.3,23.1v-8c0-4.5-2.7-7.1-7.3-7.1H24.7c-0.1-0.3-0.3-0.5-0.5-0.8c-0.7-0.8-1.8-1.3-3-1.3
			c-0.7,0-1.3,0.1-1.8,0.4c-0.6-1.2-1.8-1.9-3.4-1.9h-5.8C8.6,4.5,7.5,5,6.7,5.9C6,6.9,6,8,6,8.6v0.2c-2.3,1.1-3.6,3.3-3.6,6.5V42
			c0,2.9,2.4,4.8,4.5,4.8h53.6c2.7,0,4.6-1.9,4.6-4.5V33c0-0.1,0-0.2,0-0.2v-2.3c0-0.1,0-0.3,0-0.4v-4.2c0-0.1,0-0.3,0-0.4
			L65.3,23.1C65.3,23.1,65.3,23.1,65.3,23.1z"/>
	</g>
	<path class="st0" d="M65.3,23.1v-8c0-4.5-2.7-7.1-7.3-7.1H24.7c-0.1-0.3-0.3-0.5-0.5-0.8c-0.7-0.8-1.8-1.3-3-1.3
		c-0.7,0-1.3,0.1-1.8,0.4c-0.6-1.2-1.8-1.9-3.4-1.9h-5.8C8.6,4.5,7.5,5,6.7,5.9C6,6.9,6,8,6,8.6v0.2c-2.3,1.1-3.6,3.3-3.6,6.5V42
		c0,2.9,2.4,4.8,4.5,4.8h53.6c2.7,0,4.6-1.9,4.6-4.5V33c0-0.1,0-0.2,0-0.2v-2.3c0-0.1,0-0.3,0-0.4v-4.2c0-0.1,0-0.3,0-0.4L65.3,23.1
		C65.3,23.1,65.3,23.1,65.3,23.1z"/>
	<g>
		<g>
			<g>
				<path class="st12" d="M60.7,44.4c-10.5,0-52.8,0-53.6,0c-0.9,0-2.2-0.8-2.2-2.4c0-6.5,0-23.5,0-26.7c0-4,2.2-4.9,5.1-4.9
					c2.4,0,45,0,48,0c3.1,0,5,1.4,5,4.8c0,2.8,0,20.8,0,27.1C63,43.6,62.1,44.4,60.7,44.4z"/>
				<g>
					<path class="st13" d="M60.7,44.4c-2.3,0-4.5,0-6.8,0c-3.2,0-6.5,0-9.7,0c-3.7,0-7.3,0-11,0c-3.6,0-7.2,0-10.7,0
						c-3,0-5.9,0-8.9,0c-1.8,0-3.7,0-5.5,0c-0.3,0-0.7,0-1,0c-0.9,0-1.7-0.6-2-1.4c-0.3-0.8-0.2-1.7-0.2-2.5c0-3.8,0-7.6,0-11.4
						c0-3.7,0-7.4,0-11.1c0-1.1-0.1-2.3,0-3.4c0.1-1,0.3-2,0.9-2.8c0.5-0.7,1.3-1.1,2.2-1.3c0.9-0.2,1.8-0.2,2.7-0.2
						c0.7,0,1.3,0,2,0c2.3,0,4.6,0,6.9,0c3.1,0,6.3,0,9.4,0c3.4,0,6.8,0,10.3,0c3.1,0,6.3,0,9.4,0c2.3,0,4.6,0,6.9,0
						c0.7,0,1.3,0,2,0c1.2,0,2.4,0,3.4,0.6c1.6,0.9,2.1,2.7,2.1,4.4c0,1,0,2.1,0,3.1c0,3.7,0,7.3,0,11c0,3.7,0,7.4,0,11
						c0,0.6,0,1.3,0,2c0,0.5-0.2,1-0.6,1.3C61.9,44.3,61.3,44.4,60.7,44.4C60.7,44.4,60.6,44.4,60.7,44.4c0.9,0,1.7-0.3,2.1-1.1
						c0.3-0.7,0.2-1.5,0.2-2.2c0-1.7,0-3.3,0-5c0-4,0-8.1,0-12.1c0-2.8,0-5.7,0-8.5c0-1.6-0.3-3.3-1.7-4.3c-1.1-0.7-2.4-0.8-3.6-0.8
						c-1.6,0-3.2,0-4.8,0c-2.8,0-5.6,0-8.4,0c-3.4,0-6.8,0-10.1,0c-3.4,0-6.8,0-10.2,0c-2.8,0-5.7,0-8.5,0c-1.7,0-3.4,0-5.1,0
						c-0.9,0-1.8,0-2.7,0.2c-0.7,0.2-1.4,0.5-1.9,1C5.3,12.2,5,13,4.9,13.9c-0.2,1.2-0.1,2.5-0.1,3.7c0,1.7,0,3.3,0,5
						c0,4.1,0,8.3,0,12.4c0,1.8,0,3.6,0,5.4c0,0.8-0.1,1.7,0.1,2.5c0.3,0.8,1,1.4,1.9,1.6c0.3,0,0.7,0,1,0c0.7,0,1.4,0,2.1,0
						c2.5,0,4.9,0,7.4,0c3.4,0,6.7,0,10.1,0c3.7,0,7.5,0,11.2,0c3.6,0,7.1,0,10.7,0c2.8,0,5.7,0,8.5,0
						C58.7,44.4,59.7,44.4,60.7,44.4C60.7,44.4,60.7,44.4,60.7,44.4z"/>
				</g>
			</g>
			<g class="st14">
				<path class="st12" d="M58,10.3c-3.1,0-45.6,0-48,0c-3,0-5.1,1-5.1,4.9c0,3.2,0,20.2,0,26.7c0,1.6,1.3,2.4,2.2,2.4
					c0.8,0,43.2,0,53.6,0c1.5,0,2.3-0.8,2.3-2.2c0-6.3,0-24.3,0-27.1C63,11.8,61.1,10.3,58,10.3z M5.6,15.3c0-1.8,0.7-4.5,7.3-4.5
					c4.1,0,16.9,0,22.6,0c5.7,0,18.8,0,21.4,0c2.5,0,3.3,1.5-1,1.6c-4.4,0-4.5,0-4.5,1.4c0,1.4-0.4,1.3-2.3,0.3
					c-1.9-0.9-7.2-3-11.9-0.9c-4.6,2-5.3,3.2-5.3,1.4c0-1.9,0.6-2.2-0.9-2.2c-1.5,0-2.9,0-3.5,0c-0.6,0-0.5,1.3-0.5,2.6
					c0,1.3-0.3,2.6-2.6,2.6s-13.7,0-16.4,0C5.3,17.6,5.6,17.1,5.6,15.3z M54.6,43.3c-7.1,0-37.9,0-43,0c-5,0-6.5-5.4-4.5-5.4
					c2.8,0,22.5,0,24.8,0c2.3,0,3,3.7,11.6,3.7s8.4-3.7,10.7-3.7c2.4,0,4.1,0,5.8,0C61.7,37.9,61.7,43.3,54.6,43.3z"/>
			</g>
			<g>
				<path class="st15" d="M17.4,10.3c-4.1,0-6.9,0-7.5,0c-0.6,0-1.1,0-1.6,0.1c0,0,0-0.9,0-1.9c0-1,0.1-1.8,1.8-1.8s4.6,0,5.8,0
					c1.2,0,1.5,0.7,1.5,1.5C17.4,9,17.4,10.3,17.4,10.3z"/>
				<g>
					<path class="st16" d="M17.4,10.3c-2,0-4,0-5.9,0c-0.5,0-0.9,0-1.4,0c-0.4,0-0.8,0-1.2,0c-0.1,0-0.2,0-0.4,0c0,0-0.2,0-0.2,0
						c0,0,0,0,0,0c0,0,0-0.1,0-0.2c0-0.1,0-0.2,0-0.3c0-0.5,0-1,0-1.6c0-0.3,0-0.6,0.1-0.9c0.3-0.8,1.3-0.7,2-0.7c1.7,0,3.5,0,5.2,0
						c0.4,0,0.9,0,1.2,0.3c0.3,0.2,0.4,0.5,0.5,0.8c0.1,0.4,0,0.8,0,1.1c0,0.4,0,0.8,0,1.1C17.4,10.2,17.4,10.3,17.4,10.3
						C17.4,10.3,17.5,10.3,17.4,10.3c0-0.4,0-0.8,0-1.1c0-0.3,0-0.6,0-0.8c0-0.2,0-0.4-0.1-0.7c-0.1-0.4-0.4-0.7-0.9-0.9
						c-0.5-0.1-1-0.1-1.4-0.1c-1.2,0-2.4,0-3.7,0c-0.3,0-0.6,0-0.9,0c-0.3,0-0.6,0-0.9,0C9.3,6.8,8.9,7,8.6,7.3
						C8.4,7.6,8.4,8,8.4,8.4c0,0.6,0,1.3,0,1.9c0,0,0,0.1,0,0.1c0,0,0,0,0,0c0.9-0.1,1.8-0.1,2.7-0.1c1.2,0,2.4,0,3.6,0
						C15.6,10.3,16.5,10.3,17.4,10.3C17.5,10.3,17.5,10.3,17.4,10.3z"/>
				</g>
			</g>
			<g>
				<path class="st15" d="M4.8,18.8c0,4.7,0,12.6,0,18.4H63c0-5.8,0-13.6,0-18.4C63,18.8,4.8,18.8,4.8,18.8z"/>
				<g>
					<path class="st17" d="M4.8,18.8c0,4.8,0,9.5,0,14.3c0,1.4,0,2.7,0,4.1c0,0,0,0,0,0c0.5,0,1,0,1.6,0c1.4,0,2.8,0,4.2,0
						c2.1,0,4.2,0,6.3,0c2.5,0,5.1,0,7.6,0c2.8,0,5.6,0,8.4,0c2.8,0,5.6,0,8.4,0c2.6,0,5.3,0,7.9,0c2.2,0,4.4,0,6.6,0
						c1.6,0,3.2,0,4.8,0c0.5,0,1,0,1.5,0c0.2,0,0.5,0,0.8,0c0,0,0.1,0,0.1,0c0,0,0,0,0,0c0-4.9,0-9.9,0-14.8c0-1.2,0-2.4,0-3.6
						c0,0,0,0,0,0c-0.5,0-1,0-1.6,0c-1.4,0-2.8,0-4.2,0c-2.1,0-4.2,0-6.3,0c-2.5,0-5.1,0-7.6,0c-2.8,0-5.6,0-8.4,0
						c-2.8,0-5.6,0-8.4,0c-2.6,0-5.3,0-7.9,0c-2.2,0-4.4,0-6.6,0c-1.6,0-3.2,0-4.8,0c-0.8,0-1.5,0-2.3,0C4.9,18.8,4.8,18.8,4.8,18.8
						C4.8,18.8,4.8,18.8,4.8,18.8c0.7,0,1.3,0,2,0c1.8,0,3.6,0,5.3,0c2.6,0,5.1,0,7.7,0c3,0,6.1,0,9.1,0c3.2,0,6.4,0,9.6,0
						c3,0,6.1,0,9.1,0c2.6,0,5.2,0,7.8,0c1.8,0,3.6,0,5.4,0c0.5,0,1,0,1.5,0c0.1,0,0.3,0,0.4,0c0,0,0.1,0,0.2,0c0,0,0,0.4,0,0.4
						c0,0.3,0,0.6,0,0.8c0,0.5,0,1.1,0,1.6c0,1.3,0,2.5,0,3.8c0,2.7,0,5.3,0,8c0,0.7,0,1.3,0,1.9c0,0.3,0,0.6,0,0.9
						c0,0.1,0,0.3,0,0.4c0,0.1,0,0.4,0,0.4c0,0-0.1,0-0.1,0c-0.3,0-0.7,0-1,0c-1.5,0-3.1,0-4.6,0c-2.4,0-4.8,0-7.2,0
						c-3,0-5.9,0-8.9,0c-3.2,0-6.4,0-9.6,0c-3.1,0-6.2,0-9.3,0c-2.7,0-5.4,0-8.2,0c-2,0-4,0-6.1,0c-1,0-2,0-3,0c0,0-0.1,0-0.2,0
						c-0.1,0,0-0.5,0-0.6c0-0.3,0-0.7,0-1c0-0.7,0-1.3,0-2c0-2.7,0-5.4,0-8C4.8,23.3,4.8,21.1,4.8,18.8C4.8,18.8,4.8,18.8,4.8,18.8z
						"/>
				</g>
			</g>
			<g class="st14">
				<path class="st15" d="M4.8,18.8c0,4.7,0,12.6,0,18.4H63c0-5.8,0-13.6,0-18.4C63,18.8,4.8,18.8,4.8,18.8z M24.3,35.4
					c-6.5,0-9.4,0-13.5,0c-4.1,0-5.1-1.4-5.1-5.1c0-4.2,0-5.6,0-7.3c0-1.7,0.8-3.1,2.6-3.1c5.2,0,15,0,17.9,0c2.9,0,3,0,1.7,2.8
					c-1.3,2.8-0.6,7.7,1.1,10.1C30.6,35.1,30.8,35.4,24.3,35.4z M58.5,35.7c-4,0-3.2-0.2-1.6-3.1c2.1-3.6,1-9.4-0.4-11.4
					c-1.1-1.4-0.7-1.8,0.2-1.8c0.9,0,2.3,0,4,0c1.6,0,1.6,0,1.6,2.8c0,2.8,0,7.2,0,10.4C62.3,35.9,62.5,35.7,58.5,35.7z"/>
			</g>
			<g>
				<path d="M59.8,18.8C53.7,25,47.6,31.1,41.5,37.2c0,0,0.1,0,0.1,0C47.7,31.1,53.9,25,60,18.9C60,18.8,59.9,18.8,59.8,18.8
					L59.8,18.8z"/>
				<path d="M62.2,18.8C56.1,25,50,31.1,43.9,37.2c0,0,0.1,0,0.2,0c6.1-6.1,12.2-12.2,18.3-18.3C62.4,18.8,62.3,18.8,62.2,18.8
					L62.2,18.8z"/>
				<path d="M62.8,20.7c-5.5,5.5-11,11-16.4,16.4c0,0,0.1,0,0.1,0c5.5-5.5,11-11,16.4-16.4C62.9,20.7,62.8,20.7,62.8,20.7L62.8,20.7
					z"/>
				<path d="M52.6,18.8C46.5,24.9,40.4,31,34.3,37.2c0,0,0.1,0.1,0.1,0c6.1-6.1,12.2-12.2,18.3-18.3C52.8,18.8,52.6,18.8,52.6,18.8
					L52.6,18.8z"/>
				<path d="M55,18.8C48.9,24.9,42.8,31,36.7,37.2c0,0,0.1,0.1,0.2,0C42.9,31.1,49,25,55.1,18.9C55.2,18.8,55,18.8,55,18.8L55,18.8z
					"/>
				<path d="M57.4,18.8c-6.1,6.1-12.2,12.2-18.3,18.3c0,0,0.1,0.1,0.1,0c6.1-6.1,12.2-12.2,18.3-18.3C57.6,18.8,57.4,18.8,57.4,18.8
					L57.4,18.8z"/>
				<path d="M62.7,28c-3.1,3.1-6.1,6.1-9.2,9.2c0,0,0.1,0.1,0.2,0c3.1-3.1,6.1-6.1,9.2-9.2C62.9,28,62.8,28,62.7,28L62.7,28z"/>
				<path d="M62.8,30.3c-2.3,2.3-4.6,4.6-6.8,6.8c0,0,0.1,0.1,0.1,0c2.3-2.3,4.6-4.6,6.8-6.8C63,30.3,62.8,30.3,62.8,30.3L62.8,30.3
					z"/>
				<path d="M62.8,23.1c-4.7,4.7-9.4,9.4-14.1,14.1c0,0,0.1,0.1,0.1,0c4.7-4.7,9.4-9.4,14.1-14.1C63,23.1,62.8,23,62.8,23.1
					L62.8,23.1z"/>
				<path d="M62.8,25.5c-3.9,3.9-7.8,7.8-11.6,11.6c0,0,0.1,0.1,0.1,0c3.9-3.9,7.8-7.8,11.6-11.6C63,25.5,62.8,25.5,62.8,25.5
					L62.8,25.5z"/>
				<path d="M62.8,32.8c-1.5,1.5-2.9,2.9-4.4,4.4c0,0,0.1,0.1,0.2,0c1.5-1.5,2.9-2.9,4.4-4.4C62.9,32.8,62.8,32.7,62.8,32.8
					L62.8,32.8z"/>
				<path d="M62.8,35.2c-0.7,0.7-1.3,1.3-2,2c0,0,0.1,0,0.2,0c0.7-0.7,1.3-1.3,2-2C63,35.2,62.8,35.1,62.8,35.2L62.8,35.2z"/>
				<path d="M45.3,18.8C39.2,24.9,33.1,31,27,37.1c0,0,0.1,0.1,0.1,0.1c6.1-6.1,12.2-12.2,18.3-18.3C45.5,18.9,45.4,18.8,45.3,18.8
					L45.3,18.8z"/>
				<path d="M47.7,18.8C41.6,24.9,35.5,31,29.4,37.2c0,0,0.1,0.1,0.2,0c6.1-6.1,12.2-12.2,18.3-18.3C47.9,18.8,47.8,18.8,47.7,18.8
					L47.7,18.8z"/>
				<path d="M50.2,18.8C44.1,24.9,38,31,31.8,37.2c0,0,0.1,0.1,0.1,0.1c6.1-6.1,12.2-12.2,18.3-18.3C50.3,18.9,50.2,18.8,50.2,18.8
					L50.2,18.8z"/>
				<path d="M38.1,18.8C32,24.9,25.9,31,19.8,37.1c0,0,0.1,0.1,0.1,0.1C26,31.1,32.1,25,38.2,18.9C38.3,18.9,38.1,18.8,38.1,18.8
					L38.1,18.8z"/>
				<path d="M40.5,18.8c-6.1,6.1-12.2,12.2-18.3,18.3c0,0,0.1,0.1,0.2,0c6.1-6.1,12.2-12.2,18.3-18.3C40.7,18.8,40.6,18.8,40.5,18.8
					L40.5,18.8z"/>
				<path d="M42.9,18.8C36.8,25,30.7,31.1,24.6,37.2c0,0,0.1,0,0.1,0C30.9,31.1,37,25,43.1,18.9C43.1,18.8,43,18.8,42.9,18.8
					L42.9,18.8z"/>
				<path d="M30.9,18.8C24.8,24.9,18.7,31,12.5,37.2c0,0,0.1,0.1,0.1,0C18.8,31.1,24.9,25,31,18.9C31,18.8,30.9,18.8,30.9,18.8
					L30.9,18.8z"/>
				<path d="M33.3,18.8C27.2,24.9,21.1,31,15,37.2c0,0,0.1,0.1,0.1,0c6.1-6.1,12.2-12.2,18.3-18.3C33.5,18.8,33.3,18.8,33.3,18.8
					L33.3,18.8z"/>
				<path d="M35.7,18.8C29.6,24.9,23.5,31,17.4,37.2c0,0,0.1,0.1,0.1,0c6.1-6.1,12.2-12.2,18.3-18.3C35.9,18.8,35.7,18.8,35.7,18.8
					L35.7,18.8z"/>
				<path d="M23.6,18.8C17.5,24.9,11.4,31,5.3,37.2c0,0,0.1,0.1,0.1,0.1c6.1-6.1,12.2-12.2,18.3-18.3C23.8,18.9,23.7,18.8,23.6,18.8
					L23.6,18.8z"/>
				<path d="M26,18.8c-6.1,6.1-12.2,12.2-18.3,18.3c0,0,0.1,0.1,0.1,0C14,31.1,20.1,25,26.2,18.9C26.2,18.8,26.1,18.8,26,18.8
					L26,18.8z"/>
				<path d="M28.4,18.8c-6.1,6.1-12.2,12.2-18.3,18.3c0,0,0.1,0.1,0.2,0c6.1-6.1,12.2-12.2,18.3-18.3C28.6,18.8,28.5,18.8,28.4,18.8
					L28.4,18.8z"/>
				<path d="M16.4,18.8c-3.8,3.8-7.6,7.6-11.3,11.3c0,0,0.1,0.1,0.1,0c3.8-3.8,7.6-7.6,11.3-11.3C16.6,18.8,16.4,18.8,16.4,18.8
					L16.4,18.8z"/>
				<path d="M18.8,18.8C14.2,23.4,9.6,28,5,32.6c0,0,0.1,0.1,0.1,0c4.6-4.6,9.2-9.2,13.8-13.8C19,18.8,18.8,18.8,18.8,18.8
					L18.8,18.8z"/>
				<path d="M21.2,18.8C15.8,24.2,10.4,29.7,5,35.1c0,0,0.1,0.1,0.2,0c5.4-5.4,10.8-10.8,16.2-16.2C21.4,18.8,21.2,18.8,21.2,18.8
					L21.2,18.8z"/>
				<path d="M11.6,18.8C9.4,21,7.2,23.2,5,25.4c0,0,0.1,0.1,0.2,0c2.2-2.2,4.4-4.4,6.5-6.5C11.7,18.8,11.6,18.8,11.6,18.8L11.6,18.8
					z"/>
				<path d="M14,18.8c-3,3-6,6-9,9c0,0,0.1,0.1,0.1,0c3-3,6-6,9-9C14.2,18.8,14,18.8,14,18.8L14,18.8z"/>
				<path d="M6.7,18.8C6.1,19.4,5.6,20,5,20.6c0,0,0.1,0,0.1,0c0.6-0.6,1.2-1.2,1.8-1.8C6.9,18.8,6.8,18.8,6.7,18.8L6.7,18.8z"/>
				<path d="M9.2,18.8C7.8,20.2,6.4,21.6,5,23c0,0,0.1,0.1,0.2,0c1.4-1.4,2.7-2.7,4.1-4.1C9.3,18.8,9.2,18.8,9.2,18.8L9.2,18.8z"/>
			</g>
			<g>
				<path d="M7.7,18.9C13.8,25,19.9,31.1,26,37.2c0,0,0.2,0,0.1,0C20.1,31.1,14,24.9,7.9,18.8C7.8,18.8,7.7,18.8,7.7,18.9L7.7,18.9z
					"/>
				<path d="M5.3,18.9c6.1,6.1,12.2,12.2,18.3,18.3c0,0,0.2,0,0.2,0C17.7,31.1,11.6,25,5.5,18.8C5.4,18.8,5.3,18.8,5.3,18.9
					L5.3,18.9z"/>
				<path d="M5,20.9c5.4,5.4,10.8,10.8,16.2,16.2c0,0,0.2,0.1,0.1,0c-5.4-5.4-10.8-10.8-16.2-16.2C5.1,20.9,4.9,20.9,5,20.9L5,20.9z
					"/>
				<path d="M15,18.9c6.1,6.1,12.2,12.2,18.3,18.3c0,0,0.2,0,0.1,0C27.3,31.1,21.2,25,15.1,18.9C15.1,18.8,14.9,18.8,15,18.9
					L15,18.9z"/>
				<path d="M12.5,18.9c6.1,6.1,12.2,12.2,18.3,18.3c0,0,0.2,0,0.1,0C24.9,31.1,18.8,25,12.7,18.8C12.7,18.8,12.5,18.8,12.5,18.9
					L12.5,18.9z"/>
				<path d="M10.1,18.9c6.1,6.1,12.2,12.2,18.3,18.3c0,0,0.2,0,0.2,0c-6.1-6.1-12.2-12.2-18.3-18.3C10.2,18.8,10.1,18.8,10.1,18.9
					L10.1,18.9z"/>
				<path d="M5,28.2c3,3,6,6,9,9c0,0,0.2,0,0.2,0c-3-3-6-6-9-9C5.1,28.1,4.9,28.2,5,28.2L5,28.2z"/>
				<path d="M5,30.7c2.2,2.2,4.4,4.4,6.5,6.5c0,0,0.2,0,0.1,0c-2.2-2.2-4.4-4.4-6.5-6.5C5.1,30.6,5,30.6,5,30.7L5,30.7z"/>
				<path d="M5,23.4c4.6,4.6,9.2,9.2,13.8,13.8c0,0,0.2,0,0.2,0C14.3,32.6,9.8,28,5.2,23.4C5.1,23.3,5,23.4,5,23.4L5,23.4z"/>
				<path d="M5.1,25.9c3.8,3.8,7.6,7.6,11.3,11.3c0,0,0.2,0,0.2,0C12.8,33.4,9,29.6,5.2,25.8C5.2,25.8,5,25.8,5.1,25.9L5.1,25.9z"/>
				<path d="M5,33.1c1.4,1.4,2.7,2.7,4.1,4.1c0,0,0.2,0,0.1,0c-1.4-1.4-2.7-2.7-4.1-4.1C5.1,33,5,33,5,33.1L5,33.1z"/>
				<path d="M4.9,35.4c0.6,0.6,1.2,1.2,1.8,1.8c0,0,0.2,0,0.2,0c-0.6-0.6-1.2-1.2-1.8-1.8C5.1,35.3,4.9,35.4,4.9,35.4L4.9,35.4z"/>
				<path d="M22.2,18.9c6.1,6.1,12.2,12.2,18.3,18.3c0,0,0.2,0,0.1,0C34.5,31.1,28.4,25,22.3,18.9C22.3,18.8,22.2,18.8,22.2,18.9
					L22.2,18.9z"/>
				<path d="M19.8,18.9C25.9,25,32,31.1,38.1,37.2c0,0,0.2,0,0.1,0C32.1,31.1,26,25,19.9,18.8C19.9,18.8,19.7,18.8,19.8,18.9
					L19.8,18.9z"/>
				<path d="M17.4,18.9c6.1,6.1,12.2,12.2,18.3,18.3c0,0,0.2,0,0.1,0C29.7,31.1,23.6,25,17.5,18.9C17.5,18.8,17.3,18.8,17.4,18.9
					L17.4,18.9z"/>
				<path d="M29.4,18.9c6.1,6.1,12.2,12.2,18.3,18.3c0,0,0.2,0,0.1,0C41.8,31.1,35.7,25,29.6,18.9C29.5,18.8,29.4,18.8,29.4,18.9
					L29.4,18.9z"/>
				<path d="M27,18.9c6.1,6.1,12.2,12.2,18.3,18.3c0,0,0.2,0,0.1,0c-6.1-6.1-12.2-12.2-18.3-18.3C27.1,18.8,27,18.8,27,18.9L27,18.9
					z"/>
				<path d="M24.6,18.9c6.1,6.1,12.2,12.2,18.3,18.3c0,0,0.2,0,0.1,0C37,31,30.9,24.9,24.7,18.8C24.7,18.8,24.6,18.8,24.6,18.9
					L24.6,18.9z"/>
				<path d="M36.7,18.9C42.8,25,48.9,31.1,55,37.2c0,0,0.2,0,0.1,0C49,31.1,42.9,25,36.8,18.9C36.8,18.8,36.6,18.8,36.7,18.9
					L36.7,18.9z"/>
				<path d="M34.3,18.9c6.1,6.1,12.2,12.2,18.3,18.3c0,0,0.2,0,0.1,0C46.6,31.1,40.5,25,34.4,18.8C34.4,18.8,34.2,18.8,34.3,18.9
					L34.3,18.9z"/>
				<path d="M31.9,18.9C38,25,44.1,31.1,50.2,37.2c0,0,0.2,0,0.1,0C44.2,31.1,38.1,25,32,18.9C32,18.8,31.8,18.8,31.9,18.9
					L31.9,18.9z"/>
				<path d="M43.9,18.9C50,25,56.1,31.1,62.2,37.2c0,0,0.2,0,0.1,0C56.3,31.1,50.2,25,44.1,18.9C44,18.8,43.9,18.8,43.9,18.9
					L43.9,18.9z"/>
				<path d="M41.5,18.9c6.1,6.1,12.2,12.2,18.3,18.3c0,0,0.2,0,0.2,0c-6.1-6.1-12.2-12.2-18.3-18.3C41.6,18.8,41.5,18.8,41.5,18.9
					L41.5,18.9z"/>
				<path d="M39.1,18.9c6.1,6.1,12.2,12.2,18.3,18.3c0,0,0.2,0,0.1,0C51.4,31.1,45.3,25,39.2,18.8C39.2,18.8,39.1,18.8,39.1,18.9
					L39.1,18.9z"/>
				<path d="M51.2,18.9c3.9,3.9,7.8,7.8,11.6,11.6c0,0,0.2,0,0.1,0c-3.9-3.9-7.8-7.8-11.6-11.6C51.3,18.8,51.1,18.8,51.2,18.9
					L51.2,18.9z"/>
				<path d="M48.7,18.9c4.7,4.7,9.4,9.4,14.1,14.1c0,0,0.2,0,0.1,0c-4.7-4.7-9.4-9.4-14.1-14.1C48.9,18.8,48.7,18.8,48.7,18.9
					L48.7,18.9z"/>
				<path d="M46.3,18.9c5.5,5.5,11,11,16.4,16.4c0,0,0.2,0,0.1,0c-5.5-5.5-11-11-16.4-16.4C46.4,18.8,46.3,18.8,46.3,18.9L46.3,18.9
					z"/>
				<path d="M56,18.9c2.3,2.3,4.6,4.6,6.8,6.8c0,0,0.2,0,0.1,0c-2.3-2.3-4.6-4.6-6.8-6.8C56.1,18.8,55.9,18.8,56,18.9L56,18.9z"/>
				<path d="M53.6,18.9c3.1,3.1,6.1,6.1,9.2,9.2c0,0,0.2,0,0.1,0c-3.1-3.1-6.1-6.1-9.2-9.2C53.7,18.8,53.5,18.8,53.6,18.9L53.6,18.9
					z"/>
				<path d="M60.8,18.9c0.7,0.7,1.3,1.3,2,2c0,0,0.2,0,0.1,0c-0.7-0.7-1.3-1.3-2-2C60.9,18.8,60.8,18.8,60.8,18.9L60.8,18.9z"/>
				<path d="M58.4,18.9c1.5,1.5,2.9,2.9,4.4,4.4c0,0,0.2,0,0.1,0c-1.5-1.5-2.9-2.9-4.4-4.4C58.5,18.8,58.4,18.8,58.4,18.9L58.4,18.9
					z"/>
			</g>
			<g>
				<path class="st15" d="M19.5,10.3h3.3c0,0,0.3-2.1-1.7-2.1C19.2,8.2,19.5,10.3,19.5,10.3z"/>
				<g>
					<path class="st16" d="M19.5,10.3c1,0,1.9,0,2.9,0c0.1,0,0.3,0,0.4,0c0,0,0,0,0,0c0.1-0.7-0.1-1.5-0.7-1.8
						c-0.5-0.3-1.2-0.3-1.7-0.1c-0.5,0.2-0.7,0.6-0.8,1.1C19.5,9.7,19.4,10,19.5,10.3C19.5,10.3,19.5,10.3,19.5,10.3
						c-0.1-0.5,0-1,0.2-1.4c0.2-0.4,0.6-0.6,1-0.7c0.5-0.1,1.1,0,1.5,0.3c0.5,0.4,0.6,1.1,0.6,1.6c0,0,0,0.1,0,0.1c0,0-0.2,0-0.2,0
						c-0.3,0-0.7,0-1,0c-0.4,0-0.8,0-1.2,0C20,10.3,19.8,10.3,19.5,10.3C19.5,10.3,19.5,10.3,19.5,10.3
						C19.5,10.3,19.5,10.3,19.5,10.3z"/>
				</g>
			</g>
			<g class="st14">
				<rect x="27.3" y="12.3" class="st12" width="4.5" height="4.5"/>
			</g>
			<g>
				<rect x="27.8" y="12.8" class="st15" width="3.5" height="3.5"/>
				<g>
					<path class="st16" d="M31.2,16.3c-1,0-2,0-3,0c-0.1,0-0.2,0-0.3,0c0,0-0.1,0-0.1,0c0,0,0,0,0-0.1c0-0.1,0-0.1,0-0.2
						c0-0.6,0-1.2,0-1.8c0-0.3,0-0.6,0-0.9c0-0.1,0-0.2,0-0.3c0-0.1,0-0.1,0-0.2c0,0,0,0,0,0c0.1,0,0.1,0,0.2,0c0.2,0,0.5,0,0.7,0
						c0.6,0,1.3,0,1.9,0c0.2,0,0.4,0,0.6,0c0,0,0,0,0,0c0,0,0,0,0,0c0,0,0,0.1,0,0.1C31.2,14.1,31.2,15.1,31.2,16.3
						C31.2,16.3,31.2,16.3,31.2,16.3C31.2,16.3,31.3,16.3,31.2,16.3c0-1,0-2,0-3.1c0-0.1,0-0.3,0-0.4c0,0,0,0,0,0c-1,0-2,0-3.1,0
						c-0.1,0-0.3,0-0.4,0c0,0,0,0,0,0c0,1,0,2,0,3.1c0,0.1,0,0.3,0,0.4c0,0,0,0,0,0c1,0,2,0,3.1,0C31,16.3,31.1,16.3,31.2,16.3
						C31.3,16.3,31.2,16.3,31.2,16.3z"/>
				</g>
			</g>
			<g class="st18">
				<rect x="27.8" y="12.8" class="st19" width="2.9" height="2.9"/>
			</g>
			<g class="st18">
				<rect x="27.8" y="12.8" class="st19" width="2.4" height="2.4"/>
			</g>
			<g class="st20">
				<rect x="52.5" y="13" class="st12" width="8" height="3.7"/>
			</g>
			<g>
				<g>
					<rect x="52.5" y="12.8" class="st21" width="7.6" height="3.5"/>
					<g>
						<path class="st16" d="M60,16.3c-0.5,0-1,0-1.5,0c-1,0-2.1,0-3.1,0c-0.9,0-1.7,0-2.6,0c-0.1,0-0.2,0-0.3,0c0,0-0.1,0-0.1,0
							c0,0,0-0.2,0-0.2c0-0.2,0-0.4,0-0.6c0-0.9,0-1.8,0-2.7c0-0.1,0-0.1,0-0.1c0.1,0,0.1,0,0.2,0c0.3,0,0.6,0,0.9,0c1,0,2,0,3,0
							c0.9,0,1.8,0,2.7,0c0.1,0,0.3,0,0.4,0c0.1,0,0.2,0,0.2,0c0,0,0,0,0,0.1c0,0.1,0,0.3,0,0.4c0,0.9,0,1.9,0,2.8
							C60,16.2,60,16.2,60,16.3C60,16.3,60,16.3,60,16.3c0-1,0-2,0-3.1c0-0.1,0-0.3,0-0.4c0,0,0,0,0,0c-0.9,0-1.7,0-2.6,0
							c-1.4,0-2.7,0-4.1,0c-0.3,0-0.6,0-0.9,0c0,0,0,0,0,0c0,1,0,2,0,3.1c0,0.1,0,0.3,0,0.4c0,0,0,0,0,0c0.9,0,1.7,0,2.6,0
							c1.4,0,2.7,0,4.1,0C59.4,16.3,59.7,16.3,60,16.3C60,16.3,60,16.3,60,16.3z"/>
					</g>
				</g>
				<g>
					<path class="st22" d="M52.5,12.8v3.5H60v-3.5H52.5z M59.2,15.2c0,0.2,0,0.4-0.1,0.5c-0.2,0.3-0.7,0.3-1,0.3c-0.7,0-1.3,0-2,0
						c-0.7,0.1-1.4,0.1-2.1,0.1c-0.3,0-0.6,0-0.8-0.2c-0.3-0.3-0.2-0.7-0.2-1c0-0.4-0.1-1.4,0.4-1.6c0.2-0.1,0.5,0,0.7,0.1
						c0.6,0,1.3,0,1.9,0c0.6,0,1.2,0,1.9,0c0.3,0,0.9-0.1,1.1,0.2c0.2,0.3,0.1,0.6,0,0.9C59.1,14.6,59.2,14.9,59.2,15.2z"/>
				</g>
				<path class="st0" d="M53.5,13.7c0.2-0.2,0.6-0.1,0.9-0.1c0.3,0,0.5,0,0.8,0c0.4,0,0.9,0,1.4,0c0.3,0,1.1-0.1,1.3,0.1
					c-0.1,0.1-0.4,0.1-0.5,0.1c-0.5,0.1-0.9,0.1-1.4,0.1c-0.4,0-0.7,0.1-1,0.2c-0.2,0.1-0.6,0-0.8,0.2c-0.2,0.3-0.2,0.8-0.3,1.1
					c0,0.1-0.1,0.2-0.2,0.2c-0.1,0-0.2-0.1-0.2-0.1c-0.1-0.1-0.1-0.2-0.1-0.3c0-0.1,0-0.3,0-0.4c0-0.1,0-0.2,0-0.4
					C53.3,14.2,53.3,13.8,53.5,13.7z"/>
			</g>
		</g>
		<g>
			<g>
				<path class="st12" d="M31.1,27.9C31.1,20.7,36.9,15,44,15c7.1,0,12.9,5.8,12.9,12.9c0,7.1-5.8,12.9-12.9,12.9
					C36.9,40.8,31.1,35,31.1,27.9z"/>
			</g>
			<g>
				<path class="st12" d="M29.6,26.8c0-7.2,5.8-13,13-13c7.2,0,13,5.8,13,13c0,7.2-5.8,13-13,13C35.4,39.8,29.6,34,29.6,26.8z"/>
			</g>
			<g>
				<path class="st19" d="M28.9,26.2c0-7.2,5.8-13,13-13c7.2,0,13,5.8,13,13c0,7.2-5.8,13-13,13C34.8,39.2,28.9,33.4,28.9,26.2z"/>
				<g>
					<path class="st23" d="M28.9,26.2c0-1.3,0.2-2.7,0.6-4c0.4-1.2,1-2.4,1.7-3.5c0.7-1.1,1.6-2,2.7-2.8c1-0.8,2.2-1.5,3.4-1.9
						c1.3-0.5,2.6-0.7,4-0.8c1.4-0.1,2.8,0.1,4.1,0.5c1.3,0.4,2.5,0.9,3.6,1.7c1.1,0.7,2,1.6,2.9,2.6c0.8,1,1.5,2.1,2,3.3
						c0.5,1.2,0.8,2.6,0.9,3.9c0.1,1.4,0,2.7-0.3,4.1c-0.3,1.3-0.8,2.5-1.5,3.6c-0.7,1.1-1.5,2.1-2.5,3c-1,0.9-2.1,1.6-3.2,2.1
						c-1.2,0.6-2.5,0.9-3.9,1.1c-1.4,0.2-2.8,0.1-4.2-0.2c-1.3-0.3-2.6-0.7-3.7-1.4c-1.1-0.6-2.2-1.4-3.1-2.4
						c-0.9-0.9-1.7-2-2.2-3.2c-0.6-1.2-1-2.5-1.2-3.8C29,27.5,28.9,26.8,28.9,26.2C28.9,26.2,28.9,26.2,28.9,26.2
						c0,1.4,0.2,2.7,0.6,4c0.4,1.3,1,2.5,1.8,3.5c0.8,1.1,1.7,2,2.7,2.8c1,0.8,2.2,1.4,3.4,1.9c1.3,0.5,2.6,0.7,3.9,0.8
						c1.4,0.1,2.7-0.1,4-0.5c1.3-0.4,2.5-0.9,3.6-1.6c1.1-0.7,2.1-1.6,2.9-2.6c0.8-1,1.5-2.1,2-3.3c0.5-1.3,0.8-2.6,0.9-3.9
						c0.1-1.4,0-2.8-0.3-4.1c-0.3-1.3-0.8-2.5-1.5-3.7c-0.7-1.1-1.5-2.1-2.5-3c-1-0.9-2.1-1.6-3.3-2.1c-1.2-0.5-2.5-0.9-3.8-1
						c-1.4-0.2-2.7-0.1-4.1,0.2c-1.3,0.3-2.6,0.7-3.7,1.4c-1.1,0.6-2.2,1.4-3.1,2.4c-0.9,0.9-1.7,2-2.3,3.2c-0.6,1.2-1,2.5-1.2,3.8
						C29,24.8,28.9,25.5,28.9,26.2C28.9,26.2,28.9,26.2,28.9,26.2z"/>
				</g>
			</g>
			<g class="st18">
				<path class="st19" d="M30,26.7c0-6.9,5.6-12.5,12.5-12.5c6.8,0,12.3,5.4,12.4,12.2c0-0.1,0-0.2,0-0.3c0-7.2-5.8-13-13-13
					c-7.2,0-13,5.8-13,13c0,7.2,5.8,13,13,13c0.1,0,0.2,0,0.3,0C35.4,39,30,33.5,30,26.7z"/>
			</g>
			<g class="st18">
				<path class="st19" d="M53.9,25.6c0,6.9-5.6,12.5-12.5,12.5c-6.8,0-12.3-5.4-12.4-12.2c0,0.1,0,0.2,0,0.3c0,7.2,5.8,13,13,13
					c7.2,0,13-5.8,13-13c0-7.2-5.8-13-13-13c-0.1,0-0.2,0-0.3,0C48.4,13.3,53.9,18.9,53.9,25.6z"/>
			</g>
			<g>
				<path class="st15" d="M31,26.2c0-6,4.9-10.9,10.9-10.9c6,0,10.9,4.9,10.9,10.9c0,6-4.9,10.9-10.9,10.9
					C35.9,37.1,31,32.2,31,26.2z"/>
				<g>
					<path class="st24" d="M31,26.2c0-2.3,0.7-4.5,2-6.3c1.3-1.8,3.1-3.2,5.1-3.9c2.2-0.8,4.6-0.9,6.8-0.2c2.1,0.6,4,1.9,5.4,3.6
						c1.4,1.7,2.3,3.9,2.4,6.1c0.2,2.3-0.4,4.5-1.5,6.5c-1.1,1.9-2.8,3.4-4.8,4.3c-2.1,1-4.5,1.2-6.8,0.8c-2.2-0.4-4.2-1.6-5.7-3.2
						c-1.5-1.6-2.5-3.7-2.9-5.9C31,27.3,31,26.7,31,26.2C31,26.2,31,26.2,31,26.2c0,2.3,0.7,4.5,2,6.4c1.3,1.8,3.1,3.2,5.2,3.9
						c2.1,0.8,4.5,0.9,6.7,0.3c2.1-0.6,4-1.8,5.5-3.5c1.4-1.7,2.3-3.9,2.5-6.2c0.2-2.3-0.4-4.6-1.6-6.6c-1.2-1.9-2.9-3.4-4.9-4.3
						c-2.1-0.9-4.4-1.2-6.6-0.7c-2.2,0.4-4.2,1.5-5.7,3.1c-1.6,1.6-2.6,3.7-2.9,5.9C31,25,31,25.6,31,26.2C31,26.2,31,26.2,31,26.2z
						"/>
				</g>
			</g>
			<g class="st20">
				<path class="st15" d="M31.4,26.4c0-5.9,4.8-10.7,10.7-10.7c5.9,0,10.7,4.7,10.7,10.6c0,0,0-0.1,0-0.1c0-6-4.9-10.9-10.9-10.9
					c-6,0-10.9,4.9-10.9,10.9c0,6,4.9,10.9,10.9,10.9c0,0,0.1,0,0.1,0C36.2,37.1,31.4,32.3,31.4,26.4z"/>
			</g>
			<g class="st20">
				<path class="st15" d="M52.4,26c0,5.9-4.8,10.7-10.7,10.7c-5.9,0-10.7-4.7-10.7-10.6c0,0,0,0.1,0,0.1c0,6,4.9,10.9,10.9,10.9
					c6,0,10.9-4.9,10.9-10.9c0-6-4.9-10.9-10.9-10.9c0,0-0.1,0-0.1,0C47.7,15.3,52.4,20.1,52.4,26z"/>
			</g>
			<g>
				<path class="st19" d="M52,26.2c0,5.6-4.5,10.1-10.1,10.1c-5.6,0-10.1-4.5-10.1-10.1c0-5.6,4.5-10.1,10.1-10.1
					C47.5,16.1,52,20.6,52,26.2z"/>
				<g>
					<path class="st23" d="M52,26.2c0,2.1-0.6,4.1-1.8,5.8c-1.2,1.6-2.8,2.9-4.7,3.6c-2,0.8-4.2,0.8-6.3,0.3c-2-0.6-3.8-1.7-5.1-3.3
						C32.8,31,32,29,31.9,27c-0.2-2.1,0.3-4.2,1.4-6c1-1.7,2.6-3.1,4.4-4c1.9-0.9,4.1-1.2,6.2-0.7c2,0.4,3.9,1.4,5.3,2.9
						c1.4,1.5,2.3,3.4,2.7,5.4C52,25.1,52,25.7,52,26.2C52,26.2,52,26.2,52,26.2c0-2.1-0.6-4.2-1.9-5.9c-1.2-1.6-2.8-2.9-4.7-3.6
						c-2-0.7-4.1-0.8-6.2-0.3c-2,0.5-3.8,1.7-5.1,3.3c-1.3,1.6-2.2,3.6-2.3,5.7c-0.2,2.1,0.3,4.2,1.4,6c1.1,1.7,2.6,3.1,4.5,4
						c1.9,0.9,4,1.1,6.1,0.7c2-0.4,3.9-1.4,5.3-2.9c1.4-1.5,2.4-3.4,2.7-5.4C52,27.2,52,26.7,52,26.2C52,26.2,52,26.2,52,26.2z"/>
				</g>
			</g>
			<g class="st18">
				<path class="st19" d="M40.5,36.2c-4.4-0.9-7.7-4.8-7.7-9.5c0-5.4,4.3-9.7,9.7-9.7c3.9,0,7.2,2.3,8.8,5.6
					c-1.5-3.8-5.1-6.5-9.4-6.5c-5.6,0-10.1,4.5-10.1,10.1C31.8,31.3,35.6,35.5,40.5,36.2z"/>
			</g>
			<g class="st18">
				<path class="st19" d="M43.3,16.2c4.4,0.9,7.7,4.8,7.7,9.5c0,5.4-4.4,9.7-9.7,9.7c-3.9,0-7.3-2.3-8.8-5.6
					c1.4,3.8,5.1,6.5,9.4,6.5c5.6,0,10.1-4.5,10.1-10.1C52,21.1,48.2,16.9,43.3,16.2z"/>
			</g>
			<g>
				<path class="st25" d="M50,26.2c0,4.4-3.6,8-8,8c-4.4,0-8-3.6-8-8c0-4.4,3.6-8,8-8C46.4,18.2,50,21.7,50,26.2z"/>
				<g>
					<path class="st26" d="M50,26.2c0,1.6-0.5,3.3-1.5,4.6c-0.9,1.3-2.2,2.3-3.7,2.9c-1.6,0.6-3.4,0.7-5,0.2c-1.6-0.4-3-1.4-4-2.6
						c-1-1.3-1.7-2.8-1.8-4.4c-0.1-1.6,0.2-3.3,1.1-4.7c0.8-1.4,2-2.5,3.5-3.2c1.5-0.7,3.3-0.9,4.9-0.6c1.6,0.3,3.1,1.1,4.3,2.3
						c1.1,1.2,1.9,2.7,2.1,4.3C49.9,25.3,50,25.8,50,26.2C50,26.2,50,26.2,50,26.2c0-1.7-0.5-3.3-1.5-4.7c-0.9-1.3-2.3-2.3-3.8-2.9
						c-1.5-0.6-3.3-0.6-4.9-0.2c-1.6,0.4-3,1.4-4.1,2.6c-1.1,1.3-1.7,2.9-1.8,4.5c-0.1,1.7,0.3,3.4,1.2,4.8c0.8,1.4,2.1,2.5,3.6,3.1
						c1.5,0.7,3.2,0.9,4.8,0.6c1.6-0.3,3.1-1.1,4.2-2.3c1.1-1.2,1.9-2.7,2.2-4.3C49.9,27,50,26.6,50,26.2C50,26.2,50,26.2,50,26.2z"
						/>
				</g>
			</g>
			<g>
				<path class="st26" d="M49.3,26.2c0,1.5-0.5,3-1.3,4.2c-0.8,1.2-2.1,2.1-3.4,2.7c-1.5,0.6-3.1,0.6-4.6,0.2
					c-1.5-0.4-2.8-1.3-3.7-2.4c-0.9-1.2-1.5-2.6-1.6-4.1c-0.1-1.5,0.2-3.1,1-4.4c0.8-1.3,1.9-2.3,3.2-2.9c1.4-0.7,3-0.9,4.6-0.6
					c1.5,0.3,2.9,1.1,3.9,2.2c1,1.1,1.7,2.5,1.9,3.9C49.3,25.4,49.3,25.8,49.3,26.2C49.3,26.2,49.3,26.2,49.3,26.2
					c0-1.5-0.5-3-1.4-4.3c-0.9-1.2-2.1-2.1-3.5-2.7c-1.4-0.5-3-0.6-4.5-0.2c-1.5,0.4-2.8,1.2-3.7,2.4c-1,1.2-1.6,2.6-1.7,4.2
					c-0.1,1.6,0.3,3.1,1.1,4.5c0.8,1.3,1.9,2.3,3.3,2.9c1.4,0.6,3,0.8,4.4,0.5c1.5-0.3,2.8-1,3.9-2.1c1.1-1.1,1.8-2.5,2-4
					C49.3,27,49.3,26.6,49.3,26.2C49.3,26.2,49.3,26.2,49.3,26.2z"/>
			</g>
			<g>
				<path class="st25" d="M36.2,27c0-3.6,2.9-6.5,6.5-6.5c1.8,0,3.4,0.7,4.6,1.9c-1.1-1.9-3.2-3.2-5.6-3.2c-3.6,0-6.5,2.9-6.5,6.6
					c0,1.8,0.7,3.5,1.9,4.7C36.5,29.4,36.2,28.2,36.2,27z"/>
			</g>
			<g class="st20">
				<path class="st27" d="M41.9,18.2c-4.4,0-8,3.6-8,8c0,4.4,3.6,8,8,8c4.4,0,8-3.6,8-8C50,21.7,46.4,18.2,41.9,18.2z M41.6,32.4
					c-3.9,0-7-3.1-7-7c0-3.9,3.1-7,7-7c3.9,0,7,3.1,7,7C48.6,29.3,45.4,32.4,41.6,32.4z"/>
			</g>
			<g class="st20">
				<path class="st28" d="M41.9,18.2c-4.4,0-8,3.6-8,8c0,4.4,3.6,8,8,8c4.4,0,8-3.6,8-8C50,21.7,46.4,18.2,41.9,18.2z M41.9,33.6
					c-4.1,0-7.4-3.3-7.4-7.4c0-4.1,3.3-7.4,7.4-7.4c4.1,0,7.4,3.3,7.4,7.4C49.3,30.3,46,33.6,41.9,33.6z"/>
			</g>
		</g>
		<g class="st14">
			<path class="st15" d="M15.9,6.8c-1.2,0-4.1,0-5.8,0S8.4,7.6,8.4,8.6c0,0.9,0,1.9,0,1.9c0.5-0.1,1-0.1,1.6-0.1c0.6,0,3.4,0,7.5,0
				c0,0,0-1.3,0-2.1C17.4,7.5,17.2,6.8,15.9,6.8z M12.7,10.1c-2.8,0-3.6-1.1-3.6-2c0-1,0.4-1.1,2.1-1.1c1.6,0,2.5,0,3.7,0
				c1.2,0,1.9,0.4,2,1.4C16.9,9.3,15.5,10.1,12.7,10.1z"/>
		</g>
		<g class="st14">
			<path class="st15" d="M21.1,8.2c-2,0-1.7,2.1-1.7,2.1h3.3C22.8,10.3,23.1,8.2,21.1,8.2z M20.9,10.1c-1,0-1.1-0.3-1.1-0.6
				c0-0.3,0.3-1.1,1.4-1.1c0.9,0,1.2,0.7,1.2,1.1C22.4,9.8,21.9,10.1,20.9,10.1z"/>
		</g>
		<path class="st12" d="M5.9,16.3c0,0-0.1-0.3,0-0.8c0-0.3,0.1-0.6,0.2-0.9c0.1-0.2,0.1-0.4,0.2-0.6c0.1-0.2,0.2-0.4,0.3-0.6
			c0.2-0.4,0.6-0.8,1-1.1C7.8,12.1,8,12,8.3,11.8c0.3-0.1,0.5-0.2,0.8-0.3c0.3-0.1,0.6-0.2,0.9-0.2c0.3-0.1,0.6-0.1,0.9-0.2
			c0.3-0.1,0.6-0.1,0.9-0.1c0.3,0,0.6,0,0.9,0c1.2,0,2.4,0,3.5,0c1.1,0,2.2,0.1,3.1,0.1c1.8,0.1,3,0.1,3,0.1s-1.2,0.1-3,0.1
			c-0.9,0-2,0.1-3.1,0.1c-1.1,0-2.3,0-3.5,0c-0.3,0-0.6,0-0.9,0c-0.3,0-0.6,0-0.9,0.1c-0.3,0-0.6,0.1-0.8,0.1
			c-0.3,0.1-0.5,0.1-0.8,0.2C9,11.9,8.7,12,8.5,12.1c-0.2,0.1-0.5,0.3-0.7,0.4c-0.4,0.3-0.7,0.6-1,1c-0.1,0.2-0.2,0.4-0.3,0.5
			c-0.1,0.2-0.2,0.4-0.2,0.5C6.1,14.9,6,15.2,6,15.5C5.9,16,5.9,16.3,5.9,16.3z"/>
		<g>
			<path class="st29" d="M53.9,12.8c-0.5,0.5-1,1-1.5,1.5c0,0,0.1,0,0.1,0c0.5-0.5,1-1,1.5-1.5C54.1,12.8,53.9,12.8,53.9,12.8
				L53.9,12.8z"/>
			<path class="st29" d="M54.8,12.8c-0.8,0.8-1.6,1.6-2.4,2.4c0,0,0.1,0,0.1,0c0.8-0.8,1.6-1.6,2.4-2.4C55,12.8,54.8,12.8,54.8,12.8
				L54.8,12.8z"/>
			<path class="st29" d="M56,12.8c-1.2,1.2-2.3,2.3-3.5,3.5c0,0,0.1,0,0.1,0c1.2-1.2,2.3-2.3,3.5-3.5C56.1,12.8,56,12.8,56,12.8
				L56,12.8z"/>
			<path class="st29" d="M57.1,12.8c-1.2,1.2-2.3,2.3-3.5,3.5c0,0,0.1,0,0.1,0c1.2-1.2,2.3-2.3,3.5-3.5
				C57.2,12.8,57.1,12.8,57.1,12.8L57.1,12.8z"/>
			<path class="st29" d="M58.1,12.8c-1.2,1.2-2.3,2.3-3.5,3.5c0,0,0.1,0,0.1,0c1.2-1.2,2.3-2.3,3.5-3.5
				C58.3,12.8,58.2,12.8,58.1,12.8L58.1,12.8z"/>
			<path class="st29" d="M59.3,12.8c-1.2,1.2-2.3,2.3-3.5,3.5c0,0,0.1,0,0.1,0c1.2-1.2,2.3-2.3,3.5-3.5
				C59.4,12.8,59.3,12.8,59.3,12.8L59.3,12.8z"/>
			<path class="st29" d="M60,13.2c-1,1-2.1,2.1-3.1,3.1c0,0,0.1,0,0.1,0c1-1,2.1-2.1,3.1-3.1C60.1,13.1,60,13.1,60,13.2L60,13.2z"/>
			<path class="st29" d="M60,14c-0.8,0.8-1.5,1.5-2.3,2.3c0,0,0.1,0,0.1,0c0.8-0.8,1.5-1.5,2.3-2.3C60.1,14,60,14,60,14L60,14z"/>
			<path class="st29" d="M60,15c-0.4,0.4-0.8,0.8-1.3,1.3c0,0,0.1,0,0.1,0c0.4-0.4,0.8-0.8,1.3-1.3C60.1,15,60,15,60,15L60,15z"/>
		</g>
		<g>
			<path class="st29" d="M58.4,12.8c0.5,0.5,1,1,1.5,1.5c0,0,0.2,0,0.2,0c-0.5-0.5-1-1-1.5-1.5C58.6,12.8,58.4,12.8,58.4,12.8
				L58.4,12.8z"/>
			<path class="st29" d="M57.5,12.8c0.8,0.8,1.6,1.6,2.4,2.4c0,0,0.2,0,0.2,0c-0.8-0.8-1.6-1.6-2.4-2.4
				C57.6,12.8,57.5,12.8,57.5,12.8L57.5,12.8z"/>
			<path class="st29" d="M56.4,12.8c1.2,1.2,2.3,2.3,3.5,3.5c0,0,0.2,0,0.1,0c-1.2-1.2-2.3-2.3-3.5-3.5
				C56.5,12.8,56.4,12.8,56.4,12.8L56.4,12.8z"/>
			<path class="st29" d="M55.3,12.8c1.2,1.2,2.3,2.3,3.5,3.5c0,0,0.2,0,0.1,0c-1.2-1.2-2.3-2.3-3.5-3.5
				C55.4,12.8,55.3,12.8,55.3,12.8L55.3,12.8z"/>
			<path class="st29" d="M54.2,12.8c1.2,1.2,2.3,2.3,3.5,3.5c0,0,0.2,0,0.2,0c-1.2-1.2-2.3-2.3-3.5-3.5
				C54.3,12.8,54.2,12.8,54.2,12.8L54.2,12.8z"/>
			<path class="st29" d="M53.1,12.8c1.2,1.2,2.3,2.3,3.5,3.5c0,0,0.2,0,0.2,0c-1.2-1.2-2.3-2.3-3.5-3.5
				C53.2,12.8,53.1,12.8,53.1,12.8L53.1,12.8z"/>
			<path class="st29" d="M52.4,13.2c1,1,2.1,2.1,3.1,3.1c0,0,0.2,0,0.1,0c-1-1-2.1-2.1-3.1-3.1C52.5,13.1,52.4,13.2,52.4,13.2
				L52.4,13.2z"/>
			<path class="st29" d="M52.4,14.1c0.8,0.8,1.5,1.5,2.3,2.3c0,0,0.2,0,0.2,0c-0.8-0.7-1.5-1.5-2.3-2.3C52.5,14,52.4,14,52.4,14.1
				L52.4,14.1z"/>
			<path class="st29" d="M52.4,15.1c0.4,0.4,0.8,0.8,1.3,1.3c0,0,0.2,0,0.2,0c-0.4-0.4-0.8-0.8-1.3-1.3C52.5,15,52.4,15,52.4,15.1
				L52.4,15.1z"/>
		</g>
	</g>
</g>
</svg>
