<?xml version="1.0" encoding="utf-8"?>
<!-- Generator: Adobe Illustrator 26.5.0, SVG Export Plug-In . SVG Version: 6.00 Build 0)  -->
<svg version="1.1" id="Layer_1" xmlns="http://www.w3.org/2000/svg" xmlns:xlink="http://www.w3.org/1999/xlink" x="0px" y="0px"
	 viewBox="0 0 97 87.9" style="enable-background:new 0 0 97 87.9;" xml:space="preserve">
<style type="text/css">
	.st0{fill:#B6B7E5;}
	.st1{fill:#CCCEF2;}
	.st2{fill:#020B2A;}
</style>
<g id="OBJECTS">
	<g>
		<path class="st0" d="M18.9,49.3c0.9,1.6,2.1,3.1,3.4,4.4c0.2,0.2,0.3,0.3,0.5,0.5c6,5.4,14.2,8.1,22.2,7.6c0.2,0,0.4,0,0.6,0
			c2.1-0.2,4.2-0.6,6.2-1.1c2-0.5,3.9-1.1,5.8-2c2-0.9,3.9-2,5.6-3.3c3.2-2.5,5.7-5.9,6.7-9.7c0.1-0.2,0.1-0.4,0.1-0.6
			c0.7-3.3,0.3-6.7-0.4-10c-0.2-0.8-0.4-1.6-0.6-2.4c-1-3.7-2.5-7.5-5.7-9.9c-0.1-0.1-0.2-0.2-0.3-0.2c-3-2.1-7.3-1.6-9.8,0.8
			c-1,1-1.8,2.2-2.8,3.2c-3,2.9-7.5,3.2-11.7,3.4c-2.2,0.1-4.3,0.2-6.5,0.3c-0.5,0-1.1,0-1.6,0.1c-1.1,0.1-2.1,0.2-3.1,0.4
			c-3.8,0.9-7.2,3.6-8.9,7.2c-0.3,0.7-0.6,1.5-0.8,2.3C17.1,43.3,17.5,46.6,18.9,49.3z"/>
		<path class="st1" d="M50.8,51.5c0.8,1.7,2,3.2,3.3,4.5c1.1,1,2.2,1.9,3.5,2.7c2-0.9,3.9-2,5.6-3.3c3.2-2.5,5.7-5.9,6.7-9.7
			c-0.2-0.3-0.5-0.5-0.7-0.7c-2.3-2.2-5.4-3.5-8.6-3.8c-2.1-0.2-4.2-0.1-6.1,0.7c-1.9,0.8-3.6,2.4-4.2,4.3
			C49.8,47.8,50.1,49.8,50.8,51.5z"/>
		<path class="st1" d="M17.9,40.2c0.2,0.7,0.5,1.3,0.9,2c1.6,2.7,4.7,4.6,7.8,4.2c2.6-0.4,4.9-2.3,5.9-4.7c1-2.4,1-5.2,0.2-7.7
			c-0.4-1.3-1-2.5-1.9-3.6c-1.1,0.1-2.1,0.2-3.1,0.4c-3.8,0.9-7.2,3.6-8.9,7.2C18.3,38.7,18.1,39.4,17.9,40.2z"/>
		<path class="st1" d="M22.3,53.7c0.2,0.2,0.3,0.3,0.5,0.5c6,5.4,14.2,8.1,22.2,7.6c0.2,0,0.4,0,0.6,0c-0.3-1.5-1.2-3.1-1.6-4.1
			c-0.7-1.6-1.7-3.1-3.1-4.2c-1.2-0.9-2.6-1.5-4-1.9c-2.1-0.7-4.2-1.1-6.4-1.3c-2.6-0.2-5.5,0-7.2,1.9
			C22.9,52.5,22.6,53.1,22.3,53.7z"/>
		<path class="st1" d="M58.3,36c1.1,1.5,2.6,2.8,4.5,3.1c2,0.3,4-0.6,5.4-2c0.6-0.6,1.1-1.3,1.6-2c-0.2-0.8-0.4-1.6-0.6-2.4
			c-1-3.7-2.5-7.5-5.7-9.9c-2.1,0.2-4.2,1.4-5.4,3.1C56,28.8,56.2,33,58.3,36z"/>
	</g>
	<ellipse class="st0" cx="45.7" cy="79.9" rx="24.9" ry="2.1"/>
	<g>
		<path class="st2" d="M47.6,21.9C47.6,21.9,47.6,21.8,47.6,21.9c-0.1-0.1-0.1-0.1-0.1-0.1c0,0,0,0,0,0c0,0.1,0,0.1-0.1,0.2
			c0,0,0,0.1,0,0.1c0,0,0,0.1,0.1,0.1c0,0,0,0.1,0.1,0.1c0,0,0.1,0,0.1,0c0.1,0,0.1-0.1,0.1-0.2C47.7,22,47.7,22,47.6,21.9
			C47.7,21.9,47.7,21.9,47.6,21.9z"/>
		<path class="st2" d="M38,21.1c0.1-0.4,0.4-0.8,0.7-1.1c-0.1,0.2-0.2,0.4-0.3,0.7c-0.1,0.5-0.2,1-0.1,1.5c0,0.1,0,0.1,0,0.2
			c0,0.1,0.2,0.1,0.1,0c0-0.4,0.2-0.8,0.5-1.1c0.3-0.3,0.7-0.6,1.1-0.8c0.4-0.2,0.8-0.4,1.1-0.7c0.1-0.1,0.2-0.1,0.2-0.2
			c0,0.2,0,0.4,0,0.6c0,0.3,0,0.6,0,0.8c0,0.3,0,0.5,0.1,0.8c0.1,0.2,0.2,0.5,0.4,0.7c0.1,0.1,0.2,0.2,0.3,0.3c0,0,0.1,0.1,0.1,0.1
			c0-0.1,0-0.2,0-0.2c-0.1-0.6-0.2-1.2-0.3-1.9c0-0.3-0.1-0.6-0.1-0.9c0-0.3,0-0.5,0-0.8c0-0.1,0.1-0.2,0.1-0.2
			c0.2-0.1,0.4-0.1,0.6-0.2c0.4-0.1,0.8-0.3,1.2-0.5c0.2-0.1,0.4-0.2,0.5-0.3c0.1-0.1,0.3-0.2,0.4-0.3c0-0.1,0-0.2,0-0.2
			c0-0.1,0.2-0.1,0.1,0c0,0.1,0,0.2,0.1,0.4c0.3,0.4,0.8,0.6,1.2,0.8c0.1,0,0.2,0.1,0.3,0.1c0.1,0,0.2,0.1,0.3,0.2
			c0.1,0.1,0.1,0.3,0.1,0.4c0,0.2,0,0.3,0.1,0.5c0.1,0.6,0.2,1.2,0.3,1.9c0,0.1,0.1,0.2,0.1,0.3c0.1-0.4,0.3-0.7,0.3-1.1
			c0.1-0.4,0-0.9-0.1-1.3c-0.1-0.4-0.3-0.9-0.4-1.3c-0.1-0.2-0.2-0.4-0.2-0.6c-0.1-0.2-0.2-0.4-0.3-0.5c-0.1-0.2-0.3-0.3-0.5-0.4
			c-0.1-0.1-0.1-0.1-0.2-0.2c0,0-0.1,0-0.1-0.1c-0.1,0-0.2-0.1-0.2-0.1c-0.1,0-0.2-0.1-0.2-0.1c0.1-0.1,0.1-0.3,0.1-0.4
			c-0.1-0.3-0.4-0.5-0.7-0.6c-0.4-0.1-0.7,0-1.1,0.1c-0.3,0.1-0.6,0.3-0.8,0.6c-0.1,0.2-0.1,0.4-0.1,0.6c0,0.1,0,0.2,0.1,0.2
			c0,0,0,0,0,0c0,0,0,0.1-0.1,0.1c0,0,0,0,0,0c-0.1,0.1-0.2,0.2-0.3,0.2c-0.1,0.1-0.2,0.1-0.3,0.2c0,0-0.1,0.1-0.1,0.1
			c-0.1,0.1-0.1,0.2-0.2,0.3c-0.1,0.1-0.2,0.1-0.3,0.2c-0.6,0.2-1.2,0.4-1.8,0.7c-0.2,0.1-0.4,0.2-0.5,0.3s-0.3,0.3-0.4,0.4
			c0,0,0,0,0,0c0.1-0.1,0.1-0.2,0.2-0.2c0.1,0,0.1-0.1,0.2-0.1c0.2-0.1,0.3-0.2,0.5-0.3c0.2-0.1,0.3-0.2,0.5-0.2
			c-0.5,0.2-0.9,0.6-1.2,1c-0.1,0.1-0.1,0.2-0.2,0.3c-0.1,0.1-0.3,0.2-0.4,0.4C38.2,20.3,38,20.7,38,21.1C37.9,21.1,38,21.1,38,21.1
			z"/>
		<path class="st2" d="M42.2,23.1c0,0,0,0.1,0,0.1c0,0.1,0,0.2,0,0.2c0,0.1,0.1,0.1,0.1,0.2c0,0,0,0,0.1,0c0,0,0-0.1,0.1-0.1
			c0,0,0,0,0,0c0,0,0,0,0,0c0-0.1-0.1-0.2-0.1-0.3c0,0,0,0,0,0C42.3,23.2,42.2,23.1,42.2,23.1z"/>
		<path class="st2" d="M42.8,23.7c0.2,0.2,0.4,0.3,0.6,0.5c0.3,0.1,0.5,0.2,0.8,0.3c0.1,0,0.3,0.1,0.4,0.1c0.1,0,0.3,0.1,0.4,0.1
			c0.1,0,0.3,0,0.4-0.1c0.1-0.1,0.2-0.1,0.3-0.2c0.2-0.2,0.4-0.3,0.6-0.5c0.2-0.2,0.4-0.4,0.5-0.6c0.2-0.2,0.3-0.4,0.4-0.7
			c0.1-0.3,0-0.6,0-0.9c-0.1-0.3-0.1-0.6-0.2-0.9c-0.1-0.6-0.2-1.2-0.3-1.8c0-0.1,0-0.1,0-0.2c0-0.1-0.1-0.1-0.1-0.1
			c-0.1,0-0.2-0.1-0.3-0.1c-0.2-0.1-0.5-0.2-0.7-0.3c-0.2-0.1-0.4-0.3-0.6-0.4c-0.1-0.1-0.2-0.2-0.3-0.4c-0.1,0.2-0.3,0.3-0.4,0.4
			c-0.3,0.3-0.7,0.5-1.1,0.6c-0.4,0.2-0.8,0.3-1.2,0.4c0,0.1,0,0.3,0,0.4c0.1,1.2,0.2,2.4,0.5,3.6C42.5,23.3,42.6,23.5,42.8,23.7z"
			/>
		<path class="st2" d="M47,25.5c-0.1-0.3-0.1-0.7-0.2-1c0-0.2,0-0.3,0-0.5c0-0.1,0-0.2,0-0.4c-0.1,0.1-0.1,0.1-0.2,0.2
			c-0.2,0.2-0.4,0.4-0.6,0.6c-0.2,0.2-0.4,0.4-0.7,0.5c-0.1,0.1-0.3,0.1-0.4,0.1c-0.1,0-0.3-0.1-0.4-0.1c-0.3-0.1-0.6-0.2-0.9-0.3
			c0,0.1,0,0.1,0,0.2c0,0.1,0,0.2,0,0.3c0,0.2,0,0.4,0,0.6c0,0.2,0,0.3,0,0.5c0,0.2-0.1,0.3-0.2,0.4c-0.1,0.1-0.2,0.2-0.3,0.3
			c-0.1,0.1-0.2,0.2-0.4,0.3c-0.4,0.3-0.9,0.5-1.4,0.7c0,0,0,0,0,0c0,0-0.1,0.1-0.1,0.1c0,0,0,0,0,0c0,0,0,0,0,0c0,0,0,0,0,0
			c0,0-0.1,0-0.1,0.1c0,0,0,0.1,0,0.1c0,0.1,0.1,0.1,0.1,0.2c0.1,0.1,0.2,0.2,0.3,0.3c0.2,0.2,0.4,0.4,0.7,0.5
			c0.5,0.3,1.2,0.4,1.8,0.4c0.7,0,1.3,0,2-0.2c0.6-0.2,1.1-0.4,1.6-0.8c0.2-0.2,0.4-0.4,0.6-0.6c0.1-0.1,0.2-0.2,0.3-0.3
			c0-0.1,0.1-0.1,0.1-0.2c0,0,0-0.1,0.1-0.1c0,0,0,0,0,0c0,0,0,0,0,0c0,0,0,0-0.1,0c-0.2-0.1-0.3-0.2-0.4-0.3
			c-0.2-0.2-0.4-0.4-0.6-0.6C47.2,26.1,47.1,25.8,47,25.5z"/>
		<path class="st2" d="M31.1,49.2c0,0,0,0.1,0,0.1c0,0.1,0,0.2,0,0.2c0,0.2,0,0.3,0,0.5c0,0.1,0,0.3,0,0.4c0,0.1,0,0.2,0.1,0.3
			c0,0,0,0,0.1,0c0-0.1,0-0.1,0-0.2c0-0.1,0-0.3,0-0.4c0-0.3,0-0.6,0-0.9c0-0.1,0-0.3,0-0.4c0-0.1,0-0.1,0-0.2
			C31.4,48.9,31.3,49.1,31.1,49.2z"/>
		<path class="st2" d="M31,49.1c0.2-0.1,0.3-0.3,0.4-0.5c0.1-0.2,0.2-0.4,0.4-0.5c0.2-0.2,0.3-0.3,0.5-0.5c0.1-0.1,0.1-0.2,0.1-0.3
			c0-0.1,0-0.3,0-0.4c0-0.1,0.1-0.1,0.1,0c0,0.1,0,0.3,0,0.5c0,0.1-0.1,0.3-0.2,0.4c-0.2,0.2-0.4,0.4-0.6,0.6
			c-0.1,0.1-0.1,0.2-0.2,0.3c0,0,0,0,0,0c0,0.1,0,0.2,0,0.2c0,0.1,0,0.2,0,0.3c0,0.2,0,0.4,0,0.5c0,0.2,0,0.3,0,0.5
			c0,0.1,0,0.3,0,0.4c0,0.1,0,0.1,0,0.2c0,0.1,0,0.2,0.1,0.2c0.1,0,0.1-0.1,0.1-0.2c0-0.2,0-0.3,0-0.5c0-0.2,0-0.3,0-0.5
			c0-0.2,0-0.4,0-0.5c0-0.2,0-0.3,0.1-0.5c0,0,0.1,0,0.1,0c0,0.2,0,0.5,0,0.7c0,0.4,0,0.8-0.1,1.2c0,0.1,0,0.1,0,0.2c0,0,0,0,0,0
			c0,0.1,0.1,0.1,0.1,0.1c0.1,0,0.1-0.1,0.1-0.2c0-0.1,0-0.2,0-0.3c0-0.1,0-0.2,0-0.3c0-0.2,0-0.4,0-0.6c0-0.2,0-0.4,0.1-0.6
			c0,0,0,0,0,0c0,0.2,0,0.4,0,0.6c0,0.2,0,0.4,0,0.5c0,0.1,0,0.3,0,0.4c0,0,0,0,0,0c0,0,0,0,0,0c0,0,0-0.1,0-0.1c0-0.1,0-0.2,0-0.2
			c0-0.2,0-0.3,0-0.5c0-0.2,0-0.3,0-0.5c0-0.1,0-0.1,0-0.2c0,0,0,0,0-0.1c0-0.1,0.1-0.1,0.1-0.2c0-0.1,0.1-0.1,0.1-0.2
			c0.1-0.1,0.1-0.3,0.2-0.4c0.1-0.3,0.2-0.5,0.2-0.8c0.1-0.3,0.1-0.6,0.3-0.8c0.1-0.1,0.1-0.2,0.2-0.4c0,0,0,0,0,0
			c0.2-0.3,0.4-0.5,0.6-0.8c0.2-0.2,0.4-0.5,0.6-0.7c0.7-0.8,1.5-1.7,2.1-2.5c0.3-0.4,0.7-0.9,0.9-1.3c0.1-0.2,0.2-0.5,0.3-0.7
			c0-0.1,0.1-0.1,0.1-0.2c0.1-0.1,0.1-0.2,0.2-0.3c0.1-0.1,0.1-0.2,0.2-0.2c0.1-0.1,0.1-0.2,0.1-0.3c0.2-0.4,0.3-0.8,0.4-1.1
			c0,0,0,0,0,0c0.1-0.2,0.1-0.4,0.2-0.6c0-0.1,0.1-0.2,0.1-0.3c0-0.1,0-0.1,0-0.2c0,0,0-0.1,0-0.1c0-0.1,0-0.2,0-0.3
			c0-0.2,0-0.5-0.1-0.7c0-0.1,0-0.3-0.1-0.4c0,0,0,0,0,0c0,0,0,0,0,0c0,0,0,0,0,0c0,0,0,0,0,0c0,0,0,0,0,0c0,0,0,0,0,0
			c0,0,0,0-0.1,0c0,0,0,0,0,0c0,0,0,0,0,0c0,0-0.1,0-0.1,0c-0.1,0-0.2,0-0.3,0c-0.4,0-0.9,0-1.3,0.1c0,0,0,0,0,0c0,0,0,0,0,0
			c0,0,0,0,0,0c0,0,0,0.1,0,0.1c-0.1,0.1-0.1,0.3-0.2,0.4c-0.1,0.3-0.2,0.7-0.4,1c-0.1,0.2-0.1,0.5-0.2,0.7c0,0,0,0,0,0.1
			c0,0.1,0,0.1-0.1,0.2c0,0,0,0.1,0,0.1c0,0,0,0,0,0c0,0,0,0.1,0,0.1c-0.1,0.3-0.3,0.5-0.5,0.7c-0.4,0.5-0.8,1-1.1,1.5
			c-0.3,0.5-0.6,1.1-1,1.7c-0.3,0.6-0.6,1.2-0.9,1.8c-0.1,0.3-0.3,0.6-0.4,0.9c-0.1,0.1-0.1,0.3-0.2,0.4c0,0.1-0.1,0.2-0.1,0.3
			c0,0,0,0,0,0.1c0,0,0,0.1,0,0.1c-0.2,0.3-0.4,0.6-0.6,0.8c-0.1,0.1-0.1,0.1-0.2,0.2c0,0-0.1,0.1-0.1,0.1c0,0,0,0,0,0.1
			c-0.1,0.1-0.1,0.2-0.1,0.4c0,0.3-0.1,0.5-0.2,0.8c-0.1,0.3-0.2,0.5-0.3,0.8c0,0.1-0.1,0.1-0.1,0.2c0,0,0,0.1,0,0.2
			C30.8,49.3,31,49.1,31,49.1z"/>
		<path class="st2" d="M41,69.3c-0.6-0.2-1.2-0.3-1.8-0.4c-0.4,0-0.9,0-1.3,0.1c0.1,0.4,0.2,0.9,0.3,1.3c0.1,0.8,0.3,1.6,0.4,2.4
			c0,0.4,0.1,0.8,0.1,1.2c0,0.2,0,0.4,0,0.6c0,0.1,0,0.2,0,0.3c0,0.1,0,0.2,0,0.3c0,0,0,0,0,0l0,0c0,0.1,0,0.1,0.1,0.1
			c0.1,0.1,0.2,0.1,0.3,0.1c0.4,0.1,0.9,0.2,1.3,0.1c0.2,0,0.4-0.1,0.6-0.2c0.1-0.1,0.2-0.1,0.2-0.2c0,0,0-0.1,0.1-0.1c0,0,0,0,0,0
			c0-0.2,0-0.4,0-0.7c0-0.2,0-0.4,0-0.6c0-0.8,0-1.5,0-2.3c0-0.4,0-0.8,0-1.2c0-0.2,0-0.4,0-0.6c0-0.1,0-0.2,0-0.3
			C41.1,69.3,41.1,69.3,41,69.3z"/>
		<path class="st2" d="M41.3,79.7c0,0,0-0.1,0-0.1c0-0.1,0-0.2,0-0.3c0-0.3,0-0.6,0-0.9c0,0-0.1,0-0.1,0.1c-0.1,0.1-0.2,0.1-0.3,0.2
			c0,0,0,0-0.1,0c0,0,0,0.1,0.1,0.1c0,0.1,0.1,0.2,0.1,0.4c0,0.3,0,0.5,0,0.8c0.1,0,0.1,0,0.2,0c0,0,0.1,0,0.1,0c0,0,0.1,0,0.1,0
			C41.3,79.8,41.3,79.8,41.3,79.7C41.3,79.8,41.3,79.8,41.3,79.7C41.3,79.7,41.3,79.7,41.3,79.7z"/>
		<path class="st2" d="M41.4,75.2C41.3,75.2,41.3,75.2,41.4,75.2c-0.1,0.2-0.2,0.3-0.3,0.3c-0.2,0.1-0.5,0.2-0.7,0.2
			c-0.3,0-0.5,0-0.8,0c-0.1,0-0.3,0-0.4-0.1c-0.1,0-0.2-0.1-0.4-0.1c-0.1,0-0.1-0.1-0.1-0.1c0,0,0,0,0-0.1c-0.1,0.1-0.1,0.3-0.1,0.4
			c-0.1,0.3-0.1,0.6-0.2,0.8c-0.1,0.3-0.2,0.5-0.3,0.8c-0.3,0.5-0.6,1-1,1.5c-0.2,0.2-0.4,0.5-0.6,0.7c-0.2,0.2-0.4,0.4-0.6,0.7
			c-0.1,0.1-0.2,0.2-0.2,0.3c-0.1,0.1-0.1,0.3-0.2,0.4c0,0.1,0,0.2,0.1,0.3c0.1,0.1,0.2,0.1,0.4,0.1c0.3,0,0.6,0.1,0.9,0
			c0.3,0,0.6,0,0.9-0.1c0.1,0,0.3-0.1,0.4-0.2c0.1-0.1,0.2-0.2,0.2-0.3c0.1-0.2,0.2-0.4,0.4-0.6c0.3-0.4,0.7-0.8,1.1-1.1
			c0.4-0.3,0.9-0.6,1.3-0.8c0.1-0.1,0.2-0.1,0.3-0.2c0.1,0,0.1-0.1,0.1-0.1c0-0.1,0.1-0.1,0.1-0.2c0.1-0.3,0-0.6,0-0.9
			C41.5,76.3,41.4,75.7,41.4,75.2z"/>
		<path class="st2" d="M55.3,79.6c-0.1-0.2-0.3-0.4-0.4-0.6c-0.1-0.2-0.3-0.4-0.4-0.6c-0.1-0.2-0.2-0.4-0.3-0.6
			c-0.2-0.4-0.4-0.9-0.5-1.3c-0.2-0.4-0.3-0.8-0.4-1.2c-0.1,0.1-0.2,0.2-0.3,0.2c-0.3,0.1-0.6,0.2-0.9,0.2c-0.1,0-0.3,0-0.5-0.1
			c-0.1,0-0.2-0.1-0.2-0.2c0,0.1,0,0.2,0,0.3c0,0.3,0,0.6,0,0.9l0,0.4c0,0.1,0,0.3,0,0.4c0,0.1,0.1,0.2,0.2,0.3
			c0.1,0.1,0.2,0.2,0.3,0.3c0.1,0.1,0.2,0.2,0.3,0.3c0.1,0.1,0.2,0.2,0.3,0.4c0,0,0,0,0,0c0.1,0.1,0.1,0.2,0.2,0.3
			c0.1,0.2,0.1,0.4,0.2,0.5c0.1,0.3,0.2,0.6,0.4,0.9c0.1,0.1,0.2,0.2,0.3,0.3c0,0,0.1,0,0.1,0.1c0.2,0.1,0.5,0.2,0.7,0.3
			c0.2,0,0.4,0,0.6,0c0.2-0.1,0.3-0.2,0.4-0.4c0-0.1,0.1-0.2,0.1-0.3c0,0,0-0.1,0-0.2c0,0,0,0,0,0c0-0.1-0.1-0.2-0.1-0.3
			C55.4,79.8,55.4,79.7,55.3,79.6z"/>
		<path class="st2" d="M51.4,75.2c0.1,0.1,0.2,0.2,0.4,0.2c0.2,0,0.4,0,0.5,0c0.3,0,0.6-0.1,0.8-0.3c0,0,0.1-0.1,0.1-0.1
			c0,0,0,0,0,0c-0.1-0.4-0.1-0.7-0.1-1.1c0,0,0-0.1,0-0.1c-0.1-0.5-0.1-1-0.2-1.5c0-0.2-0.1-0.5-0.1-0.7c0-0.1,0-0.2-0.1-0.4
			c0-0.1,0-0.1,0-0.2c0,0,0-0.1,0-0.1c0,0,0-0.1,0-0.1l0,0c-0.3,0-0.5,0.1-0.8,0.1c-0.6,0.1-1.3,0.1-1.9,0.2c0,0,0,0,0,0
			c0,0,0,0,0,0c0,0.1,0.1,0.3,0.1,0.4c0,0.1,0.1,0.3,0.1,0.4c0.1,0.3,0.2,0.5,0.3,0.8c0.2,0.5,0.4,0.9,0.6,1.4
			C51.2,74.4,51.3,74.8,51.4,75.2C51.3,75.2,51.4,75.2,51.4,75.2z"/>
		<path class="st2" d="M53.8,69.4c-1.1,0.2-2.1,0.4-3.2,0.6c-1,0.1-2.1,0.1-3.1-0.1c-1-0.2-2-0.6-2.9-0.9c-1-0.4-2-0.7-3-0.9
			c-1.1-0.2-2.2-0.3-3.2-0.3c-1.1,0-2.2,0-3.3-0.1c-1-0.1-1.9-0.3-2.8-0.6c-1.6-0.7-3-1.8-4.1-3.2c0,0,0,0,0-0.1c0,0,0,0,0,0
			c-0.1-0.1-0.3-0.2-0.4-0.3c-0.3-0.2-0.7-0.4-1-0.5c0.1,0.1,0.2,0.2,0.4,0.4c1.4,1.5,2.4,3.5,4.1,4.7c1,0.7,2.1,1,3.3,1.1
			c1.2,0.1,2.5-0.3,3.7-0.4c1.2-0.1,2.4,0.2,3.5,0.5c1.1,0.4,2.3,0.8,3.4,1.1c2.4,0.6,4.9,0.7,7.3,0.2c1.1-0.2,2.1-0.4,3.1-0.9
			c0.8-0.4,1.6-1,1.9-1.8c-0.2,0.2-0.5,0.4-0.8,0.6C55.8,68.9,54.8,69.2,53.8,69.4z"/>
		<path class="st2" d="M56.8,65c-0.5-0.9-1-1.8-1.4-2.7c-0.9-1.8-1.6-3.7-2.3-5.7c-0.6-2-1.2-4-1.6-6c-0.5-2-0.9-4-1.5-6
			c-0.5-1.9-1.1-3.8-1.7-5.7c0,0,0,0,0,0c0-0.1,0-0.1,0-0.2c0,0,0-0.1,0-0.1c0.2-0.4,0.3-0.8,0.5-1.2c0.2-0.5,0.3-0.9,0.5-1.4
			c0.1-0.2,0.2-0.4,0.2-0.7c0-0.2,0.1-0.5,0.1-0.7c0-0.5,0-1,0-1.5c0-0.2,0-0.5,0-0.7c0-0.1,0-0.2,0-0.4c0-0.1,0-0.1,0-0.2
			c0,0,0-0.1,0-0.1c0,0,0-0.1,0-0.1c0-0.1,0.1,0,0.1,0c0,0,0,0.1,0,0.1c0,0,0,0.1,0,0.1c0,0.1,0,0.1,0,0.2c0,0.1,0,0.3,0,0.4
			c0,0.3,0,0.6,0,0.8c0,0.5,0,1,0,1.5c0,0.1,0,0.2,0,0.3c0.2-0.1,0.3-0.2,0.5-0.3c0.2-0.1,0.4-0.2,0.7-0.2c0.2-0.1,0.5-0.1,0.7-0.1
			c0.2,0,0.5,0,0.7,0.1c0.1,0,0.2,0.1,0.3,0.1c0.1,0,0.1,0,0.2-0.1c0,0,0,0,0,0c0-0.1,0-0.2,0-0.3c0-0.7,0-1.5,0-2.2
			c0-0.7-0.1-1.5-0.2-2.2c-0.1-0.6-0.2-1.3-0.5-1.8c-0.1-0.3-0.3-0.5-0.5-0.8c-0.1-0.1-0.2-0.2-0.4-0.2c-0.2,0-0.3,0-0.5,0
			c-0.2,0-0.4,0-0.5,0.1c-0.2,0-0.4,0-0.6,0.1c-0.2,0-0.3,0.1-0.5,0.1c-0.1,0-0.2,0-0.3,0c0,0.1,0,0.1,0,0.2c0,0.1-0.1,0.1-0.1,0.2
			c-0.1,0.1-0.2,0.2-0.3,0.4c-0.2,0.2-0.4,0.4-0.7,0.6c-0.5,0.4-1.1,0.7-1.7,0.8c-0.7,0.2-1.4,0.2-2.1,0.2c-0.4,0-0.7-0.1-1.1-0.2
			c-0.3-0.1-0.6-0.2-0.8-0.4c-0.2-0.2-0.5-0.4-0.7-0.6c0-0.1-0.1-0.1-0.1-0.2c0-0.1-0.1-0.1-0.1-0.2c0,0,0-0.1,0-0.1
			c0,0-0.1,0-0.1,0c-0.4,0-0.8,0-1.3,0c-0.3,0-0.7,0-0.9,0.3c-0.1,0.1-0.2,0.3-0.3,0.5c-0.1,0.2-0.2,0.3-0.2,0.5
			c-0.2,0.4-0.3,0.7-0.4,1.1c-0.2,0.7-0.4,1.5-0.5,2.3C37,33.3,37,34.1,37,34.8c0,0.1,0,0.2,0,0.3c0,0.1,0.1,0.1,0.2,0.1
			c0.2,0,0.4,0,0.6,0c0.4,0,0.9,0,1.3-0.1c0,0,0,0,0.1,0c0,0,0,0,0,0c0,0,0,0,0,0c0,0,0,0,0,0c-0.1-0.2-0.1-0.4-0.2-0.6
			C39,34.3,39,34.1,39,33.9c0-0.2,0-0.5,0.1-0.7c0-0.2,0.1-0.5,0.2-0.7c0.1-0.2,0.1-0.5,0.2-0.7c0,0,0,0,0,0c0,0.1-0.1,0.3-0.1,0.4
			c0,0.1-0.1,0.3-0.1,0.4c0,0.3-0.1,0.5-0.1,0.8c0,0.2-0.1,0.5,0,0.7c0,0.2,0.1,0.4,0.1,0.6c0.1,0.2,0.2,0.4,0.2,0.6
			c0.1,0.2,0.1,0.4,0.1,0.7c0,0.5,0.1,0.9,0.1,1.4c0,0.2,0,0.5,0.1,0.7c0,0.2,0,0.4,0,0.6c0.1,0,0.1,0,0.1,0.1
			c-0.1,0.2-0.3,0.4-0.4,0.5c-1.1,1.4-2,3.1-2.7,4.8C36.5,45,36.3,46,36,46.9c-0.2,0.9-0.5,1.9-0.9,2.8c-0.7,1.8-1.6,3.5-2.7,5.1
			c-0.5,0.8-1.1,1.5-1.8,2.1c-0.7,0.6-1.4,1.2-2.1,1.8c-0.7,0.6-1.4,1.1-2.1,1.7c-0.3,0.3-0.7,0.6-0.8,1c0,0,0,0.1,0,0.1
			c0,0.1,0,0.2,0.1,0.3c0.1,0.1,0.1,0.3,0.2,0.4c0.3,0.5,0.9,0.8,1.4,1c0.3,0.1,0.5,0.3,0.8,0.4c0.1,0.1,0.2,0.2,0.3,0.3
			c0.1,0.1,0.2,0.2,0.3,0.3c0,0,0,0,0,0c0.2,0.2,0.4,0.5,0.6,0.7c1.2,1.3,2.8,2.2,4.5,2.6c1,0.2,2.1,0.3,3.2,0.3
			c1.1,0,2.1,0,3.2,0.1c1,0.1,2.1,0.3,3.1,0.6c1,0.3,1.9,0.7,2.9,1c1,0.3,1.9,0.6,3,0.6c1.1,0,2.2-0.2,3.3-0.4c1-0.2,2-0.4,3-0.7
			c0.5-0.1,0.9-0.3,1.4-0.5c0.4-0.2,0.7-0.4,0.9-0.7c0.3-0.4,0.2-0.9,0-1.3C57.3,65.9,57,65.5,56.8,65z"/>
		<path class="st2" d="M52.5,34.9c-0.1,0-0.1,0-0.2,0c-0.1,0-0.2-0.1-0.3-0.1c-0.1,0-0.2,0-0.4,0c-0.2,0-0.5,0-0.7,0.1
			c-0.4,0.1-0.8,0.2-1.1,0.5c0,0,0,0,0,0c0,0.1,0,0.1,0,0.2c0,0.1,0,0.1,0,0.2c0,0.1,0,0.3,0.1,0.4c0.1,0.5,0.1,0.9,0.2,1.4
			c0,0.2,0.1,0.5,0.1,0.7c0,0.1,0,0.2,0,0.4c0,0.1,0,0.2,0,0.4c0,0,0,0,0,0c0,0.3,0.1,0.6,0.2,0.9c0.1,0.3,0.1,0.6,0.2,0.9
			c0.2,0.6,0.4,1.3,0.6,1.9c0.2,0.6,0.4,1.3,0.6,1.9c0.2,0.6,0.4,1.3,0.6,1.9c0.1,0.3,0.2,0.6,0.3,1c0,0.2,0.1,0.3,0.1,0.5
			c0,0.1,0,0.2,0.1,0.2c0,0,0,0.1,0,0.1c0,0,0,0.1,0,0.1c0,0,0,0,0,0c0,0,0,0,0,0c0,0.1,0,0.2,0,0.3c0,0.2,0,0.5,0,0.7
			c0,0.1,0,0.2,0,0.3c0,0.1,0,0.2,0,0.3c0,0.2,0.1,0.4,0.1,0.6c0,0.4,0,0.9,0.1,1.3c0,0.1,0,0.1,0.1,0.2c0.1,0.1,0.1,0,0.2-0.1
			c0.1-0.1,0.2-0.3,0.2-0.5c0.1-0.4,0-0.8,0.2-1.1c0-0.1,0.1-0.1,0.1,0c0.1,0,0.1,0,0.2,0c0.1,0,0.2,0.1,0.3,0.2
			c0.1,0.1,0.1,0.3,0.1,0.4c0,0.1,0,0.1,0,0.2c0,0,0,0.1,0,0.1c0.1,0.2,0.2,0.5,0.3,0.7c0,0,0,0,0-0.1c0,0,0-0.1,0.1-0.1
			c0-0.1,0.1-0.1,0.1-0.2c0.1-0.1,0.1-0.3,0.2-0.4c0.1-0.1,0.1-0.3,0.1-0.4c0-0.1,0-0.1,0.1-0.2c0,0,0-0.1,0-0.1c0,0,0-0.1,0-0.1h0
			c0,0.1,0,0.2,0,0.3c0,0.1,0,0.3-0.1,0.4c0,0.1-0.1,0.3-0.1,0.4c0,0.1-0.1,0.2-0.1,0.2c0,0.1-0.1,0.1-0.1,0.2c0,0,0,0.1-0.1,0.1
			c0,0,0,0.1-0.1,0.1c0,0.1,0.1,0.2,0.1,0.3c0.1-0.1,0.1-0.2,0.2-0.2c0.1-0.1,0.1-0.2,0.2-0.4c0,0,0,0,0,0c0-0.1,0.1-0.1,0.1-0.2
			c0.1-0.1,0.1-0.3,0.1-0.4c0-0.1,0.1-0.3,0.1-0.4c0-0.1,0-0.1,0-0.2c0-0.1,0-0.2,0-0.2c0,0,0,0,0-0.1c0,0,0,0,0-0.1
			c0-0.1-0.1-0.2-0.2-0.3c-0.2-0.2-0.3-0.4-0.5-0.6c-0.2-0.2-0.3-0.5-0.4-0.7c-0.1-0.1-0.1-0.2-0.2-0.4c0-0.1,0-0.1-0.1-0.2
			c0,0,0,0,0,0c0,0,0-0.1,0-0.1c0-0.1-0.1-0.3-0.1-0.4c-0.1-0.9-0.2-1.7-0.3-2.6c-0.1-0.9-0.2-1.8-0.3-2.7c0-0.4-0.1-0.9-0.1-1.3
			c0-0.4-0.1-0.9-0.2-1.3c-0.1-0.4-0.2-0.8-0.4-1.2c-0.2-0.4-0.3-0.8-0.4-1.2C52.3,36.5,52.3,35.7,52.5,34.9z"/>
		<path class="st2" d="M54.8,52.4c-0.1-0.2-0.2-0.5-0.3-0.7c0,0,0,0,0,0c0,0,0-0.1,0-0.1c0,0,0,0,0,0c0,0,0-0.1,0-0.1c0,0,0,0-0.1,0
			l0,0c0,0,0,0,0,0c0,0,0,0,0,0c0,0,0,0,0,0c0,0,0,0,0,0c0,0,0,0,0,0c0,0-0.1,0.1-0.1,0.1c0,0-0.1,0-0.1,0.1c0,0,0,0.1,0,0.1
			c0.1,0.2,0.1,0.4,0.2,0.7c0.1,0.4,0.3,0.8,0.4,1.2c0.2,0.4,0.3,0.8,0.5,1.2c0.2,0.4,0.3,0.8,0.5,1.2c0.1,0.2,0.2,0.4,0.2,0.6
			c0,0.1,0.1,0.2,0.1,0.3c0,0.1,0,0.1,0.1,0.2c0,0,0,0,0,0.1c0,0,0,0,0,0c0,0,0,0,0,0c0,0,0,0,0,0c0.1,0,0.2-0.1,0.3-0.1l0.2-0.1
			c0,0,0,0,0,0c0-0.1-0.1-0.1-0.1-0.2c-0.1-0.1-0.1-0.2-0.1-0.3c-0.1-0.2-0.2-0.4-0.3-0.6c-0.3-0.7-0.6-1.5-0.9-2.2
			C55.1,53.2,54.9,52.8,54.8,52.4z"/>
		<path class="st2" d="M54.2,52.7c0-0.1-0.1-0.2-0.1-0.4c0,0.1,0,0.1-0.1,0.2c-0.1,0.1-0.1,0.2-0.2,0.3c0,0,0,0.1,0,0.1c0,0,0,0,0,0
			c0,0,0,0,0,0c0,0,0,0,0.1,0c0.1,0,0.1-0.1,0.2-0.1C54.1,52.7,54.1,52.7,54.2,52.7z"/>
		<path class="st2" d="M54,53.1C54,53.1,54,53.1,54,53.1C54,53.1,54,53.1,54,53.1C54,53.1,54,53.1,54,53.1C54,53.1,54,53.1,54,53.1
			C54,53.1,54,53.1,54,53.1C54,53.1,54,53.1,54,53.1C54,53.1,54,53.1,54,53.1C54,53.1,54,53.1,54,53.1C54,53.1,54,53.1,54,53.1
			L54,53.1C54,53.1,54,53.1,54,53.1C54.1,53.1,54.1,53.1,54,53.1C54.1,53.1,54.1,53.1,54,53.1C54.1,53.1,54.1,53.1,54,53.1
			c0.1,0.1,0.1,0.1,0.1,0.1c0,0,0,0,0,0c0,0,0,0,0,0c0,0,0,0,0.1,0c0,0,0,0,0,0c0,0,0,0,0,0c0,0,0,0,0,0c0,0,0,0,0,0
			c0-0.1,0-0.1-0.1-0.2c0,0,0,0,0,0c0,0-0.1,0.1-0.1,0.1c0,0-0.1,0-0.1,0.1c0,0,0,0,0,0c0,0,0,0,0,0C54,53,54,53,54,53.1
			C54,53,54,53,54,53.1C54,53,54,53,54,53.1C54,53.1,54,53.1,54,53.1C54,53.1,54,53.1,54,53.1z"/>
		<path class="st2" d="M54.5,54c0.3,1.1,0.6,2.2,0.9,3.3c0.2,0,0.4-0.1,0.6-0.1c0,0,0,0,0,0c-0.1-0.1-0.1-0.2-0.2-0.4
			c-0.1-0.2-0.2-0.5-0.3-0.7c-0.4-0.8-0.7-1.7-1.1-2.5c-0.1-0.1-0.1-0.3-0.1-0.4c0,0,0,0,0,0c0,0,0,0,0,0c0,0.1,0.1,0.2,0.1,0.3
			C54.4,53.7,54.4,53.8,54.5,54z"/>
		<path class="st2" d="M59.7,59.7C59.7,59.7,59.7,59.7,59.7,59.7c0-0.1,0-0.1,0-0.1c0,0,0-0.1-0.1-0.1c0-0.1-0.1-0.1-0.1-0.2
			c-0.1-0.1-0.2-0.3-0.2-0.4c-0.3-0.5-0.7-0.9-1-1.3c-0.2-0.2-0.4-0.4-0.6-0.6c-0.1-0.1-0.2-0.1-0.4-0.2c-0.1,0-0.2,0-0.3,0
			c0,0,0,0,0,0.1c-0.1,0-0.1,0.1-0.2,0.1c-0.1,0-0.1,0.1-0.2,0.1c-0.1,0.1-0.3,0.1-0.4,0.2c-0.2,0.1-0.5,0.2-0.7,0.1
			c0,0-0.1,0-0.1,0c0,0,0,0,0,0c0,0,0,0,0,0c0,0,0,0,0,0c0,0.1,0,0.2-0.1,0.3c0,0.1,0,0.2-0.1,0.3c0,0.2,0,0.4,0,0.7
			c0,0.4,0.1,0.8,0.2,1.2c0.1,0.2,0.1,0.4,0.2,0.6c0.1,0.2,0.2,0.4,0.3,0.5c0,0,0.1,0.1,0.1,0.1c0,0.1,0.1,0.1,0.1,0.2
			c0.1,0.1,0.2,0.1,0.3,0.1c0.2,0,0.5,0,0.7-0.1c0.5-0.1,0.9-0.2,1.4-0.4c0.3-0.1,0.5-0.2,0.7-0.4c0,0,0,0,0-0.1
			c0.1,0,0.2-0.1,0.3-0.1c0,0,0,0,0,0c0.1,0,0.1-0.1,0.2-0.1C59.7,59.9,59.7,59.9,59.7,59.7C59.7,59.8,59.7,59.8,59.7,59.7z
			 M56.1,61C56.1,61,56.1,61,56.1,61C56.1,61,56.1,61,56.1,61C56.1,61,56.1,61,56.1,61z"/>
		<path class="st2" d="M51.9,78.2C51.9,78.2,51.8,78.2,51.9,78.2c-0.1-0.1-0.2-0.2-0.2-0.2c0,0-0.1-0.1-0.1-0.1c0,0,0,0-0.1,0
			c0,0,0,0-0.1,0c0,0,0,0,0,0c0,0,0,0,0,0.1c0,0,0,0,0,0c0,0.1,0,0.2,0.1,0.3c0,0.1,0,0.2,0.1,0.3c0,0.2,0,0.4-0.1,0.5
			c0,0,0,0.1,0,0.1c0,0,0.1,0,0.1,0c0,0,0,0,0,0c0,0,0,0,0,0c0.1,0,0.1,0.1,0.2,0.1c0,0,0.1,0,0.1-0.1
			C51.9,78.9,51.8,78.5,51.9,78.2z M51.5,78L51.5,78C51.5,78,51.6,78,51.5,78c0,0.1,0,0.1,0.1,0.1C51.6,78.1,51.6,78.1,51.5,78z"/>
	</g>
</g>
</svg>
