<?xml version="1.0" encoding="utf-8"?>
<!-- Generator: Adobe Illustrator 26.5.0, SVG Export Plug-In . SVG Version: 6.00 Build 0)  -->
<svg version="1.0" id="Layer_1" xmlns="http://www.w3.org/2000/svg" xmlns:xlink="http://www.w3.org/1999/xlink" x="0px" y="0px"
	 viewBox="0 0 140.1 140.1" style="enable-background:new 0 0 140.1 140.1;" xml:space="preserve">
<style type="text/css">
	.st0{fill:#DD223D;}
	.st1{fill:#2DBCE8;}
	.st2{fill:#1E1E1E;}
	.st3{fill:#7DE7FF;}
	.st4{fill:none;stroke:#000000;stroke-width:2;stroke-miterlimit:10;}
</style>
<g id="objects">
	<g>
		<path class="st0" d="M88.1,122H52c-4.1,0-7.4-3.3-7.4-7.4V25.4c0-4.1,3.3-7.4,7.4-7.4h36.1c4.1,0,7.4,3.3,7.4,7.4v89.2
			C95.5,118.7,92.2,122,88.1,122z"/>
		<path d="M52.1,121.2c-3.6,0-6.6-2.9-6.6-6.6V25.5c0-3.6,2.9-6.6,6.6-6.6h36.1c3.6,0,6.6,2.9,6.6,6.6v89.2c0,3.6-2.9,6.6-6.6,6.6
			H52.1z"/>
		<path class="st1" d="M93,25.4v89.2c0,2.7-2.2,4.9-4.9,4.9H52c-1.2,0-2.2-0.4-3.1-1.1c-1.1-0.9-1.8-2.3-1.8-3.8V25.4
			c0-2.7,2.2-4.9,4.9-4.9h8c0.3,0,0.6,0.2,0.6,0.5c0,0,0,0.1,0,0.1v0.6c0,1.5,1.2,2.7,2.7,2.7h13.5c1.5,0,2.7-1.2,2.7-2.7v-0.6
			c0-0.3,0.3-0.6,0.6-0.6h8c1.3,0,2.4,0.5,3.3,1.2C92.4,22.7,93,24,93,25.4z"/>
		<circle class="st2" cx="63.2" cy="21.9" r="0.8"/>
		<path class="st2" d="M72.1,22.7H68c-0.4,0-0.8-0.3-0.8-0.8l0,0c0-0.4,0.3-0.8,0.8-0.8h4.1c0.4,0,0.8,0.3,0.8,0.8l0,0
			C72.9,22.4,72.5,22.7,72.1,22.7z"/>
		<path class="st3" d="M91.4,21.8L47.1,66.1V34.6L60.6,21c0,0,0,0.1,0,0.1v0.6c0,1.5,1.2,2.7,2.7,2.7h13.5c1.5,0,2.7-1.2,2.7-2.7
			v-0.6c0-0.3,0.3-0.6,0.6-0.6h8C89.4,20.5,90.5,21,91.4,21.8z"/>
		<path class="st3" d="M93,74.4v31.5l-13.7,13.7H52c-1.2,0-2.2-0.4-3.1-1.1L93,74.4z"/>
		<polygon class="st3" points="93,25.8 93,46.9 47.1,92.8 47.1,71.7 		"/>
		<polygon class="st3" points="93,54.4 93,64.9 47.1,110.9 47.1,100.3 		"/>
		<g>
			<path d="M88.1,18.1c4.1,0,7.4,3.3,7.4,7.4v89.2c0,4.1-3.3,7.4-7.4,7.4H52c-4.1,0-7.4-3.3-7.4-7.4V25.4c0-4.1,3.3-7.4,7.4-7.4
				H88.1 M88.1,17.2H52c-4.5,0-8.2,3.7-8.2,8.2v89.2c0,4.5,3.7,8.2,8.2,8.2h36.1c4.5,0,8.2-3.7,8.2-8.2V25.4
				C96.3,20.9,92.6,17.2,88.1,17.2L88.1,17.2z"/>
		</g>
		<path class="st4" d="M52,121.2c-3.6,0-6.6-2.9-6.6-6.6V25.4c0-3.6,2.9-6.6,6.6-6.6h36.1c3.6,0,6.6,2.9,6.6,6.6v89.2
			c0,3.6-2.9,6.6-6.6,6.6H52z"/>
		<path class="st4" d="M93,25.4v89.2c0,2.7-2.2,4.9-4.9,4.9H52c-2.7,0-4.9-2.2-4.9-4.9V25.4c0-2.7,2.2-4.9,4.9-4.9h8
			c0.3,0,0.6,0.3,0.6,0.6v0.6c0,1.5,1.2,2.7,2.7,2.7h13.5c1.5,0,2.7-1.2,2.7-2.7v-0.6c0-0.3,0.3-0.6,0.6-0.6h8
			C90.8,20.5,93,22.7,93,25.4z"/>
		<path class="st4" d="M60,20.5c0.3,0,0.6,0.3,0.6,0.6v0.6c0,1.5,1.2,2.7,2.7,2.7h13.5c1.5,0,2.7-1.2,2.7-2.7v-0.6
			c0-0.3,0.3-0.6,0.6-0.6"/>
		<rect x="43.4" y="39" width="0.5" height="3.9"/>
		<rect x="43.4" y="46.8" width="0.5" height="7.6"/>
		<rect x="96.2" y="49" width="0.5" height="12.1"/>
		<circle class="st4" cx="63.2" cy="21.9" r="0.8"/>
		<path class="st4" d="M72.1,22.7H68c-0.4,0-0.8-0.3-0.8-0.8l0,0c0-0.4,0.3-0.8,0.8-0.8h4.1c0.4,0,0.8,0.3,0.8,0.8l0,0
			C72.9,22.4,72.5,22.7,72.1,22.7z"/>
	</g>
</g>
</svg>
