<?xml version="1.0" encoding="utf-8"?>
<!-- Generator: Adobe Illustrator 26.5.0, SVG Export Plug-In . SVG Version: 6.00 Build 0)  -->
<svg version="1.0" id="Layer_1" xmlns="http://www.w3.org/2000/svg" xmlns:xlink="http://www.w3.org/1999/xlink" x="0px" y="0px"
	 viewBox="0 0 59 48.8" style="enable-background:new 0 0 59 48.8;" xml:space="preserve">
<style type="text/css">
	.st0{fill:#FFFFFF;}
	.st1{fill:#F1F1F1;}
	.st2{fill:#E2E2E2;}
	.st3{fill:#D4D4D4;}
	.st4{fill:#C5C5C5;}
	.st5{fill:#B7B7B7;}
	.st6{fill:#A8A8A8;}
	.st7{fill:#9A9A9A;}
	.st8{fill:#8B8B8B;}
	.st9{fill:#7D7D7D;}
	.st10{fill:#6E6E6E;}
	.st11{fill:#606060;}
	.st12{fill:#919191;}
	.st13{fill:#3B3B3B;}
	.st14{opacity:0.3;fill:#3B3B3B;enable-background:new    ;}
	.st15{opacity:0.4;fill:#3B3B3B;enable-background:new    ;}
	.st16{fill:#333432;}
	.st17{fill:#6D6D6C;}
	.st18{fill:#494A47;}
	.st19{opacity:0.6;fill:#6E6E6E;enable-background:new    ;}
	.st20{opacity:0.6;fill:#3B3B3B;enable-background:new    ;}
	.st21{fill:#545454;}
	.st22{fill:#CAC6AB;}
</style>
<g>
	<g>
		<path class="st0" d="M6.8,37.4c0.1,0.2,0.2,0.5,0.4,0.7c2.1,3,5.4,3.5,7,3.7c1.2,0.2,2.4,0.3,3.7,0.3c0,0,0.1,0.1,0.1,0.1
			c0.7,1,1.5,1.9,2.6,2.6c0.1,0.1,0.2,0.2,0.4,0.2c2.5,1.4,5.5,2.2,9.1,2.2c0.1,0,0.1,0,0.2,0c2.7,0,5.2-0.3,7.6-0.9
			c0.1,0,0.2-0.1,0.4-0.1c1.9-0.7,3.6-1.6,5.1-2.6c1.2-0.8,2.1-1.8,2.6-2.5c0.1-0.1,0.2-0.2,0.2-0.3l0.1-0.1c0-0.1,0.1-0.2,0.2-0.2
			c0.7-1,1.2-2,1.7-2.9c0.5-0.9,0.9-1.7,1.4-2.3c0.2-0.3,0.5-0.6,0.7-0.8c0.3-0.3,0.7-0.6,1-0.8c0.6-0.4,1.2-0.9,1.8-1.5
			c1.2-1,2.5-2.3,3.4-4.3c0-0.1,0.1-0.2,0.1-0.3c0.1-0.4,0.3-0.8,0.4-1.3c0-0.2,0.1-0.4,0.1-0.6c0.1-1.3,0.1-2.5,0.1-3.7
			c0-0.4,0-0.9,0-1.3c0-2.1,0.1-4.9-1.6-7.6c-0.3-0.5-0.7-0.9-1.2-1.3c-0.3-0.2-0.6-0.3-0.9-0.5c-1.2-0.6-2.6-0.9-3.5-1.1l-0.1,0
			c-2.1-0.4-4.5-0.2-6.8,0.5c-0.2-0.6-0.5-1.3-0.9-1.9c-0.3-0.5-0.7-0.9-1.2-1.3C40.7,7.2,40.3,7,40,6.9c-1.2-0.6-2.5-0.9-3.4-1.1
			l-0.1,0c-2.5-0.5-5.5-0.1-8.1,1c-2.5,1.1-4.1,2.5-5.3,3.8c-0.2,0.2-0.5,0.5-0.7,0.7c-0.1,0.1-0.2,0.3-0.3,0.4
			c-0.1,0.2-0.2,0.3-0.4,0.5l0,0c-0.2,0.2-0.3,0.4-0.4,0.6l0,0c-0.7,0.5-1.3,1.3-1.6,2.2c0,0.1-0.1,0.1-0.1,0.2
			c-0.4,0.6-0.8,1.1-1.1,1.5c-0.4,0.3-0.7,0.7-1,1.2c-0.1,0.1-0.3,0.3-0.4,0.4c-1.1,0.9-2.3,1.7-3.5,2.5L13,21
			c-0.1,0-0.1,0.1-0.2,0.1c-0.3,0.2-0.6,0.5-1,0.7c-0.2,0.1-0.3,0.3-0.5,0.4c-0.2,0.2-0.4,0.4-0.7,0.6c-0.7,0.6-1.6,1.4-2.3,2.5
			c-0.6,0.9-1.1,1.7-1.4,2.6c0,0.1-0.1,0.2-0.1,0.2c0,0.1,0,0.1-0.1,0.2c-0.1,0.1-0.1,0.3-0.2,0.4c-0.2,0.6-0.4,1.1-0.5,1.7
			c-0.4,2.1-0.2,4.3,0.5,6.4c0,0.1,0.1,0.2,0.1,0.3L6.8,37.4z"/>
		<path class="st1" d="M6.4,37c0.1,0.2,0.2,0.5,0.4,0.7c2.1,3,5.4,3.5,7,3.7c1.2,0.2,2.4,0.3,3.7,0.3c0,0,0.1,0.1,0.1,0.1
			c0.7,1,1.5,1.9,2.6,2.6c0.1,0.1,0.2,0.2,0.4,0.2c2.5,1.4,5.5,2.2,9.1,2.2c0.1,0,0.1,0,0.2,0c2.7,0,5.2-0.3,7.6-0.9
			c0.1,0,0.2-0.1,0.4-0.1c1.9-0.7,3.6-1.6,5.1-2.6c1.2-0.8,2.1-1.8,2.6-2.5c0.1-0.1,0.2-0.2,0.2-0.3l0.1-0.1
			c0.1-0.1,0.1-0.2,0.2-0.2c0.7-1,1.2-2,1.7-2.9c0.5-0.9,0.9-1.7,1.4-2.3c0.2-0.3,0.5-0.6,0.7-0.8c0.3-0.3,0.7-0.6,1-0.8
			c0.6-0.4,1.2-0.9,1.8-1.5c1.2-1,2.5-2.3,3.4-4.3c0-0.1,0.1-0.2,0.1-0.3c0.1-0.4,0.3-0.8,0.4-1.3c0-0.2,0.1-0.4,0.1-0.6
			c0.1-1.3,0.1-2.5,0.1-3.7c0-0.4,0-0.9,0-1.3c0-2.1,0.1-4.9-1.6-7.6c-0.3-0.5-0.7-0.9-1.2-1.3c-0.3-0.2-0.6-0.3-0.9-0.5
			c-1.2-0.6-2.6-0.9-3.5-1.1l-0.1,0c-2.1-0.4-4.5-0.2-6.8,0.5c-0.2-0.6-0.5-1.3-0.9-1.9c-0.3-0.5-0.7-0.9-1.2-1.3
			c-0.3-0.2-0.6-0.3-0.9-0.5c-1.2-0.6-2.5-0.9-3.4-1.1l-0.1,0c-2.5-0.5-5.5-0.1-8.1,1C25.6,7.6,24,9,22.8,10.3
			c-0.2,0.2-0.5,0.5-0.7,0.7c-0.1,0.1-0.2,0.3-0.3,0.4c-0.1,0.2-0.2,0.3-0.4,0.5l0,0c-0.2,0.2-0.3,0.4-0.4,0.6l0,0
			c-0.7,0.5-1.3,1.3-1.6,2.2c0,0.1-0.1,0.1-0.1,0.2c-0.4,0.6-0.8,1.1-1.1,1.5c-0.4,0.3-0.7,0.7-1,1.2c-0.1,0.1-0.3,0.3-0.4,0.4
			c-1.1,0.9-2.3,1.7-3.5,2.5l-0.4,0.3c-0.1,0-0.1,0.1-0.2,0.1c-0.3,0.2-0.6,0.5-1,0.7c-0.2,0.1-0.3,0.3-0.5,0.4
			c-0.2,0.2-0.4,0.4-0.7,0.6C9.6,23.1,8.7,23.9,8,25c-0.6,0.9-1.1,1.7-1.4,2.6c0,0.1-0.1,0.2-0.1,0.2c0,0.1,0,0.1-0.1,0.2
			c-0.1,0.1-0.1,0.3-0.2,0.4C6,29,5.9,29.6,5.8,30.1c-0.4,2.1-0.2,4.3,0.5,6.4c0,0.1,0.1,0.2,0.1,0.3L6.4,37z"/>
		<path class="st2" d="M6.1,36.6c0.1,0.2,0.2,0.5,0.4,0.7c2.1,3,5.4,3.5,7,3.7c1.2,0.2,2.4,0.3,3.7,0.3c0,0,0.1,0.1,0.1,0.1
			c0.7,1,1.5,1.9,2.6,2.6c0.1,0.1,0.2,0.2,0.4,0.2c2.5,1.4,5.5,2.2,9.1,2.2c0.1,0,0.1,0,0.2,0c2.7,0,5.2-0.3,7.6-0.9
			c0.1,0,0.2-0.1,0.4-0.1c1.9-0.7,3.6-1.6,5.1-2.6c1.2-0.8,2.1-1.8,2.6-2.5c0.1-0.1,0.2-0.2,0.2-0.3l0.1-0.1
			c0.1-0.1,0.1-0.2,0.2-0.2c0.7-1,1.2-2,1.7-2.9c0.5-0.9,0.9-1.7,1.4-2.3c0.2-0.3,0.5-0.6,0.7-0.8c0.3-0.3,0.7-0.6,1-0.8
			c0.6-0.4,1.2-0.9,1.8-1.5c1.2-1,2.5-2.3,3.4-4.3c0-0.1,0.1-0.2,0.1-0.3c0.1-0.4,0.3-0.8,0.4-1.3c0-0.2,0.1-0.4,0.1-0.6
			c0.1-1.3,0.1-2.5,0.1-3.7c0-0.4,0-0.9,0-1.3c0-2.1,0.1-4.9-1.6-7.6c-0.3-0.5-0.7-0.9-1.2-1.3c-0.3-0.2-0.6-0.3-0.9-0.5
			c-1.2-0.6-2.6-0.9-3.5-1.1l-0.1,0c-2.1-0.4-4.5-0.2-6.8,0.5c-0.2-0.6-0.5-1.3-0.9-1.9c-0.3-0.5-0.7-0.9-1.2-1.3
			c-0.3-0.2-0.6-0.3-0.9-0.5c-1.2-0.6-2.5-0.9-3.4-1.1l-0.1,0c-2.5-0.5-5.5-0.1-8.1,1c-2.5,1.1-4.1,2.5-5.3,3.8
			c-0.2,0.2-0.5,0.5-0.7,0.7c-0.1,0.1-0.2,0.3-0.3,0.4c-0.1,0.2-0.2,0.3-0.4,0.5l0,0c-0.2,0.2-0.3,0.4-0.4,0.6l0,0
			c-0.7,0.5-1.3,1.3-1.6,2.2c0,0.1-0.1,0.1-0.1,0.2C18.4,15,18,15.5,17.6,16c-0.4,0.3-0.7,0.7-1,1.2c-0.1,0.1-0.3,0.3-0.4,0.4
			c-1.1,0.9-2.3,1.7-3.5,2.5l-0.4,0.3c-0.1,0-0.1,0.1-0.2,0.1c-0.3,0.2-0.6,0.5-1,0.7c-0.2,0.1-0.3,0.3-0.5,0.4
			c-0.2,0.2-0.4,0.4-0.7,0.6c-0.7,0.6-1.6,1.4-2.3,2.5c-0.6,0.9-1.1,1.7-1.4,2.6c0,0.1-0.1,0.2-0.1,0.2c0,0.1,0,0.1-0.1,0.2
			C6,27.8,5.9,28,5.9,28.1c-0.2,0.6-0.4,1.1-0.5,1.7c-0.4,2.1-0.2,4.3,0.5,6.4c0,0.1,0.1,0.2,0.1,0.3L6.1,36.6z"/>
		<path class="st3" d="M5.7,36.3c0.1,0.2,0.2,0.5,0.4,0.7c2.1,3,5.4,3.5,7,3.7c1.2,0.2,2.4,0.3,3.7,0.3c0,0,0.1,0.1,0.1,0.1
			c0.7,1,1.5,1.9,2.6,2.6c0.1,0.1,0.2,0.2,0.4,0.2c2.5,1.4,5.5,2.2,9.1,2.2c0.1,0,0.1,0,0.2,0c2.7,0,5.2-0.3,7.6-0.9
			c0.1,0,0.2-0.1,0.4-0.1c1.9-0.7,3.6-1.6,5.1-2.6c1.2-0.8,2.1-1.8,2.6-2.5c0.1-0.1,0.2-0.2,0.2-0.3l0.1-0.1c0-0.1,0.1-0.2,0.2-0.2
			c0.7-1,1.2-2,1.7-2.9c0.5-0.9,0.9-1.7,1.4-2.3c0.2-0.3,0.5-0.6,0.7-0.8c0.3-0.3,0.7-0.6,1-0.8c0.6-0.4,1.2-0.9,1.8-1.5
			c1.2-1,2.5-2.3,3.4-4.3c0-0.1,0.1-0.2,0.1-0.3c0.1-0.4,0.3-0.8,0.4-1.3c0-0.2,0.1-0.4,0.1-0.6c0.1-1.3,0.1-2.5,0.1-3.7
			c0-0.4,0-0.9,0-1.3c0-2.1,0.1-4.9-1.6-7.6c-0.3-0.5-0.7-0.9-1.2-1.3c-0.3-0.2-0.6-0.3-0.9-0.5c-1.2-0.6-2.6-0.9-3.5-1.1l-0.1,0
			c-2.1-0.4-4.5-0.2-6.8,0.5c-0.2-0.6-0.5-1.3-0.9-1.9c-0.3-0.5-0.7-0.9-1.2-1.3c-0.3-0.2-0.6-0.3-0.9-0.5c-1.2-0.6-2.5-0.9-3.4-1.1
			l-0.1,0c-2.5-0.5-5.5-0.1-8.1,1c-2.5,1.1-4.1,2.5-5.3,3.8c-0.2,0.2-0.5,0.5-0.7,0.7c-0.1,0.1-0.2,0.3-0.3,0.4
			c-0.1,0.2-0.2,0.3-0.4,0.5l0,0c-0.2,0.2-0.3,0.4-0.4,0.6l0,0c-0.7,0.5-1.3,1.3-1.6,2.2c0,0.1-0.1,0.1-0.1,0.2
			c-0.4,0.6-0.8,1.1-1.1,1.5c-0.4,0.3-0.7,0.7-1,1.2c-0.1,0.1-0.3,0.3-0.4,0.4c-1.1,0.9-2.3,1.7-3.5,2.5l-0.4,0.3
			c-0.1,0-0.1,0.1-0.2,0.1c-0.3,0.2-0.6,0.5-1,0.7c-0.2,0.1-0.3,0.3-0.5,0.4c-0.2,0.2-0.4,0.4-0.7,0.6c-0.7,0.6-1.6,1.4-2.3,2.5
			c-0.6,0.9-1.1,1.7-1.4,2.6c0,0.1-0.1,0.2-0.1,0.2c0,0.1,0,0.1-0.1,0.2c-0.1,0.1-0.1,0.3-0.2,0.4c-0.2,0.6-0.4,1.1-0.5,1.7
			c-0.4,2.1-0.2,4.3,0.5,6.4c0,0.1,0.1,0.2,0.1,0.3L5.7,36.3z"/>
		<path class="st4" d="M5.3,35.9c0.1,0.2,0.2,0.5,0.4,0.7c2.1,3,5.4,3.5,7,3.7c1.2,0.2,2.4,0.3,3.7,0.3c0,0,0.1,0.1,0.1,0.1
			c0.7,1,1.5,1.9,2.6,2.6c0.1,0.1,0.2,0.2,0.4,0.2c2.5,1.4,5.5,2.2,9.1,2.2c0.1,0,0.1,0,0.2,0c2.7,0,5.2-0.3,7.6-0.9
			c0.1,0,0.2-0.1,0.4-0.1c1.9-0.7,3.6-1.6,5.1-2.6c1.2-0.8,2.1-1.8,2.6-2.5c0.1-0.1,0.2-0.2,0.2-0.3l0.1-0.1c0-0.1,0.1-0.2,0.2-0.2
			c0.7-1,1.2-2,1.7-2.9c0.5-0.9,0.9-1.7,1.4-2.3c0.2-0.3,0.5-0.6,0.7-0.8c0.3-0.3,0.7-0.6,1-0.8c0.6-0.4,1.2-0.9,1.8-1.5
			c1.2-1,2.5-2.3,3.4-4.3c0-0.1,0.1-0.2,0.1-0.3c0.1-0.4,0.3-0.8,0.4-1.3c0-0.2,0.1-0.4,0.1-0.6c0.1-1.3,0.1-2.5,0.1-3.7
			c0-0.4,0-0.9,0-1.3c0-2.1,0.1-4.9-1.6-7.6c-0.3-0.5-0.7-0.9-1.2-1.3c-0.3-0.2-0.6-0.3-0.9-0.5c-1.2-0.6-2.6-0.9-3.5-1.1l-0.1,0
			c-2.1-0.4-4.5-0.2-6.8,0.5c-0.2-0.6-0.5-1.3-0.9-1.9c-0.3-0.5-0.7-0.9-1.2-1.3c-0.3-0.2-0.6-0.3-0.9-0.5c-1.2-0.6-2.5-0.9-3.4-1.1
			l-0.1,0c-2.5-0.5-5.5-0.1-8.1,1c-2.5,1.1-4.1,2.5-5.3,3.8c-0.2,0.2-0.5,0.5-0.7,0.7c-0.1,0.1-0.2,0.3-0.3,0.4
			c-0.1,0.2-0.2,0.3-0.4,0.5l0,0c-0.2,0.2-0.3,0.4-0.4,0.6l0,0c-0.7,0.5-1.3,1.3-1.6,2.2c0,0.1-0.1,0.1-0.1,0.2
			c-0.4,0.6-0.8,1.1-1.1,1.5c-0.4,0.3-0.7,0.7-1,1.2c-0.1,0.1-0.3,0.3-0.4,0.4c-1.1,0.9-2.3,1.7-3.5,2.5l-0.4,0.3
			c-0.1,0-0.1,0.1-0.2,0.1c-0.3,0.2-0.6,0.5-1,0.7c-0.2,0.1-0.3,0.3-0.5,0.4c-0.2,0.2-0.4,0.4-0.7,0.6c-0.7,0.6-1.6,1.4-2.3,2.5
			c-0.6,0.9-1.1,1.7-1.4,2.6c0,0.1-0.1,0.2-0.1,0.2c0,0.1,0,0.1-0.1,0.2c-0.1,0.1-0.1,0.3-0.2,0.4c-0.2,0.6-0.4,1.1-0.5,1.7
			c-0.4,2.1-0.2,4.3,0.5,6.4c0,0.1,0.1,0.2,0.1,0.3L5.3,35.9z"/>
		<path class="st5" d="M5,35.5c0.1,0.2,0.2,0.5,0.4,0.7c2.1,3,5.4,3.5,7,3.7c1.2,0.2,2.4,0.3,3.7,0.3c0,0,0.1,0.1,0.1,0.1
			c0.7,1,1.5,1.9,2.6,2.6c0.1,0.1,0.2,0.2,0.4,0.2c2.5,1.4,5.5,2.2,9.1,2.2c0.1,0,0.1,0,0.2,0c2.7,0,5.2-0.3,7.6-0.9
			c0.1,0,0.2-0.1,0.4-0.1c1.9-0.7,3.6-1.6,5.1-2.6c1.2-0.8,2.1-1.8,2.6-2.5c0.1-0.1,0.2-0.2,0.2-0.3l0.1-0.1
			c0.1-0.1,0.1-0.2,0.2-0.2c0.7-1,1.2-2,1.7-2.9c0.5-0.9,0.9-1.7,1.4-2.3c0.2-0.3,0.5-0.6,0.7-0.8c0.3-0.3,0.7-0.6,1-0.8
			c0.6-0.4,1.2-0.9,1.8-1.5c1.2-1,2.5-2.3,3.4-4.3c0-0.1,0.1-0.2,0.1-0.3c0.1-0.4,0.3-0.8,0.4-1.3c0-0.2,0.1-0.4,0.1-0.6
			c0.1-1.3,0.1-2.5,0.1-3.7c0-0.4,0-0.9,0-1.3c0-2.1,0.1-4.9-1.6-7.6c-0.3-0.5-0.7-0.9-1.2-1.3c-0.3-0.2-0.6-0.3-0.9-0.5
			c-1.2-0.6-2.6-0.9-3.5-1.1l-0.1,0c-2.1-0.4-4.5-0.2-6.8,0.5c-0.2-0.6-0.5-1.3-0.9-1.9c-0.3-0.5-0.7-0.9-1.2-1.3
			c-0.3-0.2-0.6-0.3-0.9-0.5C37,4.4,35.7,4.2,34.8,4l-0.1,0c-2.5-0.5-5.5-0.1-8.1,1c-2.5,1.1-4.1,2.5-5.3,3.8
			c-0.2,0.2-0.5,0.5-0.7,0.7c-0.1,0.1-0.2,0.3-0.3,0.4c-0.1,0.2-0.2,0.3-0.4,0.5l0,0c-0.2,0.2-0.3,0.4-0.4,0.6l0,0
			c-0.7,0.5-1.3,1.3-1.6,2.2c0,0.1-0.1,0.1-0.1,0.2c-0.4,0.6-0.8,1.1-1.1,1.5c-0.4,0.3-0.7,0.7-1,1.2c-0.1,0.1-0.3,0.3-0.4,0.4
			c-1.1,0.9-2.3,1.7-3.5,2.5l-0.4,0.3c-0.1,0-0.1,0.1-0.2,0.1c-0.3,0.2-0.6,0.5-1,0.7c-0.2,0.1-0.3,0.3-0.5,0.4
			c-0.2,0.2-0.4,0.4-0.7,0.6c-0.7,0.6-1.6,1.4-2.3,2.5c-0.6,0.9-1.1,1.7-1.4,2.6C5,26.2,5,26.3,5,26.4c0,0.1,0,0.1-0.1,0.2
			c-0.1,0.1-0.1,0.3-0.2,0.4c-0.2,0.6-0.4,1.1-0.5,1.7C3.9,30.8,4.1,33,4.8,35c0,0.1,0.1,0.2,0.1,0.3L5,35.5z"/>
		<path class="st6" d="M4.6,35.2c0.1,0.2,0.2,0.5,0.4,0.7c2.1,3,5.4,3.5,7,3.7c1.2,0.2,2.4,0.3,3.7,0.3c0,0,0.1,0.1,0.1,0.1
			c0.7,1,1.5,1.9,2.6,2.6c0.1,0.1,0.2,0.2,0.4,0.2c2.5,1.4,5.5,2.2,9.1,2.2c0.1,0,0.1,0,0.2,0c2.7,0,5.2-0.3,7.6-0.9
			c0.1,0,0.2-0.1,0.4-0.1c1.9-0.7,3.6-1.6,5.1-2.6c1.2-0.8,2.1-1.8,2.6-2.5c0.1-0.1,0.2-0.2,0.2-0.3l0.1-0.1
			c0.1-0.1,0.1-0.2,0.2-0.2c0.7-1,1.2-2,1.7-2.9c0.5-0.9,0.9-1.7,1.4-2.3c0.2-0.3,0.5-0.6,0.7-0.8c0.3-0.3,0.7-0.6,1-0.8
			c0.6-0.4,1.2-0.9,1.8-1.5c1.2-1,2.5-2.3,3.4-4.3c0-0.1,0.1-0.2,0.1-0.3c0.1-0.4,0.3-0.8,0.4-1.3c0-0.2,0.1-0.4,0.1-0.6
			c0.1-1.3,0.1-2.5,0.1-3.7c0-0.4,0-0.9,0-1.3c0-2.1,0.1-4.9-1.6-7.6c-0.3-0.5-0.7-0.9-1.2-1.3c-0.3-0.2-0.6-0.3-0.9-0.5
			c-1.2-0.6-2.6-0.9-3.5-1.1l-0.1,0c-2.1-0.4-4.5-0.2-6.8,0.5c-0.2-0.6-0.5-1.3-0.9-1.9c-0.3-0.5-0.7-0.9-1.2-1.3
			c-0.3-0.2-0.6-0.3-0.9-0.5c-1.2-0.6-2.5-0.9-3.4-1.1l-0.1,0c-2.5-0.5-5.5-0.1-8.1,1c-2.5,1.1-4.1,2.5-5.3,3.8
			c-0.2,0.2-0.5,0.5-0.7,0.7c-0.1,0.1-0.2,0.3-0.3,0.4c-0.1,0.2-0.2,0.3-0.4,0.5l0,0c-0.2,0.2-0.3,0.4-0.4,0.6l0,0
			c-0.7,0.5-1.3,1.3-1.6,2.2c0,0.1-0.1,0.1-0.1,0.2c-0.4,0.6-0.8,1.1-1.1,1.5c-0.4,0.3-0.7,0.7-1,1.2c-0.1,0.1-0.3,0.3-0.4,0.4
			c-1.1,0.9-2.3,1.7-3.5,2.5l-0.4,0.3c-0.1,0-0.1,0.1-0.2,0.1c-0.3,0.2-0.6,0.5-1,0.7c-0.2,0.1-0.3,0.3-0.5,0.4
			c-0.2,0.2-0.4,0.4-0.7,0.6c-0.7,0.6-1.6,1.4-2.3,2.5c-0.6,0.9-1.1,1.7-1.4,2.6c0,0.1-0.1,0.2-0.1,0.2c0,0.1,0,0.1-0.1,0.2
			c-0.1,0.1-0.1,0.3-0.2,0.4c-0.2,0.6-0.4,1.1-0.5,1.7c-0.4,2.1-0.2,4.3,0.5,6.4c0,0.1,0.1,0.2,0.1,0.3L4.6,35.2z"/>
		<path class="st7" d="M4.2,34.8c0.1,0.2,0.2,0.5,0.4,0.7c2.1,3,5.4,3.5,7,3.7c1.2,0.2,2.4,0.3,3.7,0.3c0,0,0.1,0.1,0.1,0.1
			c0.7,1,1.5,1.9,2.6,2.6c0.1,0.1,0.2,0.2,0.4,0.2c2.5,1.4,5.5,2.2,9.1,2.2c0.1,0,0.1,0,0.2,0c2.7,0,5.2-0.3,7.6-0.9
			c0.1,0,0.2-0.1,0.4-0.1c1.9-0.7,3.6-1.6,5.1-2.6c1.2-0.8,2.1-1.8,2.6-2.5c0.1-0.1,0.2-0.2,0.2-0.3l0.1-0.1
			c0.1-0.1,0.1-0.2,0.2-0.2c0.7-1,1.2-2,1.7-2.9c0.5-0.9,0.9-1.7,1.4-2.3c0.2-0.3,0.5-0.6,0.7-0.8c0.3-0.3,0.7-0.6,1-0.8
			c0.6-0.4,1.2-0.9,1.8-1.5c1.2-1,2.5-2.3,3.4-4.3c0-0.1,0.1-0.2,0.1-0.3c0.1-0.4,0.3-0.8,0.4-1.3c0-0.2,0.1-0.4,0.1-0.6
			c0.1-1.3,0.1-2.5,0.1-3.7c0-0.4,0-0.9,0-1.3c0-2.1,0.1-4.9-1.6-7.6c-0.3-0.5-0.7-0.9-1.2-1.3c-0.3-0.2-0.6-0.3-0.9-0.5
			c-1.2-0.6-2.6-0.9-3.5-1.1l-0.1,0C45.2,7,42.8,7.2,40.5,8c-0.2-0.6-0.5-1.3-0.9-1.9c-0.3-0.5-0.7-0.9-1.2-1.3
			c-0.3-0.2-0.6-0.3-0.9-0.5c-1.2-0.6-2.5-0.9-3.4-1.1l-0.1,0c-2.5-0.5-5.5-0.1-8.1,1c-2.5,1.1-4.1,2.5-5.3,3.8
			c-0.2,0.2-0.5,0.5-0.7,0.7c-0.1,0.1-0.2,0.3-0.3,0.4c-0.1,0.2-0.2,0.3-0.4,0.5l0,0c-0.2,0.2-0.3,0.4-0.4,0.6l0,0
			c-0.7,0.5-1.3,1.3-1.6,2.2c0,0.1-0.1,0.1-0.1,0.2c-0.4,0.6-0.8,1.1-1.1,1.5c-0.4,0.3-0.7,0.7-1,1.2c-0.1,0.1-0.3,0.3-0.4,0.4
			c-1.1,0.9-2.3,1.7-3.5,2.5l-0.4,0.3c-0.1,0-0.1,0.1-0.2,0.1c-0.3,0.2-0.6,0.5-1,0.7c-0.2,0.1-0.3,0.3-0.5,0.4
			c-0.2,0.2-0.4,0.4-0.7,0.6c-0.7,0.6-1.6,1.4-2.3,2.5c-0.6,0.9-1.1,1.7-1.4,2.6c0,0.1-0.1,0.2-0.1,0.2c0,0.1,0,0.1-0.1,0.2
			C4.1,26,4.1,26.1,4,26.2c-0.2,0.6-0.4,1.1-0.5,1.7c-0.4,2.1-0.2,4.3,0.5,6.4c0,0.1,0.1,0.2,0.1,0.3L4.2,34.8z"/>
		<path class="st8" d="M3.9,34.4c0.1,0.2,0.2,0.5,0.4,0.7c2.1,3,5.4,3.5,7,3.7c1.2,0.2,2.4,0.3,3.7,0.3c0,0,0.1,0.1,0.1,0.1
			c0.7,1,1.5,1.9,2.6,2.6c0.1,0.1,0.2,0.2,0.4,0.2c2.5,1.4,5.5,2.2,9.1,2.2c0.1,0,0.1,0,0.2,0c2.7,0,5.2-0.3,7.6-0.9
			c0.1,0,0.2-0.1,0.4-0.1c1.9-0.7,3.6-1.6,5.1-2.6c1.2-0.8,2.1-1.8,2.6-2.5c0.1-0.1,0.2-0.2,0.2-0.3l0.1-0.1c0-0.1,0.1-0.2,0.2-0.2
			c0.7-1,1.2-2,1.7-2.9c0.5-0.9,0.9-1.7,1.4-2.3c0.2-0.3,0.5-0.6,0.7-0.8c0.3-0.3,0.7-0.6,1-0.8c0.6-0.4,1.2-0.9,1.8-1.5
			c1.2-1,2.5-2.3,3.4-4.3c0-0.1,0.1-0.2,0.1-0.3c0.1-0.4,0.3-0.8,0.4-1.3c0-0.2,0.1-0.4,0.1-0.6c0.1-1.3,0.1-2.5,0.1-3.7
			c0-0.4,0-0.9,0-1.3c0-2.1,0.1-4.9-1.6-7.6c-0.3-0.5-0.7-0.9-1.2-1.3c-0.3-0.2-0.6-0.3-0.9-0.5c-1.2-0.6-2.6-0.9-3.5-1.1l-0.1,0
			c-2.1-0.4-4.5-0.2-6.8,0.5c-0.2-0.6-0.5-1.3-0.9-1.9c-0.3-0.5-0.7-0.9-1.2-1.3c-0.3-0.2-0.6-0.3-0.9-0.5c-1.2-0.6-2.5-0.9-3.4-1.1
			l-0.1,0c-2.5-0.5-5.5-0.1-8.1,1c-2.5,1.1-4.1,2.5-5.3,3.8c-0.2,0.2-0.5,0.5-0.7,0.7c-0.1,0.1-0.2,0.3-0.3,0.4
			C19,9,18.9,9.1,18.8,9.3l0,0c-0.2,0.2-0.3,0.4-0.4,0.6l0,0c-0.7,0.5-1.3,1.3-1.6,2.2c0,0.1-0.1,0.1-0.1,0.2
			c-0.4,0.6-0.8,1.1-1.1,1.5c-0.4,0.3-0.7,0.7-1,1.2c-0.1,0.1-0.3,0.3-0.4,0.4c-1.1,0.9-2.3,1.7-3.5,2.5L10,18.1
			c-0.1,0-0.1,0.1-0.2,0.1c-0.3,0.2-0.6,0.5-1,0.7c-0.2,0.1-0.3,0.3-0.5,0.4c-0.2,0.2-0.4,0.4-0.7,0.6c-0.7,0.6-1.6,1.4-2.3,2.5
			c-0.6,0.9-1.1,1.7-1.4,2.6c0,0.1-0.1,0.2-0.1,0.2c0,0.1,0,0.1-0.1,0.2c-0.1,0.1-0.1,0.3-0.2,0.4c-0.2,0.6-0.4,1.1-0.5,1.7
			c-0.4,2.1-0.2,4.3,0.5,6.4c0,0.1,0.1,0.2,0.1,0.3L3.9,34.4z"/>
		<path class="st9" d="M3.5,34.1c0.1,0.2,0.2,0.5,0.4,0.7c2.1,3,5.4,3.5,7,3.7c1.2,0.2,2.4,0.3,3.7,0.3c0,0,0.1,0.1,0.1,0.1
			c0.7,1,1.5,1.9,2.6,2.6c0.1,0.1,0.2,0.2,0.4,0.2c2.5,1.4,5.5,2.2,9.1,2.2c0.1,0,0.1,0,0.2,0c2.7,0,5.2-0.3,7.6-0.9
			c0.1,0,0.2-0.1,0.4-0.1c1.9-0.7,3.6-1.6,5.1-2.6c1.2-0.8,2.1-1.8,2.6-2.5c0.1-0.1,0.2-0.2,0.2-0.3l0.1-0.1c0-0.1,0.1-0.2,0.2-0.2
			c0.7-1,1.2-2,1.7-2.9c0.5-0.9,0.9-1.7,1.4-2.3c0.2-0.3,0.5-0.6,0.7-0.9c0.3-0.3,0.7-0.6,1-0.8c0.6-0.4,1.2-0.9,1.8-1.5
			c1.2-1,2.5-2.3,3.4-4.3c0-0.1,0.1-0.2,0.1-0.3c0.1-0.4,0.3-0.8,0.4-1.3c0-0.2,0.1-0.4,0.1-0.6c0.1-1.3,0.1-2.5,0.1-3.7
			c0-0.4,0-0.9,0-1.3c0-2.1,0.1-4.9-1.6-7.6c-0.3-0.5-0.7-0.9-1.2-1.3c-0.3-0.2-0.6-0.3-0.9-0.5c-1.2-0.6-2.6-0.9-3.5-1.1l-0.1,0
			c-2.1-0.4-4.5-0.2-6.8,0.5c-0.2-0.6-0.5-1.3-0.9-1.9c-0.3-0.5-0.7-0.9-1.2-1.3c-0.3-0.2-0.6-0.3-0.9-0.5c-1.2-0.6-2.5-0.9-3.4-1.1
			l-0.1,0c-2.5-0.5-5.5-0.1-8.1,1c-2.5,1.1-4.1,2.5-5.3,3.8c-0.2,0.2-0.5,0.5-0.7,0.7c-0.1,0.1-0.2,0.3-0.3,0.4
			c-0.1,0.2-0.2,0.3-0.4,0.5l0,0c-0.2,0.2-0.3,0.4-0.4,0.6l0,0c-0.7,0.5-1.3,1.3-1.6,2.2c0,0.1-0.1,0.1-0.1,0.2
			c-0.4,0.6-0.8,1.1-1.1,1.5c-0.4,0.3-0.7,0.7-1,1.2c-0.1,0.1-0.3,0.3-0.4,0.4c-1.1,0.9-2.3,1.7-3.5,2.5l-0.4,0.3
			c-0.1,0-0.1,0.1-0.2,0.1c-0.3,0.2-0.6,0.5-1,0.7c-0.2,0.1-0.3,0.3-0.5,0.4c-0.2,0.2-0.4,0.4-0.7,0.6C6.7,20.2,5.8,21,5,22.1
			C4.5,23,4,23.8,3.6,24.7c0,0.1-0.1,0.2-0.1,0.2c0,0.1,0,0.1-0.1,0.2c-0.1,0.1-0.1,0.3-0.2,0.4c-0.2,0.6-0.4,1.1-0.5,1.7
			c-0.4,2.1-0.2,4.3,0.5,6.4c0,0.1,0.1,0.2,0.1,0.3L3.5,34.1z"/>
		<path class="st10" d="M3.1,33.7c0.1,0.2,0.2,0.5,0.4,0.7c2.1,3,5.4,3.5,7,3.7c1.2,0.2,2.4,0.3,3.7,0.3c0,0,0.1,0.1,0.1,0.1
			c0.7,1,1.5,1.9,2.6,2.6c0.1,0.1,0.2,0.2,0.4,0.2c2.5,1.4,5.5,2.2,9.1,2.2c0.1,0,0.1,0,0.2,0c2.7,0,5.2-0.3,7.6-0.9
			c0.1,0,0.2-0.1,0.4-0.1c1.9-0.7,3.6-1.6,5.1-2.6c1.2-0.8,2.1-1.8,2.6-2.5c0.1-0.1,0.2-0.2,0.2-0.3l0.1-0.1
			c0.1-0.1,0.1-0.2,0.2-0.2c0.7-1,1.2-2,1.7-2.9c0.5-0.9,0.9-1.7,1.4-2.3c0.2-0.3,0.5-0.6,0.7-0.8c0.3-0.3,0.7-0.6,1-0.8
			c0.6-0.4,1.2-0.9,1.8-1.5c1.2-1,2.5-2.3,3.4-4.3c0-0.1,0.1-0.2,0.1-0.3c0.1-0.4,0.3-0.8,0.4-1.3c0-0.2,0.1-0.4,0.1-0.6
			c0.1-1.3,0.1-2.5,0.1-3.7c0-0.4,0-0.9,0-1.3c0-2.1,0.1-4.9-1.6-7.6c-0.3-0.5-0.7-0.9-1.2-1.3c-0.3-0.2-0.6-0.3-0.9-0.5
			c-1.2-0.6-2.6-0.9-3.5-1.1l-0.1,0c-2.1-0.4-4.5-0.2-6.8,0.5c-0.2-0.6-0.5-1.3-0.9-1.9c-0.3-0.5-0.7-0.9-1.2-1.3
			c-0.3-0.2-0.6-0.3-0.9-0.5c-1.2-0.6-2.5-0.9-3.4-1.1l-0.1,0c-2.5-0.5-5.5-0.1-8.1,1c-2.5,1.1-4.1,2.5-5.3,3.8
			c-0.2,0.2-0.5,0.5-0.7,0.7c-0.1,0.1-0.2,0.3-0.3,0.4c-0.1,0.2-0.2,0.3-0.4,0.5l0,0c-0.2,0.2-0.3,0.4-0.4,0.6l0,0
			c-0.7,0.5-1.3,1.3-1.6,2.2c0,0.1-0.1,0.1-0.1,0.2c-0.4,0.6-0.8,1.1-1.1,1.5c-0.4,0.3-0.7,0.7-1,1.2c-0.1,0.1-0.3,0.3-0.4,0.4
			c-1.1,0.9-2.3,1.7-3.5,2.5l-0.4,0.3c-0.1,0-0.1,0.1-0.2,0.1c-0.3,0.2-0.6,0.5-1,0.7c-0.2,0.1-0.3,0.3-0.5,0.4
			C7.5,18.7,7.3,19,7,19.2c-0.7,0.6-1.6,1.4-2.3,2.5c-0.6,0.9-1.1,1.7-1.4,2.6c0,0.1-0.1,0.2-0.1,0.2c0,0.1,0,0.1-0.1,0.2
			C3,24.9,3,25,2.9,25.2c-0.2,0.6-0.4,1.1-0.5,1.7c-0.4,2.1-0.2,4.3,0.5,6.4C3,33.3,3,33.4,3,33.5L3.1,33.7z"/>
		<path class="st11" d="M2.8,33.3C2.9,33.6,3,33.8,3.2,34c2.1,3,5.4,3.5,7,3.7c1.2,0.2,2.4,0.3,3.7,0.3c0,0,0.1,0.1,0.1,0.1
			c0.7,1,1.5,1.9,2.6,2.6c0.1,0.1,0.2,0.2,0.4,0.2c2.5,1.4,5.5,2.2,9.1,2.2c0.1,0,0.1,0,0.2,0c2.7,0,5.2-0.3,7.6-0.9
			c0.1,0,0.2-0.1,0.4-0.1c1.9-0.7,3.6-1.6,5.1-2.6c1.2-0.8,2.1-1.8,2.6-2.5c0.1-0.1,0.2-0.2,0.2-0.3l0.1-0.1
			c0.1-0.1,0.1-0.2,0.2-0.2c0.7-1,1.2-2,1.7-2.9c0.5-0.9,0.9-1.7,1.4-2.3c0.2-0.3,0.5-0.6,0.7-0.8c0.3-0.3,0.7-0.6,1-0.8
			c0.6-0.4,1.2-0.9,1.8-1.5c1.2-1,2.5-2.3,3.4-4.3c0-0.1,0.1-0.2,0.1-0.3c0.1-0.4,0.3-0.8,0.4-1.3c0-0.2,0.1-0.4,0.1-0.6
			c0.1-1.3,0.1-2.5,0.1-3.7c0-0.4,0-0.9,0-1.3c0-2.1,0.1-4.9-1.6-7.6c-0.3-0.5-0.7-0.9-1.2-1.3c-0.3-0.2-0.6-0.3-0.9-0.5
			c-1.2-0.6-2.6-0.9-3.5-1.1l-0.1,0c-2.1-0.4-4.5-0.2-6.8,0.5c-0.2-0.6-0.5-1.3-0.9-1.9c-0.3-0.5-0.7-0.9-1.2-1.3
			C36.6,3.2,36.3,3,36,2.8c-1.2-0.6-2.5-0.9-3.4-1.1l-0.1,0c-2.5-0.5-5.5-0.1-8.1,1c-2.5,1.1-4.1,2.5-5.3,3.8
			c-0.2,0.2-0.5,0.5-0.7,0.7c-0.1,0.1-0.2,0.3-0.3,0.4c-0.1,0.2-0.2,0.3-0.4,0.5l0,0c-0.2,0.2-0.3,0.4-0.4,0.6l0,0
			c-0.7,0.5-1.3,1.3-1.6,2.2c0,0.1-0.1,0.1-0.1,0.2c-0.4,0.6-0.8,1.1-1.1,1.5c-0.4,0.3-0.7,0.7-1,1.2c-0.1,0.1-0.3,0.3-0.4,0.4
			c-1.1,0.9-2.3,1.7-3.5,2.5L8.9,17c-0.1,0-0.1,0.1-0.2,0.1c-0.3,0.2-0.6,0.5-1,0.7c-0.2,0.1-0.3,0.3-0.5,0.4
			c-0.2,0.2-0.4,0.4-0.7,0.6c-0.7,0.6-1.6,1.4-2.3,2.5c-0.6,0.9-1.1,1.7-1.4,2.6c0,0.1-0.1,0.2-0.1,0.2c0,0.1,0,0.1-0.1,0.2
			c-0.1,0.1-0.1,0.3-0.2,0.4c-0.2,0.6-0.4,1.1-0.5,1.7c-0.4,2.1-0.2,4.3,0.5,6.4c0,0.1,0.1,0.2,0.1,0.3L2.8,33.3z"/>
	</g>
	<path class="st0" d="M2.8,33.3C2.9,33.6,3,33.8,3.2,34c2.1,3,5.4,3.5,7,3.7c1.2,0.2,2.4,0.3,3.7,0.3c0,0,0.1,0.1,0.1,0.1
		c0.7,1,1.5,1.9,2.6,2.6c0.1,0.1,0.2,0.2,0.4,0.2c2.5,1.4,5.5,2.2,9.1,2.2c0.1,0,0.1,0,0.2,0c2.7,0,5.2-0.3,7.6-0.9
		c0.1,0,0.2-0.1,0.4-0.1c1.9-0.7,3.6-1.6,5.1-2.6c1.2-0.8,2.1-1.8,2.6-2.5c0.1-0.1,0.2-0.2,0.2-0.3l0.1-0.1c0.1-0.1,0.1-0.2,0.2-0.2
		c0.7-1,1.2-2,1.7-2.9c0.5-0.9,0.9-1.7,1.4-2.3c0.2-0.3,0.5-0.6,0.7-0.8c0.3-0.3,0.7-0.6,1-0.8c0.6-0.4,1.2-0.9,1.8-1.5
		c1.2-1,2.5-2.3,3.4-4.3c0-0.1,0.1-0.2,0.1-0.3c0.1-0.4,0.3-0.8,0.4-1.3c0-0.2,0.1-0.4,0.1-0.6c0.1-1.3,0.1-2.5,0.1-3.7
		c0-0.4,0-0.9,0-1.3c0-2.1,0.1-4.9-1.6-7.6c-0.3-0.5-0.7-0.9-1.2-1.3c-0.3-0.2-0.6-0.3-0.9-0.5c-1.2-0.6-2.6-0.9-3.5-1.1l-0.1,0
		c-2.1-0.4-4.5-0.2-6.8,0.5c-0.2-0.6-0.5-1.3-0.9-1.9c-0.3-0.5-0.7-0.9-1.2-1.3C36.6,3.2,36.3,3,36,2.8c-1.2-0.6-2.5-0.9-3.4-1.1
		l-0.1,0c-2.5-0.5-5.5-0.1-8.1,1c-2.5,1.1-4.1,2.5-5.3,3.8c-0.2,0.2-0.5,0.5-0.7,0.7c-0.1,0.1-0.2,0.3-0.3,0.4
		c-0.1,0.2-0.2,0.3-0.4,0.5l0,0c-0.2,0.2-0.3,0.4-0.4,0.6l0,0c-0.7,0.5-1.3,1.3-1.6,2.2c0,0.1-0.1,0.1-0.1,0.2
		c-0.4,0.6-0.8,1.1-1.1,1.5c-0.4,0.3-0.7,0.7-1,1.2c-0.1,0.1-0.3,0.3-0.4,0.4c-1.1,0.9-2.3,1.7-3.5,2.5L8.9,17
		c-0.1,0-0.1,0.1-0.2,0.1c-0.3,0.2-0.6,0.5-1,0.7c-0.2,0.1-0.3,0.3-0.5,0.4c-0.2,0.2-0.4,0.4-0.7,0.6c-0.7,0.6-1.6,1.4-2.3,2.5
		c-0.6,0.9-1.1,1.7-1.4,2.6c0,0.1-0.1,0.2-0.1,0.2c0,0.1,0,0.1-0.1,0.2c-0.1,0.1-0.1,0.3-0.2,0.4c-0.2,0.6-0.4,1.1-0.5,1.7
		c-0.4,2.1-0.2,4.3,0.5,6.4c0,0.1,0.1,0.2,0.1,0.3L2.8,33.3z"/>
	<g>
		<g>
			<g>
				<path d="M34.8,6.6c-0.2-0.1-0.3-0.2-0.5-0.3c-0.8-0.4-1.7-0.6-2.5-0.8c-1.9-0.4-4.1,0-5.8,0.8c-1.7,0.7-2.9,1.7-4.1,3
					c-0.2,0.2-0.5,0.5-0.7,0.7c-0.2,0.2-0.3,0.4-0.5,0.6c-0.1,0.1-0.2,0.3-0.3,0.4c-0.6,0.8-1.2,1.5-1.7,2.3c-1,1.4-2,2.7-3.3,3.8
					c-1.2,1-2.6,1.9-3.9,2.8c-0.1,0.1-0.3,0.2-0.4,0.3c-0.3,0.2-0.6,0.4-0.9,0.7c-0.9,0.8-1.8,1.6-2.5,2.6c-0.4,0.6-0.8,1.3-1.1,2
					c-0.1,0.2-0.1,0.3-0.2,0.5c0,0,0,0.1-0.1,0.1c-0.1,0.4-0.2,0.7-0.3,1.1c-0.3,1.5-0.2,3,0.3,4.4c0,0.1,0.1,0.1,0.1,0.2
					c1,1.5,2.7,1.9,4.5,2.1c2.3,0.4,4.6,0.2,6.8-0.2c2.1-0.4,4-1,5.8-2.2c0.8-0.6,1.6-1.2,2.3-2c1-1.1,1.5-2.4,2.2-3.7
					c0.5-1,1.2-1.9,1.9-2.8c0.9-1,2.1-1.6,3-2.6c1-0.8,1.9-1.8,2.5-3c0.1-0.3,0.2-0.6,0.3-0.9c0.1-1.5,0.1-3.1,0.1-4.6
					C35.8,10.1,35.8,8.3,34.8,6.6z"/>
				<path class="st12" d="M21.5,10.7c0-0.3,0.2-0.5,0.3-0.8C23.3,8.4,25,7.2,27,6.5c1.7-0.5,3.4-0.7,5.2-0.4c0,0.8-0.1,1.8-0.1,2.6
					c0,1-0.1,1.9,0,2.9c-0.2-0.1-0.4-0.1-0.6-0.2c-0.7-0.1-1.5,0.2-2.1,0.6c-0.8,0.5-1.3,1.1-2,1.7c-0.3,0.3-0.6,0.6-0.9,1
					c0,0-0.1,0.1-0.1,0.1c-0.4,0-0.7,0-1.1-0.1c-0.4-0.2-0.7-0.5-1-0.7c-0.3-0.1-0.5-0.1-0.8,0.1c-0.1-0.2-0.3-0.3-0.4-0.3
					c-0.1-0.1-0.3-0.1-0.4-0.2c-0.1,0-0.2,0-0.3,0c0.1-0.2-0.1-0.4-0.4-0.8C21.4,12.2,21.3,11.6,21.5,10.7z"/>
				<path class="st13" d="M35.5,12.6c0,1.6-0.1,2.9-0.5,4.3c-0.8,1.1-2.2,1.8-3.2,2.5c-1.2,0.8-2.3,1.7-3.2,2.8
					c-0.9,1-1.5,2.5-2.2,3.7c-0.7,1.4-1.7,2.8-2.9,3.8c-2.6,2.2-7.1,3.1-10.5,3c-1.8-0.1-4.7-0.6-6.5-1.9c-0.2-1-0.2-1.9-0.2-3
					c0-1.4,0.8-2.7,1.5-3.8C8,23.3,8.5,22.7,9,22.2c0.9-0.7,1.9-1.4,2.9-2c0.5-0.3,0.9-0.7,1.4-0.9c0.1-0.1,0.1-0.1,0.2-0.2
					c1.1-0.8,2.1-1.6,3-2.5c0.9-0.9,2.5-3,2.5-3.1c0.2-0.3,0.4-0.6,0.6-0.9c0,0,0,0,0,0c0,0,0,0,0,0c0.2-0.3,0.8-1.1,0.9-1.1
					c0.3-0.3,0.6-0.7,0.9-1c0,0,0,0.1,0,0.1c-0.1,0.4-0.2,0.9-0.2,1.3c0,0.3,0.1,0.6,0.3,0.9c0.2,0.3,0.7,0.5,0.7,0.9c0,0,0,0,0,0
					c0,0,0,0,0,0c0,0.1,0,0.2-0.1,0.3c-0.7,1-1.7,1.9-2.5,2.8c-0.1,0.1-0.2,0.2-0.3,0.3c-0.3,0.3-0.6,0.6-1,0.9
					c-0.8,0.6-1.7,0.7-2.6,0.9c-1.4,0.2-2.9,0.8-4,1.7c0,0,0,0,0,0c0.7-0.5,1.5-0.9,2.3-1.2c0.8-0.3,1.6-0.2,2.4-0.3
					c0.4-0.1,0.8-0.2,1.2-0.4c0.6-0.4,1.1-0.8,1.7-1.3c0.2-0.3,0.5-0.6,0.8-0.8c0,0,0,0,0,0c0.7-0.8,1.5-1.5,2.1-2.3
					c0.2-0.2,0.3-0.4,0.3-0.5c0.1,0,0.2,0,0.3,0.1c0.2,0.1,0.5,0.3,0.7,0.5c-0.1,0.1-0.1,0.1-0.2,0.2c-0.7,0.6-1.2,1.3-1.8,1.9
					c-0.9,1-2,2.1-1.7,3.5c0.2,0.8,0.7,1.6,0.9,2.3c0.3,0.9,0.4,2.1,0.3,3.1c0,0,0,0,0.1,0c0.5-1.4,0-2.9-0.5-4.3
					c-0.4-1-0.9-1.7-0.4-2.7c0.4-0.8,1.2-1.5,1.8-2.2c0.5-0.6,1.1-1.1,1.6-1.7c0.5-0.5,1.1,0.2,1.4,0.5c0.3,0.2,0.6,0.2,0.9,0.3
					c0.3,0,0.7,0,1.1-0.1c0.9-0.1,1.8-0.5,2.5-0.9c0,0,0,0,0,0c1-0.6,2-1.3,2.8-2.1c0,0,0,0,0,0c0,0,0,0,0.1-0.1c0,0,0,0,0,0
					c0.3-0.3,0.7-0.6,1-1c0.8-0.8,1.8-2,1.8-3c0,0,0,0,0,0.1c0.3,1.2,0.2,2.5,0.2,3.7C35.5,12,35.5,12.3,35.5,12.6z"/>
				<path class="st13" d="M35.5,12.6c0,1.6-0.1,2.9-0.5,4.3c-0.8,1.1-2.2,1.8-3.2,2.5c-1.2,0.8-2.3,1.7-3.2,2.8
					c-0.9,1-1.5,2.5-2.2,3.7c-0.7,1.4-1.7,2.8-2.9,3.8c-2.6,2.2-7.1,3.1-10.5,3c-1.8-0.1-4.7-0.6-6.5-1.9c-0.2-1-0.2-1.9-0.2-3
					c0-1.4,0.8-2.7,1.5-3.8C8,23.3,8.5,22.7,9,22.2c0.9-0.7,1.9-1.4,2.9-2c0.5-0.3,0.9-0.7,1.4-0.9c0.1-0.1,0.1-0.1,0.2-0.2
					c1.1-0.8,2.1-1.6,3-2.5c0.9-0.9,2.5-3,2.5-3.1c0.2-0.3,0.4-0.6,0.6-0.9c0,0,0,0,0,0c0,0,0,0,0,0c0.2-0.3,0.8-1.1,0.9-1.1
					c0.3-0.3,0.6-0.7,0.9-1c0,0,0,0.1,0,0.1c-0.1,0.4-0.2,0.9-0.2,1.3c0,0.3,0.1,0.6,0.3,0.9c0.2,0.3,0.7,0.5,0.7,0.9c0,0,0,0,0,0
					c0,0,0,0,0,0c0,0.1,0,0.2-0.1,0.3c-0.7,1-1.7,1.9-2.5,2.8c-0.1,0.1-0.2,0.2-0.3,0.3c-0.3,0.3-0.6,0.6-1,0.9
					c-0.8,0.6-1.7,0.7-2.6,0.9c-1.4,0.2-2.9,0.8-4,1.7c0,0,0,0,0,0c0.7-0.5,1.5-0.9,2.3-1.2c0.8-0.3,1.6-0.2,2.4-0.3
					c0.4-0.1,0.8-0.2,1.2-0.4c0.6-0.4,1.1-0.8,1.7-1.3c0.2-0.3,0.5-0.6,0.8-0.8c0,0,0,0,0,0c0.7-0.8,1.5-1.5,2.1-2.3
					c0.2-0.2,0.3-0.4,0.3-0.5c0.1,0,0.2,0,0.3,0.1c0.2,0.1,0.5,0.3,0.7,0.5c-0.1,0.1-0.1,0.1-0.2,0.2c-0.7,0.6-1.2,1.3-1.8,1.9
					c-0.9,1-2,2.1-1.7,3.5c0.2,0.8,0.7,1.6,0.9,2.3c0.3,0.9,0.4,2.1,0.3,3.1c0,0,0,0,0.1,0c0.5-1.4,0-2.9-0.5-4.3
					c-0.4-1-0.9-1.7-0.4-2.7c0.4-0.8,1.2-1.5,1.8-2.2c0.5-0.6,1.1-1.1,1.6-1.7c0.5-0.5,1.1,0.2,1.4,0.5c0.3,0.2,0.6,0.2,0.9,0.3
					c0.3,0,0.7,0,1.1-0.1c0.9-0.1,1.8-0.5,2.5-0.9c0,0,0,0,0,0c1-0.6,2-1.3,2.8-2.1c0,0,0,0,0,0c0,0,0,0,0.1-0.1c0,0,0,0,0,0
					c0.3-0.3,0.7-0.6,1-1c0.8-0.8,1.8-2,1.8-3c0,0,0,0,0,0.1c0.3,1.2,0.2,2.5,0.2,3.7C35.5,12,35.5,12.3,35.5,12.6z"/>
				<path class="st14" d="M35.3,8.1C35.3,8,35.3,8,35.3,8.1c-0.1,1-1.1,2.1-1.9,2.9c-0.3,0.3-0.6,0.7-1,1c0,0,0,0,0,0
					c0,0,0,0-0.1,0.1c0,0,0,0,0,0c-0.9,0.8-1.8,1.5-2.8,2.1c0,0,0,0,0,0c-0.8,0.4-1.6,0.8-2.5,0.9c-0.4,0.1-0.8,0.1-1.1,0.1
					c-0.3,0-0.7-0.1-0.9-0.3c-0.3-0.2-1-1-1.4-0.5c-0.5,0.6-1.1,1.1-1.6,1.7c-0.6,0.7-1.4,1.4-1.8,2.2c-0.5,1,0,1.8,0.4,2.7
					c0.5,1.3,0.9,2.8,0.5,4.3c0,0-0.1,0-0.1,0c0.1-1,0-2.2-0.3-3.1c-0.3-0.8-0.8-1.5-0.9-2.3c-0.3-1.5,0.8-2.5,1.7-3.5
					c0.6-0.6,1.1-1.4,1.8-1.9c0.1-0.1,0.1-0.1,0.2-0.2c-0.1-0.2-0.5-0.4-0.7-0.5c-0.1,0-0.2-0.1-0.3-0.1c-0.1,0.1-0.2,0.3-0.3,0.5
					c-0.6,0.8-1.4,1.5-2.1,2.3c0,0,0,0,0,0c-0.3,0.3-0.5,0.6-0.8,0.8c-0.5,0.5-1.1,0.9-1.7,1.3c-0.4,0.2-0.8,0.3-1.2,0.4
					c-0.8,0.1-1.7,0-2.4,0.3c-0.8,0.3-1.6,0.7-2.3,1.2c0,0,0,0,0,0c1.1-0.9,2.6-1.5,4-1.7c1-0.1,1.8-0.2,2.6-0.9
					c0.3-0.3,0.7-0.6,1-0.9c0.1-0.1,0.2-0.2,0.3-0.3c0.8-0.9,1.8-1.8,2.5-2.8c0.1-0.1,0.1-0.2,0.1-0.3c0,0,0,0,0,0c0,0,0,0,0,0
					c0-0.3-0.4-0.6-0.7-0.9c-0.2-0.2-0.3-0.6-0.3-0.9c0-0.4,0-0.9,0.2-1.3c0,0,0-0.1,0-0.1c-0.3,0.3-0.6,0.7-0.9,1
					c-0.1,0-0.7,0.7-0.9,1.1c0,0,0,0,0,0c0,0,0,0,0,0c-0.2,0.3-0.4,0.6-0.6,0.9c0,0-1.6,2.1-2.5,3.1c-0.9,0.9-1.9,1.8-3,2.5
					c-0.1,0.1-0.1,0.1-0.2,0.2c-0.5,0.3-1,0.6-1.4,0.9c-1,0.6-1.9,1.3-2.9,2c-0.5,0.5-1,1.1-1.3,1.6C7,25,6.2,26.3,6.2,27.7
					c0,1.1,0,2,0.2,3c1.8,1.3,4.8,1.8,6.5,1.9c3.4,0.2,7.8-0.7,10.5-3c1.2-1,2.2-2.4,2.9-3.8c0.6-1.2,1.2-2.7,2.2-3.7
					c1-1.1,2-2,3.2-2.8c1.1-0.7,2.4-1.4,3.2-2.5c0.4-1.4,0.5-2.7,0.5-4.3c0-0.3,0-0.5,0-0.8C35.5,10.5,35.6,9.3,35.3,8.1z
					 M15.5,29.2c-1.1,0.9-2.4,1.4-3.8,1.3c-1.4-0.1-3-0.3-4.1-1.1c-0.9-0.7-1.1-2.3-0.7-3.3C7.2,24.9,8,23.8,8.9,23
					c1.2-1.2,2.8-2.3,4.5-2.6c1.5-0.3,3.1,0.1,4,1.4C18.9,24.1,17.6,27.5,15.5,29.2z"/>
				<path class="st15" d="M12.4,19.8c0.1,0,0.2-0.1,0.3-0.1c0.9-0.5,1.9-0.8,2.8-1c1-0.1,1.8-0.2,2.6-0.9c0.3-0.3,0.7-0.6,1-0.9
					c0.1-0.1,0.2-0.2,0.3-0.3c0.8-0.9,1.8-1.8,2.5-2.8c0.1-0.1,0.1-0.2,0.1-0.3c0,0,0,0,0,0c0,0,0,0,0,0c0-0.3-0.4-0.6-0.7-0.9
					c-0.2-0.2-0.3-0.6-0.3-0.9c0-0.4,0-0.9,0.2-1.3c0,0,0-0.1,0-0.1c-0.3,0.3-0.6,0.7-0.9,1c-0.1,0-0.7,0.7-0.9,1.1c0,0,0,0,0,0
					c0,0,0,0,0,0c-0.2,0.3-0.4,0.6-0.6,0.9c0,0-1.6,2.1-2.5,3.1c-0.9,0.9-1.9,1.8-3,2.5c-0.1,0.1-0.1,0.1-0.2,0.2
					C13,19.5,12.7,19.6,12.4,19.8C12.4,19.8,12.4,19.8,12.4,19.8z"/>
				<path class="st15" d="M18.6,19.9c1.7,1.3,2.5,3.6,1.9,5.7c0.1-0.1,0.2-0.2,0.3-0.3c0.1-1,0-2.1-0.3-3c-0.3-0.8-0.8-1.5-0.9-2.3
					c-0.3-1.5,0.8-2.5,1.7-3.5c0.6-0.6,1.1-1.4,1.8-1.9c0.1-0.1,0.1-0.1,0.2-0.2c-0.1-0.2-0.5-0.4-0.7-0.5c-0.1,0-0.2-0.1-0.3-0.1
					c-0.1,0.1-0.2,0.3-0.3,0.5c-0.6,0.8-1.4,1.5-2.1,2.3c0,0,0,0,0,0c-0.3,0.3-0.5,0.6-0.8,0.8c-0.5,0.5-1.1,0.9-1.7,1.3
					c-0.4,0.2-0.8,0.3-1.2,0.4c-0.8,0.1-1.7,0-2.4,0.3c-0.2,0.1-0.4,0.2-0.6,0.3c0.5-0.1,1-0.2,1.5-0.3C16.1,19.1,17.5,19,18.6,19.9
					z"/>
				<path class="st15" d="M35.3,8.1C35.3,8,35.3,8,35.3,8.1c-0.1,1-1.1,2.1-1.9,2.9c-0.3,0.3-0.6,0.7-1,1c0,0,0,0,0,0
					c0,0,0,0-0.1,0.1c0,0,0,0,0,0c-0.9,0.8-1.8,1.5-2.8,2.1c0,0,0,0,0,0c-0.8,0.4-1.6,0.8-2.5,0.9c-0.4,0.1-0.8,0.1-1.1,0.1
					c-0.3,0-0.7-0.1-0.9-0.3c-0.3-0.2-1-1-1.4-0.5c-0.5,0.6-1.1,1.1-1.6,1.7c-0.6,0.7-1.4,1.4-1.8,2.2c-0.5,1,0,1.8,0.4,2.7
					c0.5,1.3,0.9,2.7,0.5,4.1c0.6-0.7,0.9-1.9,1-2.6c0.1-1.5-0.1-2.8,0.9-4.1c0.9-1.2,1.9-1.8,3.3-2.1c1-0.2,2-0.4,2.9-0.7
					c0.9-0.3,1.6-0.9,2.4-1.3c0.1,0,0.2,0,0.2,0.1c0.9,3.6-3.1,6.1-5.6,7.8c-2.2,1.5-4.1,3-5.9,5c-0.9,1-1.9,1.9-3.1,2.5
					c-1,0.6-2,1.1-3,1.5c-1.3,0.5-2.6,0.8-3.9,0.9c1,0.2,2,0.4,2.8,0.4c3.4,0.2,7.8-0.7,10.5-3c1.2-1,2.2-2.4,2.9-3.8
					c0.6-1.2,1.2-2.7,2.2-3.7c1-1.1,2-2,3.2-2.8c1.1-0.7,2.4-1.4,3.2-2.5c0.4-1.4,0.5-2.7,0.5-4.3c0-0.3,0-0.5,0-0.8
					C35.5,10.5,35.6,9.3,35.3,8.1z"/>
				<g>
					<g>
						<path class="st16" d="M24,15.4c-0.2-0.3-1.1-0.5-1.4-0.6c-0.2,0-0.3-0.1-0.5-0.1c0,0,0,0,0,0c-0.2-0.3-0.5-0.5-0.8-0.7
							c-0.2-0.1-0.7-0.4-0.9-0.2c-0.1,0.1-0.1,0.2,0,0.3c0.2,0.1,0.4,0.2,0.6,0.3c0.2,0.1,0.3,0.1,0.4,0.2c-0.3,0-0.6-0.1-0.9-0.1
							c-0.1,0-1.7-0.1-1.6,0.3c0,0.1,0,0.1,0,0.2c0.1,0.1,0.2,0.2,0.4,0.3c0.2,0.2,0.4,0.3,0.5,0.5c-0.4,0-0.8,0-1.2,0.1
							c-0.4,0.1-1.9,0.2-1.7,0.8c0,0.1,0,0.2,0.1,0.2c0.1,0.1,0.3,0.2,0.4,0.2c0.1,0,0.1,0.1,0.2,0.2c0,0,0.1,0.1,0.1,0.1
							c-0.1,0-0.2,0-0.2,0c-0.2,0-2.8,0.3-2.8,0.8c0,0,0,0,0,0c0,0,0,0,0,0c0.3,0.3,0.9,0,1.2-0.2c0.7-0.2,1.4-0.3,2.1-0.4
							c0.5,0.7,0.9,1.4,1.2,2.2c0.1,0.2,0.2,1.4,0.6,1.2c0.6-0.2-1-2.9-1.3-3.4c0.1,0,0.3,0,0.4,0c0.9,0.1,1.6,0.4,2.4,0.9
							c0,0,0.1,0,0.1,0c0,0,0,0,0,0c0.4,0.2,0.3-0.5,0.3-0.7c-0.1-0.4-0.3-0.8-0.5-1.1c-0.1-0.3-0.3-0.5-0.5-0.7
							c0.6,0.1,1.3,0.3,1.8,0.5c0.1,0.1,0.4,0.3,0.5,0.2c0.2,0,0.2-0.3,0.2-0.5c0-0.2-0.2-0.4-0.3-0.6c-0.1-0.2-0.2-0.3-0.4-0.5
							c0.3,0.1,0.6,0.2,0.9,0.4c0.2,0.1,0.2,0.1,0.5,0C24.1,15.7,24,15.5,24,15.4z M20.8,17.1c0.2,0.3,0.3,0.7,0.5,1
							c-0.3-0.2-0.8-0.3-1-0.3c-0.6-0.2-1.3-0.3-2-0.4c0,0,0,0,0,0c0,0,0,0,0,0c0.1-0.1-0.2-0.2-0.2-0.3c-0.2-0.2-0.3-0.3-0.5-0.4
							c0,0-0.2-0.1-0.3-0.2c0.9-0.4,1.9-0.5,2.8-0.4c0,0,0,0,0,0C20.4,16.5,20.6,16.8,20.8,17.1z M23,16.5c-0.1-0.1-0.2-0.2-0.3-0.2
							c-0.7-0.4-1.6-0.6-2.5-0.6c0-0.2-0.3-0.5-0.5-0.6c-0.1-0.1-0.2-0.2-0.3-0.3c0.3,0,0.7,0,1,0c0.5,0.1,1.1,0.1,1.6,0.3
							C22.3,15.6,22.8,16,23,16.5z"/>
						<path class="st17" d="M21,14.3c-0.1,0-0.1-0.1-0.2-0.1c-0.1,0-0.2-0.1-0.3-0.1c-0.2-0.1-0.2-0.2,0-0.3c0.6,0,1.1,0.6,1.5,0.9
							c-0.2,0-0.3-0.1-0.5-0.1C21.4,14.5,21.2,14.4,21,14.3z"/>
						<path class="st17" d="M19.4,15.3c-0.1-0.1-0.2-0.1-0.3-0.2c-0.1,0-0.2-0.1-0.2-0.2c0.1-0.1,0.2-0.1,0.3,0
							c0.2,0.1,0.4,0.3,0.6,0.4c0.1,0.1,0.3,0.3,0.4,0.4c0,0,0,0,0,0c0,0,0,0,0,0c-0.1,0-0.2,0-0.3,0c0,0,0,0,0,0
							C19.8,15.6,19.6,15.4,19.4,15.3z"/>
						<path class="st17" d="M17.6,17.2c-0.1-0.1-0.2-0.2-0.3-0.2c-0.1-0.1-0.3-0.2-0.3-0.3c0,0,0,0,0-0.1c0,0,0,0,0,0
							c0.1-0.2,0.6,0.2,0.7,0.3c0.1,0.1,0.2,0.2,0.3,0.3c0.1,0.1,0.2,0.1,0.2,0.2c-0.1,0-0.3,0-0.4,0C17.8,17.3,17.7,17.2,17.6,17.2
							z"/>
						<path class="st17" d="M19.3,19.4c0.2,0.3,0.3,0.7,0.4,1c0,0.1,0.1,0.2,0.1,0.3c0,0,0,0,0,0.1c0,0.1,0,0.1,0.1,0.2
							c0.1,0.2-0.2,0.3-0.3,0.2c0,0-0.1-0.1-0.1-0.1c0,0,0-0.1,0-0.1c0,0,0,0,0,0c0,0,0,0,0,0c0,0,0,0,0,0c-0.3-0.9-0.6-2.3-1.4-2.9
							c0.1,0,0.2,0,0.4,0C18.7,18.3,19.1,18.8,19.3,19.4z"/>
						<path class="st17" d="M21.2,18.5C21.2,18.5,21.2,18.5,21.2,18.5c-0.2-0.1-0.4-0.3-0.7-0.4c-0.9-0.4-2-0.5-2.9-0.4
							c-0.3,0-0.6,0.1-1,0.2c-0.3,0.1-0.5,0.1-0.8,0.2c-0.2,0.1-0.3,0.1-0.5,0.2c-0.1,0.1-0.2,0.1-0.2,0.1c0,0,0,0-0.1,0
							c0,0-0.1,0-0.1,0c-0.1,0-0.2-0.2-0.1-0.2c0.1-0.1,0.2-0.2,0.4-0.2c0.5-0.2,1.3-0.3,1.4-0.4c0.8-0.1,1.5-0.1,2.3-0.1
							c0.7,0.1,1.4,0.3,2,0.6c0.1,0,0.1,0,0.2,0.1c0,0,0.1,0,0.1,0c0,0,0,0,0.1,0c0.1,0,0.2,0.1,0.2,0.2
							C21.6,18.6,21.3,18.7,21.2,18.5z"/>
						<path class="st17" d="M21.3,17.4c0,0.1,0.4,0.8,0.3,1.1c0-0.1-0.1-0.3-0.3-0.3v0c0,0,0,0,0,0c-0.2-0.3-0.3-0.7-0.5-1
							c-0.1-0.1-0.5-1-0.7-0.9c0,0,0,0,0,0c0.1,0,0.3,0,0.4,0C20.9,16.5,21.2,16.9,21.3,17.4z"/>
						<path class="st17" d="M22.8,16.8c-0.1,0-0.1-0.1-0.2-0.1c-0.1,0-0.1-0.1-0.1-0.1c0,0-0.1,0-0.1-0.1c-0.5-0.2-1.1-0.4-1.8-0.5
							c0,0,0,0,0,0c0,0,0,0,0,0c-1.1-0.1-2.4-0.1-3.3,0.4c0,0,0,0,0,0c-0.1,0-0.2-0.1-0.3,0.1c0,0,0,0,0,0c0-0.1,0.1-0.2,0.3-0.3
							c0.4-0.2,0.7-0.2,1.1-0.3c0.7-0.1,1.3-0.2,1.9-0.1c0.5,0,1,0.1,1.5,0.2c0.3,0.1,0.6,0.2,0.8,0.3c0,0,0.1,0,0.1,0
							c0.1,0,0.1,0,0.2,0.1C23.1,16.6,23,16.9,22.8,16.8z"/>
						<path class="st17" d="M23,15.9c0.1,0.1,0.4,0.8,0.2,0.9c0.1-0.1,0-0.2-0.1-0.3c0,0,0,0,0,0c0-0.2-0.2-0.5-0.3-0.7
							c-0.1-0.2-0.2-0.3-0.3-0.4c0-0.1-0.1-0.2-0.2-0.2c0,0,0.1,0,0.1,0c0,0,0.1,0,0.1,0c0,0,0,0,0,0C22.7,15.5,22.8,15.7,23,15.9z"
							/>
						<path class="st17" d="M23.8,15.7c-0.1,0-0.2,0-0.3-0.1c0,0,0,0,0,0c-0.1-0.1-0.3-0.2-0.4-0.2c-0.7-0.3-1.4-0.5-2.1-0.6
							c-0.3,0-0.5-0.1-0.8-0.1c-0.3,0-0.7,0.1-1,0c0,0,0,0,0,0c0,0,0,0,0,0c0.6-0.1,2.3,0,2.5,0c0.4,0.1,0.9,0.2,1.3,0.3
							c0.2,0.1,0.4,0.1,0.6,0.2c0,0,0.1,0,0.1,0l0,0c0.1,0,0.2,0,0.2,0.1C24,15.6,24,15.7,23.8,15.7z"/>
					</g>
					<g>
						<path class="st16" d="M25.4,14.4c-0.9-0.6-2.1,0-3-0.3c0,0-0.1-0.1-0.2-0.1c-0.1,0-0.1,0-0.2,0c0,0,0-0.1-0.1-0.1
							c0.1-0.9-0.5-1.6-1.3-2.1c-0.5-0.3-1.3-0.2-1.5,0.5c-0.3,1,0.7,1.3,1.5,1.5c0.3,0.1,0.7,0.2,0.9,0.5c-1.4,0.2-3,0-4.2,0.9
							c-0.5,0.4-0.9,0.9-1.2,1.4c-0.1,0.1-0.2,0.6,0.1,0.6c0,0,0,0,0,0c0,0,0,0,0-0.1c0.5-1.6,2.1-2,3.6-2.2c0.5-0.1,1-0.2,1.5-0.3
							c0.1,0,0.3-0.1,0.4-0.1c0,0,0,0,0,0c0,0.1,0.2,0.2,0.3,0.2c0,0,0,0,0.1,0c0,0,0,0,0,0c0,0,0.1,0,0.1,0
							c-0.2,0.7-0.8,1.3-1.2,1.8c-0.4,0.5-0.8,1-1.1,1.5c-0.3,0.5-1,2-0.4,2.4c0,0,0,0,0.1,0c0.2-0.2,0.1-0.5,0.2-0.7
							c0.1-0.9,0.5-1.6,1-2.3c0.3-0.5,0.7-1,1-1.5c0.2-0.3,0.6-0.7,0.6-1.1c0.2,0.2,0.4,0.6,0.5,0.9c0.2,0.3,0.4,0.6,0.8,0.7
							c0.6,0.3,1.2-0.1,1.6-0.5C25.8,15.5,26,14.8,25.4,14.4z M19.8,14.8c-0.6,0.1-1.2,0.2-1.7,0.4c-0.8,0.3-1.6,1-1.9,1.8
							c-0.2,0.1-0.2-0.2,0-0.4c0.1-0.1,0.2-0.2,0.2-0.4c0.2-0.3,0.4-0.5,0.7-0.7c0.4-0.4,1-0.6,1.6-0.7c1-0.3,2-0.2,3-0.4
							c0,0,0,0,0,0C21.2,14.7,20.3,14.7,19.8,14.8z M21.5,14.1c-0.2-0.1-0.4-0.2-0.6-0.3c-0.5-0.2-1.1-0.2-1.5-0.6
							c-0.3-0.4-0.2-0.8,0.2-1.2c0.2-0.1,0.4-0.1,0.7-0.1c0.3,0.1,0.7,0.3,0.9,0.5c0.4,0.4,0.7,0.9,0.7,1.4c0,0.1,0,0.2,0,0.3
							c-0.1,0-0.1,0.1-0.1,0.2C21.7,14.4,21.6,14.1,21.5,14.1z M21.9,14.4c0.1,0,0.1-0.1,0.1-0.2c0,0,0,0,0,0c0.1-0.1,0.3,0,0.3,0.1
							C22.6,14.5,22.1,14.6,21.9,14.4z M22.4,14.8c0,0.5-0.5,0.9-0.7,1.3c-0.3,0.5-0.7,1-1,1.5c-0.6,0.8-0.8,1.5-1,2.5
							c-0.1,0.6-0.2-0.3-0.2-0.5c0-0.4,0.2-0.8,0.3-1.2c0.3-0.6,0.7-1.2,1.1-1.7c0.4-0.6,1.2-1.3,1.3-2.1
							C22.3,14.7,22.4,14.7,22.4,14.8C22.4,14.8,22.4,14.8,22.4,14.8z M25.4,15.7c-0.4,0.7-1.4,0.9-2,0.3c-0.2-0.2-0.4-0.5-0.5-0.8
							c-0.1-0.2-0.3-0.6-0.6-0.7v0c0,0,0.1,0,0.1,0c0.7,0.2,1,1.2,1.5,1.6c0.5,0.3,1.1-0.2,1.4-0.5c1.1-1.3-2.1-1.2-2.7-1.3
							c0-0.1,0-0.1,0-0.2C23.4,14.6,26.6,13.7,25.4,15.7z M22.4,14.5C22.5,14.5,22.5,14.5,22.4,14.5c0.9,0,3.8-0.2,2.7,1.2
							c-0.9,1.2-1.7-0.2-2.1-0.8C22.9,14.8,22.7,14.6,22.4,14.5z"/>
						<path class="st17" d="M18.7,14.8c-0.6,0.2-1.2,0.3-1.6,0.7c-0.2,0.2-0.5,0.5-0.7,0.7c-0.1,0.1-0.2,0.2-0.2,0.4
							c-0.2,0.2-0.2,0.5,0,0.4c0.3-0.9,1-1.5,1.9-1.8c0.6-0.2,1.1-0.3,1.7-0.4c0.5-0.1,1.4-0.1,1.8-0.3c0,0,0,0,0,0
							C20.7,14.6,19.7,14.5,18.7,14.8z"/>
						<path class="st17" d="M22,13.9c0-0.5-0.3-1.1-0.7-1.4c-0.2-0.2-0.6-0.5-0.9-0.5c-0.2-0.1-0.5,0-0.7,0.1
							c-0.4,0.4-0.5,0.8-0.2,1.2c0.4,0.4,1,0.4,1.5,0.6c0.2,0.1,0.4,0.2,0.6,0.3c0.1,0.1,0.2,0.4,0.4,0.2c0-0.1,0.1-0.1,0.1-0.2
							C22,14.1,22,13.9,22,13.9z M21.8,14.1c-0.1,0.1-0.4-0.2-0.4-0.2c-0.4-0.3-1-0.4-1.4-0.7c-0.1,0-0.1-0.1-0.2-0.1
							c-0.1-0.1-0.3-0.2-0.3-0.4c0-0.1,0-0.2,0-0.3c0-0.1,0.1-0.2,0.2-0.3c0.3-0.5,1.1-0.1,1.4,0.2c0.3,0.3,0.6,0.7,0.7,1.1
							C21.8,13.7,22,14,21.8,14.1z"/>
						<path class="st17" d="M22.4,14.3c-0.1-0.1-0.2-0.2-0.3-0.1c0,0,0,0,0,0c0,0.1-0.1,0.2-0.1,0.2C22.1,14.6,22.6,14.5,22.4,14.3z
							"/>
						<path class="st17" d="M21,16.7c-0.4,0.5-0.9,1.1-1.1,1.7c-0.2,0.4-0.3,0.8-0.3,1.2c0,0.1,0.1,1,0.2,0.5c0.1-1,0.4-1.7,1-2.5
							c0.3-0.5,0.7-1,1-1.5c0.2-0.4,0.7-0.8,0.7-1.3c0,0,0,0,0,0c0,0-0.1-0.1-0.1-0.1C22.2,15.5,21.4,16.2,21,16.7z"/>
						<path class="st17" d="M22.5,14.2c0,0,0.1,0.1,0,0.2c0.7,0.1,3.8-0.1,2.7,1.3c-0.3,0.3-0.9,0.9-1.4,0.5
							c-0.5-0.4-0.8-1.4-1.5-1.6c0,0-0.1,0-0.1,0v0c0.3,0.1,0.5,0.4,0.6,0.7c0.2,0.3,0.3,0.6,0.5,0.8c0.6,0.6,1.6,0.4,2-0.3
							C26.6,13.7,23.4,14.6,22.5,14.2z"/>
						<path class="st16" d="M21.1,12.4c-0.3-0.3-1.1-0.6-1.4-0.2c-0.1,0.1-0.2,0.2-0.2,0.3c0,0.1,0,0.2,0,0.3c0,0.1,0.2,0.3,0.3,0.4
							c0.1,0.1,0.1,0.1,0.2,0.1c0.4,0.3,1,0.4,1.4,0.7c0.1,0,0.3,0.3,0.4,0.2c0.2-0.1,0-0.5,0-0.6C21.7,13.1,21.4,12.7,21.1,12.4z
							 M21.6,14c-0.3-0.3-0.7-0.4-1.1-0.5c-0.1-0.1-0.3-0.2-0.5-0.3c-0.1-0.1-0.2-0.2-0.3-0.3c0,0,0,0,0,0c-0.1-0.1-0.1-0.1-0.1-0.2
							c-0.1-0.2,0-0.4,0.2-0.5c0,0,0,0,0,0c0.4-0.3,1.2,0.2,1.5,0.5c0.2,0.2,0.3,0.4,0.4,0.6c0,0.1,0.1,0.2,0.1,0.3
							C21.7,13.6,21.8,14.2,21.6,14z"/>
					</g>
				</g>
			</g>
			<path class="st12" d="M34.2,6.8c0.5,0.2,0.9,0.6,0.6,1.3c0,0.1-0.1,0.3-0.1,0.4c-0.2,0.9-0.9,1.7-1.6,2.4
				c0.1-0.8,0.1-1.5,0.1-2.3c0-0.7,0.1-1.5,0.1-2.3C33.6,6.5,33.9,6.6,34.2,6.8z"/>
			<path class="st12" d="M32.3,6.2C32.3,6.2,32.3,6.2,32.3,6.2c0.4,0.1,0.7,0.1,1,0.2c0,0.4-0.1,0.8-0.1,1.2c0,0.5,0,1,0,1.4
				c0,0.7-0.1,1.4-0.1,2.1c-0.2,0.2-0.5,0.5-0.7,0.7c0,0,0,0,0,0c0,0,0,0-0.1,0c0-1.1,0.1-2.2,0.1-3.2C32.3,7.7,32.3,6.9,32.3,6.2z"
				/>
			<path class="st12" d="M32.1,8.4c-0.1,0-0.1,0-0.2,0c-1.5-0.1-3,0.2-4.3,0.8c-1.9,1-3.8,2.4-5.3,4c0.1,0.1,0.1,0.2,0.1,0.3
				c0.1,0,0.2,0,0.3,0c0.1,0,0.3,0.1,0.4,0.2c0.1,0.1,0.4,0.2,0.4,0.3c0.2-0.2,0.5-0.2,0.8-0.1c0.4,0.2,0.7,0.6,1,0.7
				c0.4,0.1,0.7,0.2,1.1,0.1c0,0,0.1-0.1,0.1-0.1c0.3-0.4,0.6-0.7,0.9-1c0.6-0.6,1.2-1.2,2-1.7c0.6-0.4,1.4-0.7,2.1-0.6
				c0.2,0,0.4,0.1,0.6,0.2c0-1,0-1.9,0-2.9C32.1,8.6,32.1,8.5,32.1,8.4z"/>
			<path class="st12" d="M33.2,8.7c0,0.7,0,1.5-0.1,2.3c0.5-0.5,1-1,1.3-1.6C34,9.1,33.6,8.9,33.2,8.7z"/>
			<path class="st12" d="M32.3,8.4c0,1.1-0.1,2.2-0.1,3.2c0,0,0,0,0.1,0c0,0,0,0,0,0c0.2-0.2,0.5-0.4,0.7-0.7c0-0.7,0.1-1.4,0.1-2.1
				c0-0.1,0-0.2,0-0.3C32.8,8.6,32.5,8.5,32.3,8.4z"/>
			<path class="st18" d="M32.1,11.8C32.1,11.9,32,12,31.9,12c-1.3,1.2-2.6,1.8-4.2,2.6c-0.3,0.1-0.6,0.1-0.8,0.1c-0.1,0-0.1,0-0.2,0
				c0.2-0.2,0.3-0.4,0.5-0.6c0.2-0.3,0.5-0.5,0.7-0.7C28.8,12.6,30.8,11,32.1,11.8z"/>
			<path class="st13" d="M34.4,18.5c-0.4,0.5-0.9,1-1.4,1.4c-0.4,0.3-0.9,0.7-1.4,1c-0.2,0.2-0.5,0.4-0.7,0.6
				c-1.3,0.9-2.2,2.2-3,3.5c-1,1.6-1.8,3.2-2.8,4.6c-0.1,0.1-0.2,0.2-0.4,0.3c-0.3,0.3-0.7,0.6-1,0.9c-0.9,0.7-1.8,1.3-3,1.6
				c-2.5,0.8-5.2,1.1-7.8,1.1c-2,0-4-0.5-5.8-1.3c-0.2-0.3-0.4-0.7-0.6-1.1c1,0.7,2.2,1.1,3.2,1.4c3.7,1.1,7.7,0.2,11.3-1.1
				c3.4-1.2,5-4.4,6.6-7.4c1.1-2.1,2.7-3.4,4.7-4.7c0.9-0.5,1.8-1.1,2.5-1.9C34.7,17.8,34.5,18.2,34.4,18.5z"/>
			<path class="st13" d="M34.4,18.5c-0.4,0.5-0.9,1-1.4,1.4c-0.4,0.3-0.9,0.7-1.4,1c-0.2,0.2-0.5,0.4-0.7,0.6
				c-1.3,0.9-2.2,2.2-3,3.5c-1,1.6-1.8,3.2-2.8,4.6c-0.1,0.1-0.2,0.2-0.4,0.3c-0.3,0.3-0.7,0.6-1,0.9c-0.9,0.7-1.8,1.3-3,1.6
				c-2.5,0.8-5.2,1.1-7.8,1.1c-2,0-4-0.5-5.8-1.3c-0.2-0.3-0.4-0.7-0.6-1.1c1,0.7,2.2,1.1,3.2,1.4c3.7,1.1,7.7,0.2,11.3-1.1
				c3.4-1.2,5-4.4,6.6-7.4c1.1-2.1,2.7-3.4,4.7-4.7c0.9-0.5,1.8-1.1,2.5-1.9C34.7,17.8,34.5,18.2,34.4,18.5z"/>
			<path class="st19" d="M8.3,32c-0.6-0.2-1.2-0.5-1.7-0.9c0.1,0.4,0.3,0.8,0.6,1.1c0.4,0.2,0.8,0.3,1.2,0.5V32z"/>
			<path class="st20" d="M32.3,19.4c-1.9,1.2-3.6,2.6-4.7,4.7c-1.6,3-3.2,6.1-6.6,7.4c-2.4,0.9-5,1.5-7.7,1.5c0,0.2,0,0.4,0,0.6
				c2.5,0,5-0.3,7.3-1.1c1.2-0.4,2.1-1,3-1.6c0.3-0.3,0.7-0.6,1-0.9c0.1-0.1,0.2-0.2,0.4-0.3c1-1.5,1.8-3.1,2.8-4.6
				c0.8-1.3,1.7-2.6,3-3.5c0.3-0.2,0.5-0.4,0.7-0.6c0.5-0.3,0.9-0.6,1.4-1c0.5-0.4,1-0.9,1.4-1.4c0.2-0.3,0.3-0.7,0.5-1
				C34.1,18.3,33.1,18.8,32.3,19.4z"/>
		</g>
		<g>
			<path class="st21" d="M7.6,26.6c-0.2,0-0.4,0.1-0.6,0.1c0,0.5,0.1,1,0.5,1.6C7.5,27.7,7.5,27.1,7.6,26.6z"/>
			<path class="st21" d="M11.2,21.7c-1.5,1-3.8,2.8-4.1,4.7c0.2-0.1,0.4-0.1,0.7-0.2C8.3,24.5,9.7,22.9,11.2,21.7z"/>
		</g>
		<g>
			<g>
				<path d="M48.2,10.9c-0.2-0.1-0.3-0.2-0.5-0.3c-0.8-0.4-1.8-0.6-2.6-0.8c-1.9-0.4-4.2,0-6,0.8c-1.7,0.7-2.9,1.7-4.2,3
					c-0.2,0.2-0.5,0.5-0.7,0.7c-0.2,0.2-0.3,0.4-0.5,0.6c-0.1,0.1-0.2,0.3-0.3,0.4c-0.6,0.8-1.2,1.6-1.8,2.4c-1,1.4-2,2.8-3.4,3.9
					c-1.3,1.1-2.6,2-4,2.9c-0.1,0.1-0.3,0.2-0.4,0.3c-2.9,2-5.7,4-6.9,7.5c-0.4,1.1-0.2,2.5,0.4,3.5c0.4,0.7,1,1.2,1.6,1.7
					c2.2,1.2,4.7,1.7,7.2,1.7c2.4,0,4.6-0.2,6.9-0.8c1.5-0.5,2.9-1.2,4.2-2.1c0.7-0.5,1.3-1.1,1.8-1.8c0.1-0.1,0.2-0.2,0.2-0.3
					c1.2-1.7,1.9-3.7,3.1-5.4c0.3-0.5,0.7-0.9,1.1-1.3c0.5-0.5,1.1-1,1.7-1.4c0.4-0.3,0.8-0.6,1.1-1c1-0.9,2-1.8,2.6-3.1
					c0.1-0.3,0.2-0.6,0.3-0.9c0.2-1.6,0.1-3.2,0.1-4.7C49.2,14.4,49.2,12.6,48.2,10.9z"/>
				<path class="st12" d="M47.5,11.1c0.5,0.2,0.9,0.6,0.7,1.4c0,0.1-0.1,0.3-0.1,0.4c-0.2,0.9-0.9,1.8-1.6,2.5
					c0.1-0.8,0.1-1.6,0.1-2.4c0-0.7,0.2-1.6,0.1-2.3C47,10.8,47.3,10.9,47.5,11.1z"/>
				<path class="st12" d="M45.6,10.4C45.6,10.4,45.6,10.4,45.6,10.4c0.4,0.1,0.7,0.1,1,0.2c0,0.4-0.1,0.8-0.1,1.2c0,0.5,0,1,0,1.5
					c0,0.7-0.1,1.4-0.1,2.1c-0.3,0.2-0.5,0.5-0.8,0.7c0,0,0,0,0,0c0,0,0,0-0.1,0c0-1.1,0.1-2.2,0.1-3.3C45.6,12,45.7,11.2,45.6,10.4
					z"/>
				<path class="st18" d="M45.4,16.2c-0.1,0.1-0.2,0.1-0.2,0.2c-1.4,1.2-2.7,1.9-4.4,2.7c0,0,0,0-0.1,0.1c-0.4,0.2-0.8,0.3-1.3,0.4
					c0-0.1,0.1-0.1,0.2-0.2c0.3-0.2,0.5-0.6,0.7-0.9c0.2-0.3,0.5-0.5,0.7-0.7C42,17,44.1,15.4,45.4,16.2z"/>
				<path class="st12" d="M40.2,10.8c1.7-0.5,3.5-0.7,5.3-0.4c0,0.9-0.1,1.8-0.1,2.7c0,1-0.1,2,0,3c-0.2-0.1-0.4-0.2-0.6-0.2
					c-0.7-0.1-1.5,0.2-2.1,0.6c-0.8,0.5-1.3,1.1-2,1.7c-0.3,0.3-0.6,0.7-0.9,1c-0.1,0.1-0.3,0.4-0.5,0.5c-1.1,0.2-2.1,0-3-1
					c-0.5-0.5-1.1-0.1-1.5,0.4l0,0c-0.1-0.1-0.2-0.1-0.4-0.1c-0.2-0.1-0.4-0.1-0.6-0.2c-0.1-0.1-0.2-0.1-0.3-0.2
					c0.1-0.2,0.2-0.4,0.2-0.5c0.1-0.3-0.1-0.5-0.2-0.7c-0.2-0.3-0.3-0.8-0.3-1.2C35,13.8,37.4,11.7,40.2,10.8z"/>
				<path class="st12" d="M46.5,12.8c0,0,0,0.1,0,0.1c0,0.8,0,1.6-0.1,2.4c0.6-0.6,1.1-1.2,1.4-1.9C47.4,13.2,47,13,46.5,12.8z"/>
				<path class="st22" d="M45.6,12.7C45.6,12.7,45.6,12.7,45.6,12.7c0,1.2-0.1,2.3-0.1,3.4c0,0,0.1,0,0.1,0c0,0,0,0,0,0
					c0.2-0.2,0.5-0.5,0.8-0.7c0-0.7,0.1-1.4,0.1-2.1c0-0.2,0-0.3,0-0.5C46.1,12.7,45.8,12.7,45.6,12.7z"/>
				<path class="st12" d="M45.4,12.7c-2-0.1-4.3,0.8-6,1.8c-0.9,0.6-1.7,1.3-2.5,2.1c-0.7,0.6-1.5,1.5-2.4,1.8
					c-0.3,0.1-0.6,0.1-0.9,0.1c0,0.1-0.1,0.1-0.1,0.2c0.1,0,0.2,0.1,0.4,0c0.2,0,0.2,0.2,0.2,0.3c0.1,0,0.2,0.1,0.3,0.1
					c0.1,0,0.3,0,0.4,0.1l0,0c0.5-0.5,1.1-0.9,1.5-0.4c0.9,1,1.9,1.2,3,1c0.2-0.2,0.3-0.4,0.5-0.5c0.3-0.4,0.6-0.7,0.9-1
					c0.7-0.6,1.2-1.3,2-1.7c0.6-0.4,1.4-0.7,2.1-0.6c0.2,0,0.4,0.1,0.6,0.2c0-1,0-2,0-3C45.4,12.9,45.4,12.8,45.4,12.7z"/>
				<path class="st13" d="M47.7,23.1c-0.4,0.5-0.9,1-1.4,1.4c-0.5,0.4-0.9,0.7-1.4,1c-0.2,0.2-0.5,0.4-0.8,0.6
					c-1.4,0.9-2.2,2.3-3.1,3.6c-1,1.6-1.9,3.3-2.9,4.8c-1.3,1.3-2.6,2.4-4.5,3c-2.6,0.8-5.3,1.1-8,1.1c-2.3,0-4.4-0.6-6.4-1.6
					c0,0-0.1,0-0.1-0.1c-0.5-0.2-0.9-0.6-1.2-1c0,0,0,0,0,0l0,0c-0.4-0.5-0.6-1.2-0.6-1.9c0.7,1.9,3.2,2.9,5.1,3.5
					c3.8,1.1,8,0.2,11.6-1.1c3.5-1.3,5.1-4.5,6.8-7.6c1.2-2.1,2.8-3.5,4.8-4.8c0.9-0.6,1.8-1.1,2.6-1.9
					C48.1,22.4,47.9,22.8,47.7,23.1z"/>
				<path class="st13" d="M47.7,23.1c-0.4,0.5-0.9,1-1.4,1.4c-0.5,0.4-0.9,0.7-1.4,1c-0.2,0.2-0.5,0.4-0.8,0.6
					c-1.4,0.9-2.2,2.3-3.1,3.6c-1,1.6-1.9,3.3-2.9,4.8c-1.3,1.3-2.6,2.4-4.5,3c-2.6,0.8-5.3,1.1-8,1.1c-2.3,0-4.4-0.6-6.4-1.6
					c0,0-0.1,0-0.1-0.1c-0.5-0.2-0.9-0.6-1.2-1c0,0,0,0,0,0l0,0c-0.4-0.5-0.6-1.2-0.6-1.9c0.7,1.9,3.2,2.9,5.1,3.5
					c3.8,1.1,8,0.2,11.6-1.1c3.5-1.3,5.1-4.5,6.8-7.6c1.2-2.1,2.8-3.5,4.8-4.8c0.9-0.6,1.8-1.1,2.6-1.9
					C48.1,22.4,47.9,22.8,47.7,23.1z"/>
				<path class="st19" d="M22.7,37.5c-0.1,0-0.2-0.1-0.3-0.1c-1.9-0.5-4.4-1.6-5.1-3.5c0,0.7,0.2,1.3,0.6,1.9l0,0c0,0,0,0,0,0
					c0.3,0.4,0.7,0.8,1.2,1c0,0,0.1,0,0.1,0.1c1.1,0.6,2.3,1,3.5,1.3V37.5z"/>
				<path class="st20" d="M45.6,24c-1.4,0.9-2.6,1.8-3.6,3v1.3c0.6-0.8,1.2-1.6,2.1-2.2c0.3-0.2,0.5-0.4,0.8-0.6
					c0.5-0.3,1-0.6,1.4-1c0.5-0.4,1-0.9,1.4-1.4c0.2-0.3,0.3-0.7,0.5-1C47.4,22.8,46.5,23.4,45.6,24z"/>
				<path class="st13" d="M48.9,17c0,1.6-0.1,3-0.5,4.4c-0.8,1.1-2.2,1.8-3.3,2.6c-1.3,0.8-2.3,1.7-3.3,2.8c-1,1.1-1.6,2.5-2.2,3.8
					c-0.8,1.5-1.7,2.8-3,3.9c-2.7,2.3-7.3,3.2-10.8,3c-2.6-0.1-7.7-1.1-8.3-4.2c0,0,0-0.1,0-0.1c-0.2-1.7,1.4-3.8,2.5-4.9
					c1.4-1.4,3-2.5,4.6-3.5c0.5-0.3,1-0.7,1.5-0.9c0.1-0.1,0.2-0.1,0.2-0.2c1.1-0.8,2.2-1.6,3.1-2.6c1-1,1.9-2.1,2.7-3.2
					c0,0,0,0,0,0c0.2-0.3,0.3-0.6,0.4-0.9c0-0.1,0.1-0.1,0.2-0.1c0.4,0.2,0.7,1,0.6,1.5c-0.1,0.3-0.5,0.7-0.6,0.9
					c-0.5,0.6-1,1.1-1.5,1.6c0,0,0,0-0.1,0c0,0,0,0,0,0c-0.7,0.8-1.4,1.6-2.2,2.4c-0.5,0.5-1.8,0.7-2.4,0.9
					c-0.5,0.2-0.9,0.4-1.4,0.7c0.3-0.1,0.7-0.1,1-0.2c0.8-0.2,1.7-0.4,2.5-0.7c1-0.5,1.8-1.8,2.5-2.6c0.6-0.7,1.6-1.3,2-2.2
					c0.1-0.1,0.2-0.2,0.2-0.3c0.1,0.2,0.2,0.3,0.3,0.4c0.2,0.1,0.4,0.2,0.6,0.2c0,0,0.1,0,0.1,0c-0.1,0.1-0.2,0.2-0.2,0.3
					c-0.8,1.1-2.6,2.5-2.8,3.9c-0.1,0.7,0,1.2,0.3,1.8c0.5,1.1,0.9,2,1,3.3c0,0,0,0,0,0c0-0.8-0.1-1.5-0.3-2.2
					c-0.2-0.8-0.7-1.6-0.9-2.5c-0.2-1.2,1.1-2.3,1.8-3.1c0,0,0,0,0,0c0.5-0.6,1.1-1.2,1.5-1.6c1-1,1.3,0,2.1,0.4
					c0.6,0.3,1.4,0.5,2.1,0.4c1.3-0.3,2.6-0.9,3.8-1.6c1.1-0.6,2-1.3,2.9-2.2c0,0,0,0,0,0c0,0,0,0,0.1-0.1c0,0,0,0,0,0
					c0.3-0.3,0.7-0.7,1-1c0.8-0.9,1.8-2,1.9-3.1c0,0,0,0,0,0.1c0.3,1.2,0.2,2.5,0.2,3.8C48.9,16.4,48.9,16.7,48.9,17z"/>
				<path class="st13" d="M48.9,17c0,1.6-0.1,3-0.5,4.4c-0.8,1.1-2.2,1.8-3.3,2.6c-1.3,0.8-2.3,1.7-3.3,2.8c-1,1.1-1.6,2.5-2.2,3.8
					c-0.8,1.5-1.7,2.8-3,3.9c-2.7,2.3-7.3,3.2-10.8,3c-2.6-0.1-7.7-1.1-8.3-4.2c0,0,0-0.1,0-0.1c-0.2-1.7,1.4-3.8,2.5-4.9
					c1.4-1.4,3-2.5,4.6-3.5c0.5-0.3,1-0.7,1.5-0.9c0.1-0.1,0.2-0.1,0.2-0.2c1.1-0.8,2.2-1.6,3.1-2.6c1-1,1.9-2.1,2.7-3.2
					c0,0,0,0,0,0c0.2-0.3,0.3-0.6,0.4-0.9c0-0.1,0.1-0.1,0.2-0.1c0.4,0.2,0.7,1,0.6,1.5c-0.1,0.3-0.5,0.7-0.6,0.9
					c-0.5,0.6-1,1.1-1.5,1.6c0,0,0,0-0.1,0c0,0,0,0,0,0c-0.7,0.8-1.4,1.6-2.2,2.4c-0.5,0.5-1.8,0.7-2.4,0.9
					c-0.5,0.2-0.9,0.4-1.4,0.7c0.3-0.1,0.7-0.1,1-0.2c0.8-0.2,1.7-0.4,2.5-0.7c1-0.5,1.8-1.8,2.5-2.6c0.6-0.7,1.6-1.3,2-2.2
					c0.1-0.1,0.2-0.2,0.2-0.3c0.1,0.2,0.2,0.3,0.3,0.4c0.2,0.1,0.4,0.2,0.6,0.2c0,0,0.1,0,0.1,0c-0.1,0.1-0.2,0.2-0.2,0.3
					c-0.8,1.1-2.6,2.5-2.8,3.9c-0.1,0.7,0,1.2,0.3,1.8c0.5,1.1,0.9,2,1,3.3c0,0,0,0,0,0c0-0.8-0.1-1.5-0.3-2.2
					c-0.2-0.8-0.7-1.6-0.9-2.5c-0.2-1.2,1.1-2.3,1.8-3.1c0,0,0,0,0,0c0.5-0.6,1.1-1.2,1.5-1.6c1-1,1.3,0,2.1,0.4
					c0.6,0.3,1.4,0.5,2.1,0.4c1.3-0.3,2.6-0.9,3.8-1.6c1.1-0.6,2-1.3,2.9-2.2c0,0,0,0,0,0c0,0,0,0,0.1-0.1c0,0,0,0,0,0
					c0.3-0.3,0.7-0.7,1-1c0.8-0.9,1.8-2,1.9-3.1c0,0,0,0,0,0.1c0.3,1.2,0.2,2.5,0.2,3.8C48.9,16.4,48.9,16.7,48.9,17z"/>
				<path class="st14" d="M48.7,12.4C48.7,12.3,48.7,12.3,48.7,12.4c-0.1,1-1.1,2.2-1.9,3c-0.3,0.3-0.7,0.7-1,1c0,0,0,0,0,0
					c0,0,0,0-0.1,0.1c0,0,0,0,0,0c-0.9,0.8-1.9,1.6-2.9,2.2c-1.2,0.7-2.4,1.4-3.8,1.6c-0.7,0.1-1.5-0.1-2.1-0.4
					c-0.7-0.4-1.1-1.4-2.1-0.4c-0.4,0.4-0.9,1-1.5,1.6c0,0,0,0,0,0c-0.7,0.8-2,1.8-1.8,3.1c0.1,0.9,0.6,1.6,0.9,2.5
					c0.2,0.7,0.3,1.5,0.3,2.2c0,0,0,0,0,0c-0.1-1.3-0.5-2.2-1-3.3c-0.3-0.6-0.4-1.1-0.3-1.8c0.2-1.4,2-2.9,2.8-3.9
					c0.1-0.1,0.1-0.2,0.2-0.3c0,0-0.1,0-0.1,0c-0.2,0-0.4-0.1-0.6-0.2c-0.2-0.1-0.3-0.2-0.3-0.4c-0.1,0.1-0.1,0.2-0.2,0.3
					c-0.5,0.8-1.4,1.5-2,2.2c-0.7,0.8-1.5,2.1-2.5,2.6c-0.8,0.4-1.6,0.5-2.5,0.7c-0.3,0.1-0.7,0.1-1,0.2c0.5-0.2,0.9-0.5,1.4-0.7
					c0.7-0.2,2-0.4,2.4-0.9c0.7-0.8,1.4-1.6,2.2-2.4c0,0,0,0,0,0c0,0,0,0,0.1,0c0.5-0.5,1-1,1.5-1.6c0.2-0.2,0.6-0.6,0.6-0.9
					c0.1-0.5-0.2-1.2-0.6-1.5c-0.1,0-0.2,0-0.2,0.1c-0.2,0.3-0.3,0.6-0.4,0.9c0,0,0,0,0,0c-0.9,1.1-1.8,2.2-2.7,3.2
					c-0.9,1-2,1.8-3.1,2.6c-0.1,0.1-0.2,0.1-0.2,0.2c-0.5,0.3-1,0.6-1.5,0.9c-1.6,1-3.2,2.1-4.6,3.5c-1.1,1.1-2.8,3.1-2.5,4.9
					c0,0,0,0.1,0,0.1c0.6,3.1,5.7,4.1,8.3,4.2c3.5,0.2,8.1-0.7,10.8-3c1.3-1.1,2.2-2.4,3-3.9c0.7-1.3,1.3-2.7,2.2-3.8
					c1-1.1,2.1-2,3.3-2.8c1.1-0.7,2.5-1.5,3.3-2.6c0.4-1.4,0.5-2.8,0.5-4.4c0-0.3,0-0.6,0-0.8C48.9,14.9,49,13.6,48.7,12.4z
					 M26.6,36.3c-1.4,0-2.8-0.2-4.1-0.5c-1.2-0.3-2.7-0.8-3.6-1.8c-1.1-1.1-0.8-2.5,0.1-3.6c1.3-1.6,2.8-3.2,4.6-4.3
					c0.9-0.8,2-1.2,3.3-1c2.9,0.4,5.5,3.5,5.4,6.4C32.1,34.6,29.5,36.2,26.6,36.3z"/>
				<path class="st15" d="M48.7,12.4C48.7,12.3,48.7,12.3,48.7,12.4c-0.1,1-1.1,2.2-1.9,3c-0.3,0.3-0.7,0.7-1,1c0,0,0,0,0,0
					c0,0,0,0-0.1,0.1c0,0,0,0,0,0c-0.9,0.8-1.9,1.6-2.9,2.2c-1.2,0.7-2.4,1.4-3.8,1.6c-0.7,0.1-1.5-0.1-2.1-0.4
					c-0.7-0.4-1.1-1.4-2.1-0.4c-0.4,0.4-0.9,1-1.5,1.6c0,0,0,0,0,0c-0.7,0.8-2,1.8-1.8,3.1c0.1,0.9,0.6,1.6,0.9,2.5
					c0.2,0.7,0.3,1.5,0.3,2.2c0,0,0,0,0,0c-0.1-1.3-0.5-2.2-1-3.3c-0.3-0.6-0.4-1.1-0.3-1.8c0.2-1.4,2-2.9,2.8-3.9
					c0.1-0.1,0.1-0.2,0.2-0.3c0,0-0.1,0-0.1,0c-0.2,0-0.4-0.1-0.6-0.2c-0.2-0.1-0.3-0.2-0.3-0.4c-0.1,0.1-0.1,0.2-0.2,0.3
					c-0.5,0.8-1.4,1.5-2,2.2c-0.7,0.8-1.5,2.1-2.5,2.6c-0.8,0.4-1.6,0.5-2.5,0.7c-0.3,0.1-0.7,0.1-1,0.2c0.5-0.2,0.9-0.5,1.4-0.7
					c0.7-0.2,2-0.4,2.4-0.9c0.7-0.8,1.4-1.6,2.2-2.4c0,0,0,0,0,0c0,0,0,0,0.1,0c0.5-0.5,1-1,1.5-1.6c0.2-0.2,0.6-0.6,0.6-0.9
					c0.1-0.5-0.2-1.2-0.6-1.5c-0.1,0-0.2,0-0.2,0.1c-0.2,0.3-0.3,0.6-0.4,0.9c0,0,0,0,0,0c-0.9,1.1-1.8,2.2-2.7,3.2
					c-0.9,1-2,1.8-3.1,2.6c-0.1,0.1-0.2,0.1-0.2,0.2c-0.5,0.3-1,0.6-1.5,0.9c-0.3,0.2-0.5,0.3-0.8,0.5c2.4-0.3,4.9-1.7,7.1,0
					c1.4,1.1,1.9,2.8,1.9,4.5c0.2-0.5,0.4-0.9,0.4-1.1c0.3-1.6-0.1-3.2,1-4.6c0.6-0.7,1.3-1.6,2-2.1c0.5-0.4,0.9-0.3,1.5-0.3
					c2.2,0.1,4.1-1,5.8-2.4c0.4-0.3,1.8-1.6,2-0.4c0.2,0.9,0,2.4-0.4,3.3c-0.8,1.7-3,2.7-4.3,3.9C39.8,27,39,27.9,38.5,29
					c-0.5,1-0.8,2-1.3,3c-0.6,1.4-1.5,2.7-2.7,3.8c0.7-0.4,1.3-0.8,1.9-1.3c1.3-1.1,2.2-2.4,3-3.9c0.7-1.3,1.3-2.7,2.2-3.8
					c1-1.1,2.1-2,3.3-2.8c1.1-0.7,2.5-1.5,3.3-2.6c0.4-1.4,0.5-2.8,0.5-4.4c0-0.3,0-0.6,0-0.8C48.9,14.9,49,13.6,48.7,12.4z"/>
				<g>
					<path class="st16" d="M36.3,19.4C36,19.1,35,19,34.7,19c-0.2,0-0.3,0-0.5-0.1c0,0,0,0,0,0c-0.3-0.3-0.6-0.5-1-0.6
						c-0.2-0.1-0.8-0.3-0.9-0.1c-0.1,0.1,0,0.3,0.1,0.3c0.2,0.1,0.4,0.1,0.7,0.2c0.2,0,0.3,0.1,0.5,0.1c-0.3,0-0.6,0-0.9,0
						c-0.1,0-1.7,0.1-1.6,0.5c0,0.1,0,0.1,0.1,0.2c0.1,0.1,0.3,0.1,0.4,0.2c0.2,0.1,0.4,0.3,0.6,0.4c-0.4,0.1-0.8,0.2-1.2,0.3
						c-0.4,0.1-1.9,0.4-1.6,1c0,0.1,0.1,0.1,0.1,0.2c0.1,0.1,0.3,0.2,0.4,0.2c0.1,0,0.2,0.1,0.2,0.1c0.1,0,0.1,0.1,0.2,0.1
						c-0.1,0-0.2,0-0.2,0c-0.2,0-2.8,0.7-2.7,1.2c0,0,0,0,0,0c0,0,0,0,0,0c0.3,0.3,0.9-0.2,1.2-0.3c0.7-0.3,1.4-0.5,2.1-0.7
						c0.6,0.6,1.1,1.3,1.5,2.1c0.1,0.2,0.4,1.4,0.8,1.2c0.6-0.3-1.4-2.8-1.8-3.3c0.1,0,0.3,0,0.4,0c1-0.1,1.7,0.2,2.6,0.6
						c0,0,0.1,0,0.1,0c0,0,0,0,0,0c0.5,0.2,0.3-0.6,0.2-0.8c-0.1-0.4-0.4-0.7-0.6-1.1c-0.2-0.3-0.4-0.5-0.6-0.7
						c0.7,0,1.3,0.1,1.9,0.3c0.1,0,0.4,0.2,0.6,0.1c0.2,0,0.2-0.4,0.2-0.5c-0.1-0.2-0.2-0.4-0.4-0.5c-0.2-0.1-0.3-0.3-0.5-0.4
						c0.3,0.1,0.6,0.1,0.9,0.3c0.3,0.1,0.2,0.1,0.5,0C36.4,19.6,36.3,19.5,36.3,19.4z M33.2,21.5c0.2,0.3,0.4,0.7,0.7,1
						c-0.4-0.1-0.8-0.2-1-0.2c-0.7-0.2-1.4-0.2-2.1-0.1c0,0,0,0,0,0c0,0,0,0,0,0c0.1-0.1-0.2-0.2-0.3-0.3c-0.2-0.1-0.4-0.3-0.6-0.4
						c-0.1,0-0.2-0.1-0.3-0.1c0.8-0.5,1.8-0.7,2.8-0.8c0,0,0,0,0,0C32.7,21,33,21.2,33.2,21.5z M35.4,20.6c-0.1-0.1-0.3-0.1-0.3-0.1
						c-0.8-0.3-1.7-0.4-2.6-0.3c-0.1-0.2-0.4-0.4-0.6-0.5c-0.1-0.1-0.2-0.2-0.4-0.2c0.3,0,0.7-0.1,1-0.1c0.6,0,1.1,0,1.7,0.1
						C34.6,19.8,35.2,20.1,35.4,20.6z"/>
					<path class="st17" d="M33.1,18.7c-0.1,0-0.2,0-0.2-0.1c-0.1,0-0.2,0-0.3-0.1c-0.2-0.1-0.2-0.2,0-0.3c0.7-0.1,1.2,0.5,1.7,0.7
						c-0.2,0-0.3,0-0.5,0C33.5,18.8,33.3,18.8,33.1,18.7z"/>
					<path class="st17" d="M31.6,19.9c-0.1-0.1-0.2-0.1-0.3-0.2c-0.1,0-0.2-0.1-0.2-0.2c0.1-0.1,0.2-0.1,0.3,0
						c0.2,0.1,0.5,0.2,0.7,0.4c0.1,0.1,0.4,0.2,0.5,0.4c0,0,0,0,0,0c0,0,0,0,0,0c-0.1,0-0.2,0-0.3,0v0C32,20.1,31.8,20,31.6,19.9z"
						/>
					<path class="st17" d="M30,22.1c-0.1-0.1-0.2-0.1-0.3-0.2c-0.1-0.1-0.3-0.1-0.4-0.2c0,0,0,0,0-0.1c0,0,0,0,0,0
						c0-0.3,0.6,0.1,0.7,0.2c0.1,0.1,0.2,0.2,0.3,0.2c0.1,0.1,0.2,0.1,0.3,0.2c-0.2,0-0.3,0-0.5,0.1C30.2,22.2,30.1,22.1,30,22.1z"
						/>
					<path class="st17" d="M32,24c0.2,0.3,0.4,0.7,0.6,1c0.1,0.1,0.1,0.2,0.1,0.2c0,0,0,0,0.1,0.1c0,0.1,0.1,0.1,0.1,0.2
						c0.1,0.2-0.1,0.3-0.2,0.2c0,0-0.1-0.1-0.1-0.1c0,0,0-0.1,0-0.1c0,0,0,0,0,0c0,0,0,0,0,0c0,0,0,0,0,0c-0.4-0.9-0.9-2.2-1.9-2.7
						c0.1,0,0.2,0,0.4,0C31.3,23.1,31.7,23.5,32,24z"/>
					<path class="st17" d="M33.9,22.9C33.9,22.9,33.9,23,33.9,22.9c-0.3-0.1-0.5-0.2-0.7-0.3c-0.9-0.3-2.1-0.2-3,0
						c-0.3,0.1-0.6,0.2-1,0.3c-0.3,0.1-0.5,0.2-0.8,0.3c-0.2,0.1-0.3,0.2-0.5,0.2c-0.1,0.1-0.2,0.1-0.2,0.1c0,0,0,0-0.1,0
						c0,0-0.1,0-0.1,0c-0.1,0-0.2-0.1-0.1-0.2c0.1-0.1,0.2-0.2,0.3-0.2c0.5-0.3,1.3-0.5,1.4-0.6c0.7-0.2,1.5-0.4,2.3-0.4
						c0.7,0,1.4,0.1,2.2,0.3c0.1,0,0.1,0,0.2,0.1c0,0,0.1,0,0.1,0c0,0,0.1,0,0.1,0c0.1,0,0.2,0.1,0.3,0.2
						C34.3,22.9,34,23.1,33.9,22.9z"/>
					<path class="st17" d="M33.8,21.8c0,0.1,0.5,0.7,0.5,1.1c0-0.1-0.2-0.2-0.3-0.3v0c0,0,0,0,0,0c-0.2-0.3-0.4-0.7-0.6-1
						c-0.1-0.1-0.7-1-0.8-0.9c0,0,0,0,0,0c0.1,0,0.3,0,0.4,0C33.3,21,33.6,21.3,33.8,21.8z"/>
					<path class="st17" d="M35.3,21c-0.1,0-0.1,0-0.2,0c-0.1,0-0.1,0-0.1-0.1c-0.1,0-0.1,0-0.2,0c-0.6-0.2-1.2-0.2-1.9-0.2l0,0
						c0,0,0,0,0,0c-1.2,0-2.4,0.3-3.3,0.8c0,0,0,0,0,0c-0.1,0-0.2,0-0.3,0.1c0,0,0,0,0,0.1c0-0.1,0.1-0.2,0.3-0.4
						c0.3-0.2,0.7-0.3,1.1-0.4c0.7-0.2,1.3-0.3,2-0.4c0.5,0,1,0,1.6,0c0.3,0,0.6,0.1,0.9,0.2c0,0,0.1,0,0.1,0c0.1,0,0.1,0,0.2,0.1
						C35.6,20.7,35.5,21,35.3,21z"/>
					<path class="st17" d="M35.3,20c0.1,0.1,0.5,0.7,0.3,0.9c0.1-0.1,0-0.2-0.1-0.3l0,0c0-0.2-0.2-0.5-0.4-0.6
						c-0.1-0.1-0.3-0.3-0.4-0.4c-0.1,0-0.2-0.2-0.3-0.2c0,0,0.1,0,0.1,0c0,0,0.1,0,0.1,0c0,0,0,0,0,0C34.9,19.6,35.1,19.9,35.3,20z"
						/>
					<path class="st17" d="M36.2,19.7c-0.1,0-0.2,0-0.3,0c0,0,0,0,0,0c-0.1-0.1-0.3-0.1-0.5-0.2c-0.7-0.2-1.5-0.3-2.2-0.3
						c-0.3,0-0.6,0-0.8,0c-0.3,0-0.7,0.2-1,0.1c0,0,0,0,0,0c0,0,0,0,0,0c0.6-0.2,2.3-0.3,2.5-0.3c0.5,0,0.9,0.1,1.4,0.2
						c0.2,0,0.4,0.1,0.6,0.2c0,0,0.1,0,0.2,0c0,0,0,0,0,0c0.1,0,0.2,0,0.3,0.1C36.3,19.5,36.3,19.7,36.2,19.7z"/>
				</g>
				<g>
					<path class="st16" d="M37.6,18.2c-1-0.5-2.1,0.3-3.1,0.1c-0.1,0-0.1,0-0.2-0.1c-0.1,0-0.1,0-0.2,0.1c0,0-0.1-0.1-0.1-0.1
						c0-0.9-0.8-1.6-1.6-1.9c-0.6-0.2-1.4,0-1.5,0.7c-0.1,1,0.9,1.2,1.7,1.3c0.4,0,0.7,0.1,1,0.4c-1.4,0.4-3.1,0.5-4.2,1.5
						c-0.5,0.5-0.8,1-1.1,1.6c-0.1,0.2-0.2,0.6,0.1,0.6c0,0,0,0,0,0c0,0,0,0,0-0.1c0.3-1.7,1.9-2.4,3.4-2.8c0.5-0.1,1-0.3,1.5-0.5
						c0.1,0,0.3-0.1,0.4-0.2c0,0,0,0,0,0c0,0.1,0.2,0.1,0.3,0.1c0,0,0,0,0.1,0c0,0,0,0,0,0c0,0,0.1,0,0.1,0c-0.1,0.7-0.6,1.4-1,2
						c-0.3,0.6-0.6,1.1-0.9,1.7c-0.2,0.5-0.7,2.2,0,2.5c0,0,0,0,0.1,0c0.1-0.2,0.1-0.5,0.1-0.7c-0.1-1,0.3-1.7,0.7-2.5
						c0.3-0.5,0.6-1.1,0.8-1.6c0.2-0.4,0.5-0.8,0.5-1.2c0.3,0.2,0.5,0.6,0.7,0.8c0.2,0.3,0.5,0.5,0.9,0.6c0.7,0.2,1.2-0.2,1.6-0.8
						C38.1,19.2,38.2,18.5,37.6,18.2z M32,19.3c-0.6,0.2-1.2,0.4-1.7,0.7c-0.8,0.4-1.5,1.2-1.7,2.1c-0.2,0.1-0.2-0.1-0.1-0.4
						c0.1-0.1,0.1-0.3,0.2-0.4c0.1-0.3,0.4-0.6,0.6-0.8c0.4-0.5,1-0.8,1.5-1c1-0.4,2-0.5,3-0.8c0,0,0,0,0.1,0
						C33.3,19.1,32.4,19.2,32,19.3z M33.5,18.4c-0.2-0.1-0.4-0.2-0.6-0.2c-0.5-0.1-1.1,0-1.6-0.4C31,17.4,31,17,31.4,16.5
						c0.2-0.1,0.4-0.2,0.7-0.2c0.3,0,0.7,0.3,1,0.4c0.5,0.3,0.8,0.8,0.9,1.4c0,0.1,0,0.2,0,0.3c0,0.1-0.1,0.1-0.1,0.2
						C33.8,18.7,33.7,18.4,33.5,18.4z M34,18.7c0-0.1,0.1-0.1,0.1-0.2c0,0,0,0,0,0c0.1-0.1,0.3,0,0.4,0.1
						C34.7,18.7,34.2,18.8,34,18.7z M34.6,19c0.1,0.5-0.4,1-0.6,1.4c-0.3,0.6-0.6,1.1-0.8,1.7c-0.5,0.9-0.6,1.7-0.6,2.7
						c0,0.6-0.2-0.3-0.3-0.4c-0.1-0.4,0.1-0.9,0.2-1.3c0.2-0.7,0.6-1.3,0.9-1.9c0.4-0.7,1.1-1.5,1.1-2.3
						C34.5,18.9,34.5,18.9,34.6,19C34.6,19,34.6,19,34.6,19z M37.8,19.5c-0.3,0.8-1.3,1.1-2,0.6c-0.3-0.2-0.4-0.5-0.6-0.7
						c-0.2-0.2-0.4-0.6-0.7-0.6v0c0,0,0.1,0,0.1-0.1c0.7,0.1,1.2,1.1,1.7,1.4c0.5,0.3,1.1-0.3,1.3-0.7c0.9-1.5-2.3-0.9-3-0.9
						c0-0.1,0-0.1-0.1-0.2C35.6,18.6,38.7,17.3,37.8,19.5z M34.6,18.7c0,0,0.1-0.1,0.1-0.1c0.8,0,3.8-0.6,2.8,1
						c-0.8,1.3-1.7,0.1-2.2-0.5C35.1,18.9,34.8,18.7,34.6,18.7z"/>
					<path class="st17" d="M30.8,19.5c-0.5,0.2-1.2,0.5-1.5,1c-0.2,0.3-0.4,0.5-0.6,0.8c-0.1,0.1-0.1,0.3-0.2,0.4
						c-0.1,0.2-0.1,0.5,0.1,0.4c0.1-0.9,0.8-1.7,1.7-2.1c0.6-0.3,1.1-0.5,1.7-0.7c0.5-0.1,1.4-0.3,1.8-0.6c0,0,0,0-0.1,0
						C32.8,19,31.7,19.1,30.8,19.5z"/>
					<path class="st17" d="M34,18.1c-0.1-0.5-0.5-1.1-0.9-1.4c-0.3-0.2-0.7-0.4-1-0.4c-0.2,0-0.5,0-0.7,0.2C31,17,31,17.4,31.4,17.8
						c0.5,0.4,1,0.3,1.6,0.4c0.2,0.1,0.4,0.1,0.6,0.2c0.1,0.1,0.3,0.3,0.4,0.2c0-0.1,0.1-0.1,0.1-0.2C34,18.3,34,18.2,34,18.1z
						 M33.9,18.4c-0.1,0.1-0.4-0.1-0.5-0.2c-0.5-0.2-1-0.2-1.5-0.5c-0.1,0-0.1-0.1-0.2-0.1c-0.2-0.1-0.3-0.2-0.4-0.3
						c-0.1-0.1-0.1-0.2-0.1-0.3c0-0.1,0-0.2,0.1-0.3c0.3-0.5,1.1-0.2,1.5,0c0.4,0.2,0.8,0.6,0.9,1.1C33.8,17.9,34,18.2,33.9,18.4z"
						/>
					<path class="st17" d="M34.5,18.5c-0.1-0.1-0.2-0.1-0.4-0.1c0,0,0,0,0,0c0,0.1,0,0.2-0.1,0.2C34.2,18.8,34.7,18.7,34.5,18.5z"/>
					<path class="st17" d="M33.4,21.2c-0.3,0.6-0.7,1.2-0.9,1.9c-0.1,0.4-0.2,0.9-0.2,1.3c0,0.1,0.3,1,0.3,0.4c0-1,0.2-1.8,0.6-2.7
						c0.3-0.6,0.6-1.1,0.8-1.7c0.2-0.4,0.6-1,0.6-1.4c0,0,0,0,0,0c0,0-0.1,0-0.1-0.1C34.5,19.7,33.8,20.5,33.4,21.2z"/>
					<path class="st17" d="M34.6,18.4c0,0,0.1,0.1,0.1,0.2c0.7,0,3.9-0.6,3,0.9c-0.2,0.4-0.8,1-1.3,0.7c-0.6-0.3-1.1-1.4-1.7-1.4
						c0,0,0,0-0.1,0.1v0c0.3,0.1,0.5,0.4,0.7,0.6c0.2,0.3,0.4,0.5,0.6,0.7c0.7,0.5,1.7,0.2,2-0.6C38.7,17.3,35.6,18.6,34.6,18.4z"/>
					<path class="st16" d="M32.9,16.7c-0.4-0.2-1.2-0.5-1.5,0c-0.1,0.1-0.1,0.2-0.1,0.3c0,0.1,0,0.2,0.1,0.3
						c0.1,0.1,0.2,0.2,0.4,0.3c0.1,0,0.1,0.1,0.2,0.1c0.5,0.2,1,0.3,1.5,0.5c0.1,0,0.3,0.3,0.5,0.2c0.1-0.2-0.1-0.5-0.1-0.6
						C33.6,17.3,33.3,16.9,32.9,16.7z M33.7,18.3c-0.4-0.2-0.8-0.3-1.2-0.4c-0.1,0-0.4-0.1-0.6-0.2c-0.1-0.1-0.2-0.1-0.4-0.2
						c0,0,0,0,0,0c-0.1-0.1-0.1-0.1-0.2-0.2c-0.1-0.2,0-0.4,0.1-0.5c0,0,0,0,0,0c0.4-0.4,1.2,0.1,1.6,0.3c0.2,0.2,0.3,0.4,0.5,0.6
						c0,0.1,0.1,0.2,0.1,0.3C33.7,17.8,33.9,18.4,33.7,18.3z"/>
				</g>
			</g>
			<g>
				<path class="st21" d="M20.2,33.4c-0.1,0-0.1,0.1-0.2,0.1c-0.2,0.1-0.4,0.3-0.6,0.4c0.5,0.5,1.3,0.7,2.1,0.9
					C21,34.5,20.5,34,20.2,33.4z"/>
				<path class="st21" d="M19.8,31.4c0.1-1.2,0.7-2.3,1.6-3.2c0,0,0,0,0,0c-1.1,0.9-2,2-2.3,3.1c-0.2,0.6-0.3,1.2,0,2
					c0,0.1,0,0.1,0.1,0.2c0.3-0.2,0.6-0.4,0.9-0.6C19.8,32.4,19.7,31.9,19.8,31.4z"/>
			</g>
		</g>
	</g>
</g>
</svg>
